<mxfile host="65bd71144e">
    <diagram id="HTW08T67nUNDkju5gzdw" name="第 1 页">
        <mxGraphModel dx="1268" dy="745" grid="0" gridSize="10" guides="1" tooltips="1" connect="1" arrows="1" fold="1" page="0" pageScale="1" pageWidth="827" pageHeight="1169" background="#ffffff" math="0" shadow="0">
            <root>
                <mxCell id="0"/>
                <mxCell id="1" parent="0"/>
                <mxCell id="29" value="" style="shape=image;verticalLabelPosition=bottom;labelBackgroundColor=default;verticalAlign=top;aspect=fixed;imageAspect=0;image=data:image/png,iVBORw0KGgoAAAANSUhEUgAAAvoAAACuCAYAAABHn6kdAAAAAXNSR0IArs4c6QAAAARnQU1BAACxjwv8YQUAAAAJcEhZcwAADsMAAA7DAcdvqGQAADPGSURBVHhe7d0/b+JY2Dbwy+9n2PgbEE3iYhpoAzXRNDNIr/aRtgKtxLPFKyXFlIgyBVQrWSuFZoudhplmBDWkTZopnBmFb+DMd+AtbB8f28f/OICBuX5SNBnIzcFOisuHc24bf/z1z/r//e//BRERERERnY7/E3+AiIiIiIiOn/HHX/+s//37z/jjRERERER0xDijT0RERER0ghj0iYiIiIhOEIM+EREREdEJYtAnIiIiIjpBDPpEtHXzngHDMGD05vGnqABx/hpjrOJPliBex//ir4OI6NdSqOuOu7BhL93og1YHg44VfWxHdMfXrQcAuAvY9hLeq1joDDooVu1iYduID282++i3zOiDEQ6mwymc+MMKVmeAxKFE3m82ZX2cM8Vwqno3Bc+Fbn2FVuMGzm+fog92Z1jft6OPpdiofjVG4/wWsaqk+ggvjzeoxR+Pi7xeF7P1PTJGl6wwbpwj/vbroxc83qSPOu8ZuJ4UOM402z7+YyOOv47RyyMyTnUm8XuI6c7WKPprUf79lvobIiKiquTM6DuYDofJkAw/uA1tLBRPbY/u+Lr1fmAeDjEsGJoj/DFUw7tLG8OCQb5SwfErQzr8c5xxHnXrKzVHzzAUIQfA5BqG0cA4c7pVt34LVmM0DANGkdAcN+/BMJIhHwCebs9hGD1wgnhHajcYdgHgCbd3m5/l9v0a67X/NeuKxyfXBT5t8f92lH+/mOCan9gQER28jBl9eUbZRLPfh5iAjswWx57bGt3xt1nvzcBf/bTh5dUCs9DyDLbZRL/fghgi6zkhHD9/9l9BOsZCM/YqsVl45eu4C9j2d1yozqFufaXm6BnX8CZDY7OqkdnmtBlXzXrtGV15fG8Gfvh87s/uFpiNnfdgBFPB8VnzrOfEj2xrRn/T4z8B4jwX+H2VIM/yp87sZ/6NRv+2Nv4dExHRzqXO6LuLB3VIBgCzhb4Iui6WD2mztZvTHV+v3sXCDkK+hc5gUDJoO5hmBXl52ZC7RGL4Q+AuYIuQ7p2DREhHcC4VIV23vmKr8UAd0uHNtj6uZ/DmR9Uzrrr1elYYN4Ig1sVsvc5cZpM0Ry8ryLfvw9nhp1ts/e2Tp/0RozoATDDY4kc/7fvgbw+YDFR7AFYY/4+8zCt+odXG/frFf28AJoPdfzJFREQbSQn6Dh6C9SbWVUoIs3DV9J9wvm95CYru+Lr1JlpXlhfI82buVaTXs65Us/Xe+wqH3+7Z2wbnQf7Eo/w50K2v1hx3wXKF7jBlNrmNj0HSmXyJLWHRrddVw82w6820bjITPP8iZmu7w+RsPSCHUGDyZbvvngI1vPvdO8lPt3db/Btp432Q9J8+4Ws8pM/vxHKt+uhjyt9PDTf/jeC/ux1crBIR0Taog74IqiaaV2kRzcXz92BhtQM5qzrTIYZD/8tepK5tdxd2+HPyGm7N8bXrEZt1L8l9ffW/s3CR+hImzs78bxMXGlWTzkfqhVIW3fqKiaBbx+ijOuYAK3z9FKxdniCSdXXrt6F9v/FyitWPb/53XbxPfYka3rz1vy10oeLtV5A7wOxzffdq3IiOfSRdaGo3Q3/2fbt/I7XLYDo+af5FXOZhqL5K9dTewb8OKfg3QERE+6YM+mFQPcOZMqR5GyjlTaavr+F/Imux3SU+q3Zaugt8FrPu0VCtO75u/b6c/Ra8uVdUMHw6+ROJ9CuVdLr1FQuD7lu8UeacOXqxTarffoTTorr1xyIMi9+Q9fa9kC2t6Q5Mrne/oTdzQ6m3KfWww374yY96mc1mVs/q8wGsIP5865fqT3ME6WIv52+AiIiqoQz6rz/91Gn+hmDSWXAXsMUm0Y5YfuL+DMK1x+r0w+eWn2NdVRxM5VaVsZlz3fF167cnO8CbYkr/sIQXSiZ+2+At6tZXTYQgVdBZjdHwQ2t9NBPLV56epaCvWX84ssNbLUx56SbXfsiuY/QSdoB5CRd443pXSTvWorM7kzrQ+F9SI5qDVXv3u7dERrXMZgOrcSNsuVn/He8if6QriGuAt2+Sf78x4cXeEw7yT5iI6BenDPqpnKloM+l1gslKcSZaH5r++nQXy8/hEh5nKnfDKbF+u9T4Crr1BZmXF+K4vz9nJP09iSylSnwlW3yKC6UN6dYfrHlPtKnM6yOvtFH9E27Pk0tOGjvc/SiCJZ7waRvJUrGhs3bzGIbszGUfmx5/fEOpurtM+179+EHRbbU570XOXfjpRh2j/2J7MFY/EEzoExHR8Sse9KVWiVanYBcas4W+1F3GnjqAM/VbVAJm80Px9dubjC/TrS/DvMSF+DTDhq1YuuQu7Ize8lFez/14QE8P6tuTtvSpKN36AyK1lOzOynax2UJ9jNfHfkfLTqS110+358pQvRo3whabmdJbQ7bFjtDy689zj1/aUNqdqcc/JuJcZV4Upahd+hduofroBetEN52o+mXGk75Cn+oQEVFlCgX9MJSaaPZT2iSmsTrhz8t91a1O4bCtNf4W6ssz0ZI+qVAFdeVNvHbE6gwwGKR9ZX2ikr30KJ9u/WEIQ623/KTsDPBG9bUbPMaWmaiWm0yud3HTrRpuHsMWjEGoVs8K5+i+Tw/ZigAqaB6/vKE0fUPxEdlKq81w+VSRC83DXE5GRERl5Ab952kQSi10Nux3Lq/X9x9JrMtPozu+bv3m/P770QMXzGZf2oCcPfNtNvuKgF4kqG8m3CS8Gd36Q/K1F4Ta5PKTInTrVdr38l1ON1zOkauN+8ha+qj66EV6D2mbjnPU3iCYDy6zGbnU8av2SRwlqdXmp68bbsrd8PeUIdx4XkeBDwCIiGjPlEFfBDV3iaUDP7SqAuUrwn2vWevdw58L/p8106s7vm79NpktdUjvt8xw06pq0/BBcKG3R1m3vhpig+HTLW4nyFh+Em5clJc56NYXIvWxx7cfGwa/fLWbx8SMejAjLELepmFaZz34no7/kIhWm7u8SZl08VXkvIbde7Z/EUFERPqUQT/SDcZsSneRjXFfIRpZZkxJh5tvA9HNuXG64+vW70fYx9+8uFTfVKsi4WbizW7mpVtftci64/oIL8qQHg2qb6WUo1t/HML7ANR/f7dZ0Jfs7PifnnPD6vEIb3RV6iZlYhlUyt9hRA1hI528czeHWCG16cUeERHtlDLow7oQwTgrhIZ3P02/MZS7sMXmW6szCJerBJtzVXTH163fB+fB7+Nv4Wp/64mKkTYTw3mItUYtQLe+au33Yn16Void34VdXSLrwHXrCynXBnHrxGbXnJsqZVh9/bSz4w/bPpbf6HvI2h/9u9FOBsq9CfrCJUK55066g3LW3zmCfSpHcpMyIqJTog76UvB1lw/qri7uAg/+E2bzSj1j7kzDTafBplyrE65bd6bKjjT64+vW75i0KXnvYxdioiXuKJz96Yuabn3VwpnTp9s7dZeT1RgDP+XURx9jM6W69fnmvfAGVN3yKVmP1EFok/fumeNOtMXJ2LCbIu/4wxah273RVOVER6ScvQky0V5TvXE5LnLurtNuaDZHT3RdyrnYm/cim7fTX5OIiLYtJegD1lXQA9/BNN7C0V3Alm54pZ6RdjAVM/bRzbdm60PGzbQ8uuPr1u+Eu4A9HG7UeWjv5G5J7hL20Fb+nrxjUjynW18xMXOKCa7jd2+N3IhJHXJ069PN0TMMccOj+uilWBefbfDvMivaanZn+d1bVO0gpZuGAV3MSh1AweOv3eA/cTeyW5ynhNx579hmmGu48Zrqq89twgrj4Iqy6MWBfO5Uf7+Yoyfd6TivfWm4YTeQfSM2IiLaHuOPv/5Z//v3n/HHPZFArJK2ydXFwrb9pSkmmn1Ft5tY2Fa+zsbj+zTq3YVdogVm8hjz6q1OXpvP8ALFu7lX/ATmyD32UNZ7caZDsfQqXfL4A7r1lYrdWTUpbZOtT6N+NW7ktrDMuulWkfpQHaOXaEegvPruLLtN6LwXhvF0yXEDeeMj5/gDRd5H3rEcnhXGjXPcPhU5B+HPAt7F2brgwW7t3EmfAHnS/+6JiGi7Umf0AXg3vBqoQ6DX8lEVkuWQn3FTLLOFD6L1pGLWHZuOL9Gt3zqvj/8g5T0dIq8Hf7w9qsRsop/RtlS3vlL+Jka5b3vAu+FQTljRrU/RnRXvhb5dYR/2vHDXvl9j/RJ8qpHkHYM65Ocpc/zt+zXW65ewQ09EifsaHJQyrTalTwBQx+hj8YPN/B3WR3gp8HcAAGjfR9q05n0CQERE25M9o09ERAcoXD5TaFZdl/h0Kv1TGCIiOjzZM/pERHSANmy1uSnRX/8Jn75mf4ZARESHg0GfiOgI7b7VpkzuJHWORmzA49vUTET0a+DSHSIiKiC2sTeBm2yJiA4NZ/SJiKiAGm4e15GNtaE6Ri8M+UREh4ZBn4iICqvdPGK99jofhV/coEtEdIgY9ImIiIiIThCDPhERERHRCWLQJyIiIiI6QQz6REREREQniEGfiIiIiOgEMegTEREREZ0gBn0iIiIiohPEoE9EREREdIIY9ImIiIiIThCDPhERERHRCTL++Ouf9b9//xl/PMJd2LCXbvRBq4NBx4o+tiO64+vWAwDcBWx7Ce9VLHQGHRSrdrGwbcSHN5t99Ftm9MEIB9PhFE78YQWrM0DiUCLvN1u8Xnm+Isocf8rrlT3/FVqNGzi/fYo+2J1hfd+OPpaC9dXWAwBWYzTOb+G9Shez9T1KVBMRER2lnBl9B9PhMBnSAMCZYji0sVA8tT264+vW+4F5OMSwYGiO8MdQDe8ubQwLBvnD453X/Pe/hfNfqTl6hpEMmQAwuYZhNDBexZ+Qsb7aej/gGwYMEfKJiIh+HRkz+vKMsolmvw8xAR2ZLY49tzW642+z3puBv/ppY+qg2Iy2M8XQ+2HAbKLfb0EMkfWcEI6fP/uvIB1jfMY+TzgDrzo38U8oVD+DLZz/qs3RM64xAQDUMXp5xE3NfyoyOxx7TmD94dQD9dELhs/nuJ6AM/pERPTLSJ3RdxcP6pAGAGYLfRF0XSwfsud1N6E7vl69i4UdhFQLncGgZNB2MM0K8vKyFXeJxPAHzUSrP5CW3bhYfl4kPu3QO//VW40H6pAJALUbPK5n6AIAnnB7N5ee9LC+yvoVxo0g5HcxW6/xmLwSICIiOnkpQd/BQzBla12lzLZauGr6Tzjfc5ZwlKU7vm69idaV5QXyvJl7Fen1rCvVbL33vsLht3v29sLqhJ8SJC5WdM9/1ea4C5aLdIeK2WIAaOPjqO59O/mCaNRkfbX1NdwMu946fs7cExHRL0wd9EXwMtG8Sou5Lp6/B/O4DuSs6kyHGA79Lzs52xtwF3b4c8EMOPTH166H3mZR9/XV/87CRepLmDg78789uKBbjHXVFBcxkYuVbZz/Ks2/hLPJH9Ni4gpfPwWrvif4IidN1ldbDwDt+3KbdYmIiE6QMuiHQfUMZ8rZWAfT2CbT19fwP5E14e4Sn1U7Lt0FPotZ32io1h1ft35fzn4L3twrKhhen3mJC3EIr+KC7ljOf5rVj2/+d2/xRjmbPEfPOIe8R/Tbj3BXKOurrSciIiKPMui//vRDl/kbgklnwV3AFptEO2L5ifszCHceq9MPn1t+jnVXcTCVW1XGZs51x9et357sAG+KKf1jJX0q4f5EcAYP5/xvZvXsJ8j6JRI5czVGw9/kWR/NEKweeXqWgirrvW8qqiciIiKPMuincqaizaTXCSYR4yQmWh+CpR3RDZvOVO7GUmINfKnxFXTrCzIvL8Rxf3/OSPp7EllKlfjKa5G5RXs6/zsz74k2jfXRS/kNnqyvtp6IiOgXUzzoSy0hrU7BLjRmC32pu4w9dQBn6reoBMzmh5SNmgqbjC/TrS9DWtLiLm3YiqVL7sKO7kvI4PXcjwf0CoJ6puxPL/Z6/ndh3oPh9WZEd7ZBFxfWV1tPRET0CyoU9MNQaqLZL9eTPdKdRe4fb3UKhz2t8bdQX56JlvRJhSqoK28itSNWZ4DBIO2rxCcqmdLW41dx/rdrNW74IbOO0csaZfd4sr7aeiIiol9VbtB/ngah1EJnsNmNjeT1+v4jiXX5aXTH163fnN9/P3rggtnsSxuQ00Mygp9NBPRtB/VNuBD7blNUd/6342svuDNrF7O16sZM2VhfbT0REdGvTBn0RTcYd4mlAz+kqQLlK8J9l1nrrcOfC/6ftcxDd3zd+m0yW+qQ3m+ZYXca1abVoyD9XqVjOKTzv4naZbDD8xa3E/ghU9WPfYVw32iYQFlfbT0RERF5lEE/0g3GbEp3MY1xX0WnlbOMKelw821AfTfVgO74uvX7EfaRNy8u1TfVOnRS/3/5GI7j/KervXkb/qc+wosyZAJY/YBoBCn1gWR9tfVERETkUQZ9WBcimGWFUOchbJGZdmMod2GLzbdWZxAuVwk256rojq9bvw/Og99H3sLVsa1nAQC4WIjb4Zq4uJSO4RjOf5b2e3T9b+u/v0u2ePTN77wOMEAX7+Ukyvpq60/QatyAYRgwDAO9+M3BCjj2eiIi2ow66EvBy10+qLu6uAsEOc9sXqlnbJ1puOk02JRrdcJ1685U2ZFGf3zd+h2TNiXvfewtcRefxQ2vkt2TDvz852rjvZ80n27voMwlqzEGXhMY1EcfYzPOrK+2/sTMe/4+Bc/kuqc+J2mOvZ6IiDaWEvQB6yroge9gGm/h6C5gSze8Us9IO5iKGfvo5luz9SHjZloe3fF163fCXcAeDjfqPHQw/GMQF3BmEx8Ux3CQ57+E9scRvJXiE1wbsWCyGqPh93MHuhgqdoiyvtr6UxLeKTjwDWVuBHzs9UREtDnjj7/+Wf/795/xxz2RQKaStsnSxcK2/RlfE82+ottKLOwpX2fj8X0a9e7CLtECM3mMefVWJ6/NZBiQvZtLxU9gjtxjD8XfS957D+S+r9z3kH7+D0IkUKqkbRL1sb6y+tW4EZlFzlbH6OWAO/pI9xDwpB+30rHXExHRxlJn9AF4N7waqAOp1/JRFdLkkK9a1uEzW/ggWk8qZn2x6fgS3fqt8/rID1Le07EI+vJnhnwc4vkvqXaDx/Uas2DBuKQ+esE6L6ywvtr6U9G+x8vI70QEoDsredzHXk9ERBvLntEnIiIiIqKjlD2jT0RERERER4lBn4iIiIjoBDHoExERERGdIAZ9IiIiIqITxKBPRERERHSCGPSJiIiIiE4Qgz4RERER0Qli0CciIiIiOkEM+kREREREJ4hBn4iIiIjoBDHoExERERGdIAZ9IiIiIqITxKBPRERERHSCGPSJaOvmPQOGYcDozeNP0R6J34P/xV8HEdGvxfjjr3/W//79Z/zxCHdhw1660QetDgYdK/rYjuiOr1sPAHAXsO0lvFex0Bl0UKzaxcK2ER/ebPbRb5nRByMcTIdTOPGHFazOAIlDibzfbPF65fmKKHP8svi52PR19ms1buD89in6YHeG9X07+liKjepXYzTObxGrSqqP8PJ4g1r88bjI63UxW98jY3TJCuPGOeJvvz56weNN+qjznoHrSYHjVJn3YFxP4o9mqGP08oi0t7PR+T8R4vcQ052tUfTwleev1N8QERFVJWdG38F0OFSHPmeK4dDGQvHU9uiOr1vvB+bhEMOCoTnCH0M1vLu0MSwY5A+Pd17Lvn938Vl5Lg7XHD3DUIQcAJNrGEYD41X8CZlu/RasxmgYBowiFw1x8x4MIxnyAeDp9hyG0cNhTxAfwPmvWPt+jfXa/5p1xeOT6wKftvh/O8rzhwmu+YkNEdHBy5jRl2eUTTT7fYgJ6Mhscey5rdEdf5v13gz81U8bUwfFZqKdKYbeDwNmE/1+C2KIrOeEcPz82X8F6RjjM/Z5whl91bmJz8qrfkZF9QlFgfNYmTl6xjW8ydDYjHFkdjxtNlmzXvxMyvO55PG9Gfjh87k/u1tgNlaeVY9/apD1nPgRjRn9gsKZZtXxaJ7/EybP8qfO7Geeo+jf1i5/x0REpCd1Rt9dPKhDMgCYLfRFQHOxfCgzr1uM7vh69S4WdhBKLXQGg5JB28E0K8jLy4bcJRLDHzQTrf5AWvbkYvl5kftphzP1z6fZRKdZ5lxWYzUeqEMiANRu8LiewZsffcLtXXJWU7dezwrjRhDEupit15nLbJLm6GUF+fZ9ODv8dIutv/1C5rjzZ5rro4+Ji5Zqz/9ha98Hxw5MBmMkP9RYYfw/8jKv+IVQG/frF4zq/n8ng5P/ZISI6FilBH0HD8GUrXWVMltr4SoIbM73Uks48umOr1tvonVleYF8kxln6fWsK9Vsvfe+wuG3e/b2wuqEnxLkXay4C/G8ddXCWfz5gxOGSHSHKbO9bXwMks7kS2wJi269rhpuhl1vpjUx013A/IuYre0Ok7P1AID2RxH0Jl+2++6LCIN8F8PECa76/B+6Nt4HSf/pE77GQ/r8TizXUl1EeWq4+W8E7wz+ehdLRETHQh30RVA10bxKi7kunr8H87gO5KzqTIcYDv0vO322113Y4c8FM+DQH1+7HrFZ95Lc11f/OwsXqS9h4ixIvIkLjeNgXTXFRUz6xYqLxWd/mZR8cXDIRNCtY/RRHXOAFb5+CtYuTxDJurr129C+33g5xerHN/+7Lt6nvkQNb9763xYKyt56ebkDzObru+Ug/z4ZRA/h/GsKuuU0xFT5Ns8fULsMpuOT5l/EZZ7iIkpSe4ffxax+kb8BIiLaN2XQD4PqGc6U09EOprFNpq+v4X8ia8LdJT6rdry6C3wWs+7RUK07vm79vpz9Fry5V1QwvD7zEhfiEF6VF3ThBlwLnaNI+XLQfYs3ypwzRy+2SfXbj3BaVLf+WIRh8Ruy3v5q3IAhr+kOTK432tAbWZajCPKndv63ff4AYPUsHXzECuL01S/Vn+YI0sVezt8AERFVQxn0X3/6kc38LbnMwl3AFptEO2L5ifszCNceq9MPn1t+jnW3cTCVW1XGAqDu+Lr125Md4E0xpX+spE8l3J9InsFwCZXZvCq/BKoiIgSpgs5qjIYfuuqjmVi+8vQsBX3N+sORHd5qYcpLN7n2N8zWMXoJO8C8hAu8cV1qZjp/Wc7pnH+vu9F2z5934SBabtZ/x7vISVpBXAO8fZM8fzHhxd4TDvQUEhH90pRBP5UzFW0mvU4wWUHVROtDsLQjumFTbMyEiWa/xBr4UuMr6NYXZF5eiOP+/pyR9PckspQq8RXvhLM98gbcD+qNEsdl3hNtKvP6yCttVP+E2/PYko3Iko7tq737Xay9/pRYwL2J5IbO2s0jRLfHMss+Ci3LSbHR+T8Emudv3ov87YTtMusY/Rfbg7H6gWBCn4iIjl/xoC+1hLQ6BbvQmC30pe4y9tQBnKnfohIwmx9SNsoqbDK+TLe+DGlJi7u0YSuWLrkLO7ovIYPXcz8e0Hcf1MuJfXohfs8mmh9SNiQfE6mlZHdWtovNFupjvD72O7rTqbT2+un2XHlRsRo3Ct7UStX60tMWO0KLrpFfYTzwx0zMROfY8vnfny2cv9qlf+EWqo9esE5004mqX2Y86Sv0qQ4REVWmUNAPQ6mJZr9cT/bIBky5f7zVKRy2tcbfQn15JlrSJxWqoK68ideOWJ0BBoO0rxKfqGSS90O4WIRtdopfzB2oMNR6yyfK7nHdqL52g8fgRkexL+m+R5hc7+KmTzXcPIYtGIOLCvWscA7VZtmAIoBmkrrBpHYDUtjo/B+KbZ4/aflPkQudQ13ORERExeUG/edpEEotdAZFboyUJK/X9x9JrMtPozu+bv3m/P77KT3jzWZf2oCctmnYYzb7ioC+7aC+CRdi37P86BFuwE3ztReE2uTyiSJ061Xa9/JdTnfV2rCN+8ha8Kj66EV6D2mbXnPU3iCYD87fDCvP5o9QdNXOLs7/wSh1/rD57ylDuPG5jgIfABAR0Z4pg77oBuMusXTgh1ZVoHxFuO81a717+HPB/7M2qeqOr1u/TWZLHdL7LTPsDqTaNHwUpN+rOIZwA67VUZ3zwyc2GD7d4naCjOUT4cZFeZmDbn0hUh97fPuhuOnRdtRuHhOfKAQzwiLkqTa9FlFmPXiJ2fy9nP9DUOb8FSVdPBT5uwq792z/IoKIiPQpg36kG4zZlO4iG+O+ik4rZxlT0uHm20D23VR1x9et34+wj795cXmca9il/v/iGKTH0jYBh8uWHEzF43asM1N1IuuO6yO8KENiNGi9lVKObv1xCPvQ139/lxm8i8g+fmk2P7O3v+fXOP9Rme9fLANLOQ8RNYSNdJ5zgv4couX+phd7RES0U8qgD+tCBOOsEOo8hC0y024M5S5ssfnW6gzC5SrB5lwV3fF16/fBeRDLW672t55oi6R1+DBxcXmMx5Ci/V6sT88KsfM7r4NLInzq1hdSrg3i1okZ9pybKmVYff1U7PgL3alVspfzX73C56+UGt6Fd8HK3uQr3UE56zwDwb0AvP0dO9lATkRESuqgLwVfd/mg7uriLhDkvNQe6c40nL0NNuVanXDdujNVdqTRH1+3fsekTcl7H3tLwnX4se5JViexTCn+Fe5b8PYxeI/vc/9EnjaChiZPt3fq1oWrMcIl4/HwqVufb94Lb6DU3V7KK0bqYLPJe/fk3N1WUvhOrcLuz3/1ip+/sL1msY3bYXtVYHKddkOuOXqi61LO72Xei2zeTn9NIiLatpSgD1hXQQ98B9N4C0d3AVu64ZV6RtrBVMzYRzdlmq0PGTfT8uiOr1u/E+4C9nC4Ueehg+Efg7iAO5Ue+THtjyM/7ExwHb/76GqMht+PPS3k6Nanm6NnGOKGR/XRy/66yKzGaBhG2FazO8vv3qLq8S7dtAroYpZ1ABsG8t2d/z3TPX+RZU8FN27XbvCffEOu+PnDHD3pTr3dWfaSoHDDbiD7RmxERLQ9xh9//bP+9+8/4497IoFYJW2Tq4uFbfszviaafcVsbSxsK19n4/F9GvXuwi7RAjN5jHn1VievzWd4geLd3Ct+AnPkHnso/l7y3ntgo/cVef30838QIoFQJW2Tp0+jfjVu5LawzLrpU5H6UB2jl2hHmrz67iy7TeW8F16MpEuOGxe+Tv7PJmic/6pt6/wBK4wb52LpE7ozrLN+cZIi7yHv7wCIfgLkOdzzTkR0alJn9AF4N7waqAOp1/JRFdLkkJ9xUyyzhQ9iCYdi1h2bji/Rrd86r4//IOU9HYugL/8mIf+o+JsY5b71Ae+GQzlhRbc+RXdWvBf6doV92PPCXft+jfVLMKue5B1DTkiVZvPRHWb/rMqOzv8hKHT+AAA13AzFjoVSdxPO/B3WR3gp8HcAAGjfR9q05n0CQERE25M9o09ERHsnZtNLzMDvlPh0pMinCEREdCiyZ/SJiIhEf/0nfPrKBfZERMeCQZ+IiHLInYzO0Yi175n32DaTiOgQMegTEVGu9v2LuBvz0+256Itv+F2g2DaTiOjwMOgTEVEBNdw8riMba0N1jF64yZaI6NAw6BMRUWG1m0es1173pfCLG3SJiA4Rgz4R0YFp3/sB+hA67hAR0dFi0CciIiIiOkEM+kREREREJ4hBn4iIiIjoBDHoExERERGdIAZ9IiIiIqITxKBPRERERHSCGPSJiIiIiE4Qgz4RERER0Qli0CciIiIiOkHGH3/9s/737z/jj0e4Cxv20o0+aHUw6FjRx3ZEd3zdegCAu4BtL+G9ioXOoINi1S4Wto348Gazj37LjD4Y4WA6nMKJP6xgdQZIHErk/WaL1yvPV4T+8UMx7qFajRs4v32KPtidFb5rKesrrF+N0Ti/Rawa3dkaRcqJiIiOWc6MvoPpcKgOfc4Uw6GNheKp7dEdX7feD8zDIYYFQ3OEP4ZqeHdpY1gwyB8e77zmvX93YacePwA40yGG9qL8ed2bOXqGkQyZADC5hmE0MF7Fn5Cxvrr6FcYNA4Yi5APA5NqA0ZvHHyYiIjopGTP68oyyiWa/DzEBHZktjj23Nbrjb7Pem4G/+mlj6qDYjLYzxdD7YcBsot9vQQyR9ZwQjp8/+68gHWPZmfNwRl91buIz9KqfyT9GZzr0z+UGn67sxRw94xoTAEAdo5dH3NT8pyKzxLHnBNZXV7/CuHGO4PogOnsffa4+esFjcnAiIqKTkDqj7y4e1CEZAMwW+iLoulg+ZM3rbkZ3fL16Fws7CPkWOoNByaDtYJoRciPB1l0iMfxBM9HqD6Rg7mL5OTkr73zPOH4AVqePZvDg62uivmqr8UAdMgGgdoPH9QxdAMATbu+SM8Osr7K+hpvHGbroYraOL9EJnvM83d4hXk1ERHQqUoK+g4dgyta6Ss7WAgAsXAVJzfmeuYSjPN3xdetNtK4sL5DnzdyrSK9nXSVDLuC9r3D47Z69vbA64acEiYsVF6+v/rdnZ+rjh4nLC/8Z9yeCHz8Mc9yJ6eChYrYZANr4OKp7306+xMIi66utB4A27tf3UC/Db+N9kPTxDT9Sl/8QEREdN3XQF0HVRPMqLea6eP4ezMM6kLOqMx1iOPS/MtZge2u4/Z8T6zj0x9euh95yElekXAsXqS9h4uzM/zZxoXEcrKumCPGpFysZs/WvP/1nzN8QnIqDMP8SziZ/VEdFYIWvn/wwigm+yEmT9dXWF1C79C8S8IRnBn0iIjpRyqAfBtUznCmnYx1MY5ssX1/D/0TWhLtLfFbteHUX+Cxm3aOhWnd83fp9OftNrF1BBcPrMy8RTMpHA73/iQi8378tX8QFnKlYo5/6qUdFVj+++d+9xRvlbPIcPSNc5w0A36RpYdZXW19OHZfKMYiIiI6fMuhnzrS6C9hik2hHLD9xf0YXX8hrsN3l51h3GwdTuVVlbOZcd3zd+u3JDvCmmNI/VtKnEvHlN/LSnliHI2cafoJjNvulNgrvw+rZT5D1SyQy4GqMhr9JtD6aIVg98iRNC7O+2vp88qcBaRcTREREx08Z9FM5U9Fm0usEkxVUTbQ+BEs7ohs2nancDafEGvhS4yvo1hdkXl6I4/7+nJH09ySylCrxld0iU4fViW3atb0xxUx+p+wm54rNe6Jd40bdWlhfbX1gfhd+GtB9n7KOn4iI6PgVD/pSu8TCAc1soS91l7GnTmTJhtn8kLJRVmGT8WW69WVIS1rcpQ1bsXTJXdjRfQkZvJ778YC++6BeTsqnF2e/pS7LqWK51MbmPRjX3srx7mxdPmSyvtp6YY6e/zrZewCIiIiOX6GgH4ZSE81+uZ7siSUc4XRu4bCtNf4W6ssz0ZI+qVAFdeVNvHbE6gwwGKR9lfhEJVNyP4S7sKUbjXltSgf9cAOvu7QzN2sfitW44YfMOkYv8XaN+VhfbX1ohXEj6M0P1Ef/pXT0ISIiOg25Qf95GoRSC52B4sZIBUR6pnuPJNblp9EdX7d+c37//eiBC2azLy1rSYZkmdnsKwL6toP6JqQ2mjHhTbe8izrxPs0W+gPp7yFts+6B+NoL7szaxWwdvzFTPtZXWy+b96QNvN2ZxqcCREREx0EZ9EU3GHeJpQM/tKoC5SvCfa9Z693Dnwv+n7VqQ3d83fptMlvqkN5vmWF3INWm4aMg/V4jxyDdx8Bshsu3BBOtvhT2nYfYZu1qidaLT7e4ncAPmaqe7CuE+0bD0Mj6autV5j0DYsVOd4b15h8LEBERHQ1l0I90gzGb0l1kY9xX0WnlLGNKOtx8G1DfTTWgO75u/X6EffzNi8vUdewHTer/HzkG6bymH5t0wyy42EnTow3V3rwN/1Mf4UUZMgGsfkA0gpRat7C+2vq41bjBkE9ERL8kZdCHdSGCcXpQA5yHcP112o2h3IUd6bIilqtkLdnQHV+3fh+cB7+Pv4Wr/a0n2iIXC3E7XBMXl9IxvP5MvYiTHWx70fZ7BDdOrf/+Ltni0Te/8zrAAF28l7Mj66utl6zGDX/pz3GH/NW4AcMwYBgGeiVvDoYTqCcios2og74UfN3lg7qri7tAkPPM5pV6xtyZRtZpdyzvX7Fu3ZkqO9Loj69bv2PSpuS9j70l7uKzuOFYonuS1Gkn6/4E4Y3NTOxo5dSG2njvJ82n2zsoc8lqjIE/S1wffYzNOLO+2nrfvBeG/PoIL0ca8iPHAWBy3VOfkzTHXk9ERBtLCfqAdRV0R3EwjbdwdBewpW4q6hlpB1MxYx/dfGu2PmTcTMujO75u/U64C9jD8GZRZToPHQz/GMQFnNnEh/gxmC0EN8b17l2QXKbliE3SAKyrPW6SLqb9cQRvpfgE10YsmKzGaPj93IEuhopNnayvtl5ux4n6CC+PN6mfDBy68E7BgW8ocyPgY68nIqLNGX/89c/637//jD/uiQRilbRNri4Wtu3P+Jpo9hXdbmJhW/k6G4/v06iPdI3JlTzGvHqrk9fmM7xA8W7uFT+BOXKPPRR/L3nvPZD9vhQXWCpmE/1+K3V5VaUigVIlbZOoj/UV1c/R8++eW1R3ptO2c8fkixYg47hTHHs9ERFtLHVGH/BmZvsDdSD1Wj6qQrIc8hXLOgJmCx/CtivqULjR+BLd+q3z+vgPUt7TsQj68qeHfPgXUdG++VHB8wca8gGgdoPH9RqzYMG4pD56wTovrLC+2vpT0b7Hy8jvRASgOyt53MdeT0REG8ue0SciIiIioqOUPaNPRERERERHiUGfiIiIiOgEMegTEREREZ0gBn0iIiIiohPEoE9EREREdIIY9ImIiIiIThCDPhERERHRCWLQJyIiIiI6QQz6REREREQniEGfiIiIiOgEMegTEREREZ0gBn0iIiIiohPEoE9EREREdIIY9ImIiIiITpDxx1//rP/9+8/44xHuwoa9dKMPWh0MOlb0sR3RHV+3HgDgLmDbS3ivYqEz6KBYtYuFbSM+vNnso98yow9GOJgOp3DiDytYnQEShxJ5v9ni9crzFVHm+H3OFMOp6mg2eK09W40bOL99ij7YnWF9344+loL1VdXP0TOuMYk/jDpGL4+4qcUfJyIiOi05M/oOpsOhOvQ5UwyHNhaKp7ZHd3zdej8wD4cYFgzNEf4YquHdpY1hwSB/eLzzWuj9B+dPGfLhv1aB30Ml5ugZRjJkAsDkGobRwHgVf0LG+srqV2M0lCEfAJ5we27AaIyRVk5ERHQKMmb05RllE81+H2ICOjJbHHtua3TH32a9NwN/9dOGl1cLzELLM9hmE/1+C2KIrOeEcPz82X8F6RjjM/Z5whl91bmJf0Kh+hlfbBZf+T7cBWz7Oy7SXqMy8mxwbAZ4NUbj/BZe/EybHWZ9pfWrMRrnn/C74rl5z8B1cAVQ6JMBIiKi45Q6o+8uHtQhGQDMFvoi6LpYPqTN1m5Od3y9ehcLOwj5FjqDQcmg7WCaFeTlZUPuEonhD5qJVn8gLXtysfy8SH7a4S5gi5DvncNEyEfwuzi0kA+sxgN1yASA2g0e1zN0AW92+G4uPelhfbX13s8kQz4AtO9fMKr7/5l8gaKaiIjoJKQEfQcPwZStdZUSwixcNf0nnO/5SzhK0R1ft95E68ryAnnezL2K9HrWlWq23ntf4fDbPXt7YXXC4K64WHEe5E9MNjiHlZrjLlgu0h0qwyLQxscgLSbCIuurrc9Tw7vfg6RPRER0utRBXwRVE82rtIjm4vl7MI/rQM6qznSI4dD/shWzvT53YYc/J6/h1hxfux6xWfeS3NdX/zsLF6kvYeLszP82caFxHKyrpriIiV6sSOcz9ULrgM2/hLPJH9OWdazw9VOwdnyCL3LSZH219QWsnoNaIiKi06UM+mFQPcOZMqR5GyjlTaavr+F/Imux3SU+q3Zaugt8FrPu0VCtO75u/b6c/Ra8uVdUMLw+8xIX4hBewws6+RON9Cudg7X68c3/7i3eKGeT5+gZ55D3iH77EW7rZH219fnm+OKv0a+PPiLtUoKIiOjYKYP+608/spm/IZh0FtwFbLFJtCOWn7g/g3DtsTr98Lnl51hXFQdTuVVlbOZcd3zd+u3JDvCmmNI/VtKnEu5PBGcwvNAy8dsRHqKY7a1fIpEzpW4u9dFMrPV+epaCKuu9byqqzyR346mP8J96XRAREdFJUAb9VM5UtJn0OsFkpTgTrQ/B0o7ohk1nKnfDKbF+u9T4Crr1BZmXF+K4vz9nJP09iSylSnwVaJFZkrjQOjXzHgy/20t99ILHsiGR9XuvX40bMAwj/JLq1483yQsJIiKiE1I86EutEq1OwS40Zgt9qbuMPXUAZ+q3qATM5ofi67c3GV+mW1+GtKTFXdqwFUuX3IWd0Vs+yuu5Hw/ouwvqm1F9epG2dOoIzXsw/J6M3dm6UMiMYH219TFPt+cwjF7JTbxERETHpVDQD0OpiWY/pU1iGrk7i9xX3eoUDtta42+hvjwTLemTClVQV97Ea0eszgCDQdpXiU9UMqlCvSr8H5/VuOGHzDpGL2uUbbvO+urqazePWK/Xka+XsLcmrhn2iYjohOUG/edpEEotdDbsdy6v1/cfSazLT6M7vm795vz++9EDF8xmX9qArArJIbPZVwT0bQf1TbgQy/El4Sbj4/e1F9yZtYtZSl/2LKyvtl6ldvOI9csIXtyf4LrHqE9ERKdJGfRFUHOXWDrwQ6sqUL4i3Peatd49/Lng/1kzvbrj69Zvk9lSh/R+yww3rao2DR8F6feqPAYXO9njvGO1y2CH5y1uJ/BD5r2iO8sK4b7RMIGyvtr6Qmo3GHp33AK+/UDBrbxERERHRRn0I91gzKZ0F9kY91V0WjnLmJION98GUu6m6tMdX7d+P8I+/ubFpfqmWodOaqMpH0O4GTneX/841N68Df9TH+FFGTIBrH5ANIKU+kCyvtr60p6eGfSJiOgkKYM+rAsRjLNCaHj30/QbQ7kLW2y+tTqDcLlKsDlXRXd83fp9cB78Pv4Wrva3nmiLXCzE7XBNXFxKxyD313ceYq1Vj0D7PYLJ3vrv71I7s8zvvA4uQBfv5STK+mrrC1lBtOvvvldfSBwQuXvQJiuNjr2eiIg2ow76UvB1lw/qri7uAkHOM5tX6hlzZxpuOg025VqdcN26M1V2pNEfX7d+x6RNyXsfe0vcxWdxw7Fk9yQTLXFH4uxPbw5TG+/9pPl0e6ferLkaY+A1gVHcdIn11dYXML8TN9zqlr9K2K95z9+n4Jlcl9xAfOz1RES0sZSgD1hXQQ98B9N4C0d3AVu64ZV6RtrBVMzYRzffmq0PGTfT8uiOr1u/E+4C9nC4Ueehg+Efg7iAM5v4oDoGuduSu4Q9tJW/Z+/1Up6rUPujtFkz3pllNUbD78cOdDFU7BBlfbX1WeY9Q7TqRHdWqotPFcI7BQe+ocyNgI+9noiINmf88dc/63///jP+uCcSiFXSNrm6WNi2P+NrotlXdLuJhW3l62w8vk+j3l3YJVpgJo8xr97q5LX5DC9QvJt7xU9gjtxjD8XfS957DxR5X850KJZupUuev4MQCZQqaZtEfayvrH7eMxBk+VTdGdaHnvIRvYeAJ/24lY69noiINpY6ow/Au+HVQB1IvZaPqpAsh3zVsg6f2cIH0XpSMeuOTceX6NZvndfHf5Dyno5F0Jc/L+RD/Gy8varEbKK/17anJdRu8LheYxYsGJfURy9Y54UV1ldbn8KrXR9HyAeA9r3U+x/ozkoe97HXExHRxrJn9ImIiIiI6Chlz+gTEREREdFRYtAnIiIiIjpBDPpERERERCeIQZ+IiIiI6AQx6BMRERERnSAGfSIiIiKiE8SgT0RERER0ghj0iYiIiIhO0P8HRCo1BKa7DWcAAAAASUVORK5CYII=;" vertex="1" parent="1">
                    <mxGeometry x="-8.87" y="405" width="475.75" height="108.64" as="geometry"/>
                </mxCell>
                <mxCell id="3" value="" style="rounded=0;whiteSpace=wrap;html=1;" parent="1" vertex="1">
                    <mxGeometry x="133" y="174" width="157" height="78" as="geometry"/>
                </mxCell>
                <mxCell id="4" value="A::~A" style="rounded=0;whiteSpace=wrap;html=1;fontSize=18;fillColor=#dae8fc;strokeColor=#6c8ebf;" parent="1" vertex="1">
                    <mxGeometry x="133" y="174" width="157" height="27" as="geometry"/>
                </mxCell>
                <mxCell id="5" value="A" style="text;html=1;strokeColor=none;fillColor=none;align=center;verticalAlign=middle;whiteSpace=wrap;rounded=0;fontSize=18;" parent="1" vertex="1">
                    <mxGeometry x="182" y="136" width="60" height="30" as="geometry"/>
                </mxCell>
                <mxCell id="6" value="member" style="rounded=0;whiteSpace=wrap;html=1;fontSize=18;fillColor=#ffe6cc;strokeColor=#d79b00;" parent="1" vertex="1">
                    <mxGeometry x="133" y="228" width="157" height="27" as="geometry"/>
                </mxCell>
                <mxCell id="7" value="A::vfun1" style="rounded=0;whiteSpace=wrap;html=1;fontSize=18;fillColor=#dae8fc;strokeColor=#6c8ebf;" parent="1" vertex="1">
                    <mxGeometry x="133" y="201" width="157" height="27" as="geometry"/>
                </mxCell>
                <mxCell id="8" value="vtable" style="text;html=1;strokeColor=none;fillColor=none;align=center;verticalAlign=middle;whiteSpace=wrap;rounded=0;fontSize=18;" parent="1" vertex="1">
                    <mxGeometry x="69" y="189" width="60" height="30" as="geometry"/>
                </mxCell>
                <mxCell id="9" value="" style="rounded=0;whiteSpace=wrap;html=1;" parent="1" vertex="1">
                    <mxGeometry x="376" y="173" width="157" height="55" as="geometry"/>
                </mxCell>
                <mxCell id="11" value="B" style="text;html=1;strokeColor=none;fillColor=none;align=center;verticalAlign=middle;whiteSpace=wrap;rounded=0;fontSize=18;" parent="1" vertex="1">
                    <mxGeometry x="425" y="135" width="60" height="30" as="geometry"/>
                </mxCell>
                <mxCell id="12" value="member" style="rounded=0;whiteSpace=wrap;html=1;fontSize=18;fillColor=#ffe6cc;strokeColor=#d79b00;" parent="1" vertex="1">
                    <mxGeometry x="376" y="200" width="157" height="27" as="geometry"/>
                </mxCell>
                <mxCell id="13" value="B::vfun2" style="rounded=0;whiteSpace=wrap;html=1;fontSize=18;fillColor=#dae8fc;strokeColor=#6c8ebf;" parent="1" vertex="1">
                    <mxGeometry x="376.5" y="173" width="157" height="27" as="geometry"/>
                </mxCell>
                <mxCell id="14" value="vtable" style="text;html=1;strokeColor=none;fillColor=none;align=center;verticalAlign=middle;whiteSpace=wrap;rounded=0;fontSize=18;" parent="1" vertex="1">
                    <mxGeometry x="312" y="188" width="60" height="30" as="geometry"/>
                </mxCell>
                <mxCell id="15" value="" style="rounded=0;whiteSpace=wrap;html=1;" parent="1" vertex="1">
                    <mxGeometry x="263" y="341" width="157" height="190" as="geometry"/>
                </mxCell>
                <mxCell id="16" value="AB::~AB" style="rounded=0;whiteSpace=wrap;html=1;fontSize=18;fillColor=#dae8fc;strokeColor=#6c8ebf;" parent="1" vertex="1">
                    <mxGeometry x="263" y="341" width="157" height="27" as="geometry"/>
                </mxCell>
                <mxCell id="17" value="AB" style="text;html=1;strokeColor=none;fillColor=none;align=center;verticalAlign=middle;whiteSpace=wrap;rounded=0;fontSize=18;" parent="1" vertex="1">
                    <mxGeometry x="312" y="303" width="60" height="30" as="geometry"/>
                </mxCell>
                <mxCell id="18" value="A:member" style="rounded=0;whiteSpace=wrap;html=1;fontSize=18;fillColor=#ffe6cc;strokeColor=#d79b00;" parent="1" vertex="1">
                    <mxGeometry x="263" y="422" width="157" height="27" as="geometry"/>
                </mxCell>
                <mxCell id="19" value="AB::vfun1" style="rounded=0;whiteSpace=wrap;html=1;fontSize=18;fillColor=#dae8fc;strokeColor=#6c8ebf;" parent="1" vertex="1">
                    <mxGeometry x="263" y="368" width="157" height="27" as="geometry"/>
                </mxCell>
                <mxCell id="20" value="vtable" style="text;html=1;strokeColor=none;fillColor=none;align=center;verticalAlign=middle;whiteSpace=wrap;rounded=0;fontSize=18;" parent="1" vertex="1">
                    <mxGeometry x="199" y="356" width="60" height="30" as="geometry"/>
                </mxCell>
                <mxCell id="21" value="B::vfun2" style="rounded=0;whiteSpace=wrap;html=1;fontSize=18;fillColor=#dae8fc;strokeColor=#6c8ebf;" parent="1" vertex="1">
                    <mxGeometry x="263" y="449" width="157" height="27" as="geometry"/>
                </mxCell>
                <mxCell id="22" value="B::member" style="rounded=0;whiteSpace=wrap;html=1;fontSize=18;fillColor=#ffe6cc;strokeColor=#d79b00;" parent="1" vertex="1">
                    <mxGeometry x="262.5" y="476" width="157" height="27" as="geometry"/>
                </mxCell>
                <mxCell id="23" value="AB::vfun3" style="rounded=0;whiteSpace=wrap;html=1;fontSize=18;fillColor=#dae8fc;strokeColor=#6c8ebf;" parent="1" vertex="1">
                    <mxGeometry x="263" y="395" width="157" height="27" as="geometry"/>
                </mxCell>
                <mxCell id="24" value="AB::member" style="rounded=0;whiteSpace=wrap;html=1;fontSize=18;fillColor=#ffe6cc;strokeColor=#d79b00;" parent="1" vertex="1">
                    <mxGeometry x="263" y="503" width="157" height="27" as="geometry"/>
                </mxCell>
                <mxCell id="25" value="" style="shape=flexArrow;endArrow=classic;html=1;fontSize=18;exitX=0.5;exitY=1;exitDx=0;exitDy=0;" parent="1" source="6" target="17" edge="1">
                    <mxGeometry width="50" height="50" relative="1" as="geometry">
                        <mxPoint x="309" y="404" as="sourcePoint"/>
                        <mxPoint x="359" y="354" as="targetPoint"/>
                    </mxGeometry>
                </mxCell>
                <mxCell id="27" value="" style="shape=flexArrow;endArrow=classic;html=1;fontSize=18;exitX=0.416;exitY=1;exitDx=0;exitDy=0;exitPerimeter=0;" parent="1" source="9" target="17" edge="1">
                    <mxGeometry width="50" height="50" relative="1" as="geometry">
                        <mxPoint x="448" y="232" as="sourcePoint"/>
                        <mxPoint x="548.5" y="280.51724137931024" as="targetPoint"/>
                    </mxGeometry>
                </mxCell>
                <mxCell id="42" value="" style="shape=image;verticalLabelPosition=bottom;labelBackgroundColor=default;verticalAlign=top;aspect=fixed;imageAspect=0;image=data:image/png,iVBORw0KGgoAAAANSUhEUgAAAvQAAAFaCAYAAABxIskVAAAAAXNSR0IArs4c6QAAAARnQU1BAACxjwv8YQUAAAAJcEhZcwAADsMAAA7DAcdvqGQAANaRSURBVHhe7Z0FlOXEtkAHd3d398fg7u7+kAcM7u7uNjjNxx0eNPaAwaFxdwYb3BncHeqvfaYrXalUJbmd233vbc5eq9bMJClJLv+/XSenKv2MoiiKoiiKoigtSz//gKIoiqIoiqIorYMKvaIoiqJ0k99++818/fXX5osvvqhL+fHHH81ff/2V6uPnn382jz32mLnyyivNRRddZD788MPUeXjvvffM//3f/8k1XEudevHnn3/KuL799lvz+eefR9v+4YcfzJ133mnuvvtu89prr0kdH+oPGjTIvPDCC+azzz6TtnsDfqcHH3zQHHjggVJeeukl/5Ju4bfL3zmmKL2NCr2iKIqidJNXXnnFHHnkkWb33XevS7n++utFjF3ef/99s/baa5spppjCzDjjjObMM89MifDvv/9uTjrpJDPttNOaqaaaymy44YZSJwYTBuTcnUi888475vXXXzevvvqqefrpp81DDz0kYn7dddeZSy+9VNo/5JBDzG677WZuuummzKQDkPilllrKTD/99Gb11Vc3L774on+JufXWW80CCyxg5p9/fnPooYcGpb8n+Omnn8wZZ5xhxhxzTCn77ruv3Fus8CzKTDb8dvk7xxSlt1GhVxRFUfocRM2RMoTbL0OGDDFDhw4tjKT+/fff5vvvv5eIuG0LaSUa/s0335g//vjDPPzww2bFFVc0c8wxR6pMM800ZqSRRjIjjjiimXzyyeXYLLPMYsYYYwzTr18/M8kkk5jZZpstU+/444+XsRPpPvzwwyXqu//++5t//etf0tZwww1npptuOpF/GxXeddddReRpd5RRRjGLL7641OEcbdCWBXmnD8a8zDLLJKV///5m7rnnNnPOOae0P+mkk5pxxx1X2nTL8MMPL9cOHjw4JfX8/ZZbbhGp5bqNNtoo8yaBicd2220nYxxttNHMLrvsEpXmX3/91bz11luZ347Cb0Hb/sQnDyT7lFNOydxPrHAtdRgH97XBBhsEy7rrrmvmmWeepB5/55h/nS20RZuKUm9U6BWl5RhiTP9+xvTrZ8yAQf5JYwbknOsNGt1/X8E+R1tqfZyNrt9g2tvbzZJLLpkRZoR1scUWM9tvv7256qqrJFIdApl79tlnzbHHHityisRSf7755jNrrrmmOeaYY8ybb74pUvnoo4+ac889N1WQ1QkmmMCMNdZYZtNNN5VjJ598spl55plF/NZbbz2J5rp1rrnmGvPBBx+I5CLiSL+N/CLByLyV6tFHHz05x985xjmuGXXUUZNztEFbFiYjjN8X2DKFdpmc8Awvv/xyeUZI+kcffWSef/55mUTYMe65557y/JBv3hZwTwg6z5HzE088sUT9Oe8WJlDAtYzT//0otMFvQn3eLMQmBS6+0C+yyCIZ2Q6Jt1+varETBUWpN4VCP7SjzRxxxBHp0j7Yv6zHqNp/1frC0A7TltRvN+VrDzUdbV7fRxxh2jqG+hd6DDbt/pgjJXgrqfHml1D9we3Z69Kl7DMI33+s36ZkYP+01NQqqlXrB+ktoXf6ccvAIf6FaRrdf0KkPqXq0HoDX6hrHXuj6zeY888/X2QWiUIyiQgjuETNrVyNPfbYkkZCLreFqPwnn3xiDjjgAImgW1H2C1HsO+64Q+ogf0S0p556apFNZHHWWWcVCac/UlA4xjn6pD4R/AUXXFAKkk99Irtffvll0uZ+++2XScmxhbZom8Lf/fO20AZtWVyhJ+I/wwwzSJoMxyhbbrmlpNXstdde8v+rEdC2tjZJQ6GdRx55ROQdiUfmP/74Y3lDMPvss8sExj4f7o+IP2Xrrbc2n376qeT/MyngPM+G9CF7jS133XWXjJNIPPJu2xt55JHl7Qb17aSB8a+xxhrm8ccfT+6PNydMNuzbC1v23ntvs+yyyybtrbPOOplr/EJqE/8t3HvvvZnnasvOO+9sllhiiaRd/s4x/zpbaKvozZCidIccoS+SyjZT6KWVqNp/1foxMS4ps4PbA32Wbado7F0lKMbBcYdLqH6x0HeWUOVOghMpv7R1mKKfoHEMyopMqvQXX4xTtX4evSD0gwYExuyWAX6NLhrdP4QmUn7pP9Cv1bz4z6PWZ9vo+g3AFXpEcLPNNhNJ23zzzUXGrYAh7W5KCos2ib6PN954iTgSAUcuF110UTPvvPNKdNkVemSX6yabbDLp47TTTpM3AOOPP75E6Mlp5xjtzjTTTHLtWmutJRFmjvEmgWOkvpASA999953ksyPQocL9MEmh8Hf/vC20QVsWV+gnnHBCc8UVV8ibBo5TEFjGwMSCejbtJEaZiD/39dRTT0nk2z/nF54l+EKPjCPlyPJCCy2UTLSYIJGLb+ENB8/bvqGwhf8GmBTY9ty3GLGy3HLLycSFRcCsB/CfLQVB522MbZe/c8y/joXK/Ba0xaRRUepNROhdofTENyWLJaS4W1Ttv571h0XUuyQ3T8Q7cWXel9a8cwld/RdH8wM495jj3FGSew2OL/1sgu0X3GNqwhBsoNG4Mu6J95CB8XMJVesX0cNC78qbL7155yyN7r/oGjfy3N0xNgp37N0ZeqPr9yKu0BP9ZpEn/PLLL3IOEbbnLr74YjlH6sbpp5+e1BthhBEk4sr1CCZyR/79fffdJ4L+3HPPST0i19Qhj50Fn4jgwgsvLP9G6KecckpZBIq4E63nWiYGXIfsEt3mGBH6r776Stokj/6EE07IRLBtmWiiiURqKfzdP28LbdCWxRVwJi1MKpiY1FqQVlJp/AnCFltsIZFoJhlMaDi+9NJLS94+z5pJEs/FvhFYeeWVUxOsmNDbVBV+IyYHvAHhOO1tsskmwftzx7PTTjuJ6BOZJwXKjZrzRmLHHXeUP6lr36KwzsCmZO2zzz6ZZ0sh/YiJnB0nf+eYfx2TEP7bUpSeIij0XdHVEsLbA0JWtf9q9d00kS55Ly/0TtsBmRUc4c10LzSz0EPe8ytT33nG0WsaSBLdjQm3I+whIaxav5CeFHpnbCEZBleYQ100S/+x+u7zi17TrJR4Prk0un7vERN6Fm+yS4tdnMpCVXZzAaLTyy+/vEgyokgqzO23357JeSbCSu48kwMgj5stIw8++GAReqK09H/qqaeK3NEWqS3bbrutpLLECjn2LNaF3hB6JiwIKEJdayHN5+qrr061x8SE9Bci/ESlrXQj5qQWkSJD5HuPPfZI3giQvrPVVluVFnp4++23ZYLEcSZMhx12WPD++G1vvvlmGdMNN9wgEybWT9Af/VxwwQWydoG1DMg2Ofxs+0k9fjPeKNj8/DJvF/IK983bG0XpKQJCny9rli5pLhLcWqnaf9X6ncLt1S0t9IWyDo7QBi9qdqHPE/KiextG7vNvKCVlO5F2P/Wjav0y9KDQF8my0Mz9551zqPT8G0wSJY9NGAtodP1ewhV6IrXkVSOJyDzpLogwxxFe8q6RdPZHH2eccaQO0WsWxIa2Z/ShLmJKNJjo7oABAyR6jSQSpSZf3ObMk7aTV4j+I5FIMeP1UzdsKZtyQxu0ZcW0TIpMmcKz5Rm77TGBQIrBFXL+JDcfUV511VVlsayFsREl5zp+E7bt9OtT2GbymWeekYkZYowg23snlcXijodJG7sDsZCZyRm/A8dJt2ESZFNr+M1Y40BaDRMA1lUMHDgwmegBKTP+1pYUJgCkcdlx8neO+dfdeOONddv7XlFCZIU+EdJYdBvSix1db0ulU2Rkr4tUjnW6gUr9V64foazQlxXV/PZaSOgzHeTJfhfFfTSIRCjzZMVbbOl6Y9X6Pn7usl9C0poR6kA+f6gelBXdROoC1zW0/5LR98IofhNT+AaogEbX7yVcoScyzB7tCCJijQiypzs7sRCVR8hZqHjeeeclefOkxtxzzz1+sxns7i2kcTAZICrNYkraIjpPBHmVVVaR6HxeYTtHItdIH4t0mWj4CyrdUnZRLIW27MJfV3gRW1J+/B1eypRtttlG0m7KCD0pNy+//LLsPMSbCCZVdoLhCj1ibdcz+EJvt/lkIS2TJGSd58rkgO1DLf79MYng+ZDy4m4Zuv7660uKDZMDIvxM+KjLxIE3DayBeOONN2QxLxM9X9BrFXpbaIs2FaXeZIS+WEjTOdQh6XSl3j8nuHnsnhBW7b9q/Rj5At5Fcf/DyE8LanKhL3oL4ebQhy4oqt9ICoUyIKfuritV6+ddFyohMXaFOndxaGCMhePvJE/qGt2/OwkKPZ9SbwGamKoR8kbX7yViu9zY7R+J0LLQkq0iidD72xMik0hlEeRzs9MK7SLztPe///1PdryhHxbUEnlnm8WNN944U0gDIc2HP/noEpCnTw6+v0izu4W2aBNc4SUViS+b2u0ZyxZSjeybC7c9JjTkxCP8K620UpKLzqSBL8MizvRJtPyBBx4QEXeF3k2N8oXe7nJjt+jk92QCcdxxxyX35o8HmSdlipQoPpZlFx/z38UOO+yQ2tGGLTeZpNh8eD7kxVsW1gu4Of5Vi7uYWlHqSUboc2XOEcW2jsHlorQZYXWFOiu9VfuvWj9G7ULv37dH7puEJhb6ggWvltSbGuceCyd7jSYvcusuaB04KJzaUbW+kLOoVihIK0mEK9KGK9l+/TxRdsl7E9Ho/iE1Buca93hwItXkuM8u9N9YEY2u34vEdrkhEm7zuRHDueaaSyKnvtAj525qSAwElIgu17NQlugs2zMilbwVoC0WgbLo0s+ZpyDyiLBNYQF22iFdx99GsbuFtmgTfKFnEkE6CPdetvDlWLt4t0wKD0L/5JNPSlScf5O7TyQbES8r9HaXG54ZkXk7WaAOW4za/PrYGwP2t2f7TX4L+vd3ubG74Ni3OZdddpm0yYfDmKT4axPYrcgurHYLOyAxbvdaJJ5xcpy2aFNR6k15oXdEbpiI5aVdeFF4p60uoQuJbPX+q9aPUVbo05OGwA1aekno80v4XtIyHi4lHlla/rtTvxHEhNyN6ooIRqS6an2IppNYcupCSmYjbcT6SE06coQ3T6gb3b8lL10p8Niakug95Ny3S6PrN5DYolhSPUhrsYsqkXqisSwcRcTtdohEahHXoi0GEeVzzjlHpJiFsXx4iRQPRJntFK3kIe7sxuIX9oBHJl2ht5Ca4e8uU2vx0zsQXCY0jIsINjv0FAm5X1xR9lNcSIlBXPnT5qwj9KT88DaA6DxvLpBodp4hel5G6O2iWH4PJhNE04nWc442WcPgj4cUHT4edv/998tbBdrkI1ukOJEWxeSL3WvYJ5/0G3Y7OvHEE2WxLL8rbyFY/ExKlf3wFfn6fEiMFCs7qeBe7Fj4Si/PlGv574w2STkil59FxLRVyxduFaUs5YQ+mCJRQoj91IuMVGep2n/V+jFKC72Xnx+6z/Qe7flCn18iY+kFoZdS9NxyxhF6Lk1BSMiDKRoRqa5a343OR4U2VreTmCy7BMcEXn5/aAypNJqA2DW6f0tqi1CvhNptRkL3UMvYG12/gcSEHpB6BNvKItFfIsXkhNuPIyGjpMnYfeFj0BYpO+SHM0lA7Fgcy37oNuJPhJYPPPn/f5DCm4Nxxx03KPTkW/u7y9RaaMOF1BO7+wxizoecrAAzmSE/neflF1KUrKDHhB6xvu2220SckVqknuN2f32EnGg6bySQetoh9aYWobecffbZMibOMfmyUe93333XrLbaanKc58qkBaFmQS3P130uTAyYVPFvtqgcPHiwjI+tSi+88MLgV4QR8iOPPFJ+L+6BPpgQsB0mz4cxcZ61GaReMWFD+JF/1my496Ao9aRQ6OMpJOWEOCiHZa7vZv9V68coL/RQVshD46qlfmQsPZly448t0kF60tI5Tl/wg+03GF/IoykgEamuWr9M5DlW12LHEDpncUUtc1nJ/P3YOBvdP6Skv3Ni4cup/xalGUnGHLnPIhpdv4HEhJ6o64cffpjkU1OQOSL0SCcySEoGx4mcE7ll20Mitggef7JYkjQdpJZoKxLLAli7bz2pOkSEifizKJa22DUHuURSQ4XxMClwoQ87Rrso1EaF7ZdW3Ug457jG3jeFNlyISvMWgXNEk5944olEyJH5s846S56VX2iHLR+5Lib0sUWx7gez+IgVAsxuN0SsEXCesf87xYSeCD1/snjVPlv2+WcXGlvPvn3hOIugWTjMpIH0I/e5MCbGxr95bkg8i6G5Him3Qk+fbCeKoDP5c1NtWAeB5BO15zdE8pkU8qy4H/s2YrnllpP2VeiVniJX6DtyJbasEKcj1uG2uqjaf9X6MWoT+mGkpbarSHQ6eWsQaq9+KTclbi1DvtBD3hoJ774zA/D+e8icbzCukOdGmiNSXbV+bwl9mTcBsQWtXJ+MM3Bvje4/L0fffXbB801GItSB+yxDo+s3EFfoXVElMksuthVj5GzXXXeVSDuyf8kll0jE1gob1yGIfKGUFBr2mGcCQNoK2xo+8sgjIoV2EoDcIrnsmsMuOYgiUkcaDhLq/++BLexB7+fsu0Jvt21ksSn/RuSJgruRcM5xDde64upCygn3xJgYKwLu5tS7bzJcYuIeOx4Tep4LC2QpTHpICWJLS79/X+hJz+F5s60nvyU57PZ7ASw65o0IEPG3zwOJZvErQs31K6ywQuq5uELPrkd8eIoceiZePEf+e0DA+V3I3efNBudtGxQmCrTDxI68e9Kr3PO8taAuKUE//vhj8jwVpd5khD4roSHhhLLS6UebswLoUrX/qvVjdEfo80jGGZTm2saWoceFXi5KnnF6jM7vHa2fPyFoKBmJjIlMREjrVr+Hhb5srnoMO85QlLuh/Zf58JEr9XnPuQmoKtSNrt9AXKF3U0mIlFv5JrK9+uqri7xZWDxJ3jMiRqTWlTO3IP1ssdjR0SHReSYGVpJJ3eCDRXxkijY4Tp+kYyD4iCp/IpFWEFmISfTcxRV6G6G2HziiDaTXFV/O+Yt7XaEnyozAMh7ePpAG5Ao5zwtpdne0seW1115LUlliQs/9seiYSDh56uzzz3FX6H1YGGsnKewMxBsD8IWeaDzjc1N/+F1ZkMzvZXfdYT0D17DAla0n+ZovEzDGzKTKfS6u0PPfBRF2PgDGzjl2W01SktglyK6tIF2ICYPNmeftAl8QJsWGyZ2N4NvtT/lvgz3tuc/vvvuucE2GonSXjNCX3cWkrDQGU27y2q3af9X6Eeor9F1CGxb2FhD62OLf2HEPd+LVnTH2GG5ud1QIPSF1vbVu9fNEs85Cn3NZGKf/kIw3sv+yEwV34lVz/0or4Aq9X1i8iVCz0wqpEmzbaLFfgSUdhHQKorX2Y1NWLJE+6vIhIoSW/z/G1pO0i9wSJSZ3mkkEEsyCSASQYyzGJHWDHHAEnPYQUBZn2u0XGQ+yScqO7ZcUEKLQVp6JFiOQFJsTzzmu4VpbjzZs/jpbONoIMpMJ/0uvjIVIuL+rDYWv4CLPXBcTeqSX+7SLRK0EW6H//fff5ZnZNB6e00knnSQiz3V2kgK+0LuFSRDpNETguQe74w4Rf6L9yDzPng+DMb7//ve/sjiWHHb3uZA6RdoR/ybVhmN83Zf0HcbL5I6/sxMS90KqEttbsmuQnayQOnT88cfLugl+Z54rvzPtMYmzEzl25uF34a2N3XFIUepJVuhLymQZwc1Im79INkjV/qvWD1Pr9bnkpttAuXuI0htCH1xonD6eO/ZY/YYTiZz7RNNpKtYvI7rupCEkzWWEOhFaf/wlyEt3gUb27z6bvOcfXZSr1J0GTZ7YPYV0FP/DPhSOswMJwhYDsec8AkqU1tYlKk9En/xqrmEvdSYARKURWZvGwg45fNCJdA2+fkqUF9HkLQHix0JOZI9o70EHHSSRZPLJP/74Y+kPCXaFlusQRSvkRNj5WJL7wSTOcY1NObGSTFvXXnutRKztcWSYcZbZdtIvMaFHtMkfZyLFn/btgyv0pC4h4zwHxssz4Roi2kyKrOwSzeZZ+78dhR2FEG13Bx8i9Oyiw7aUtMcbFj7URd+U0HNhvQORef5tn6e9nsL/PjFuUq1488DbC8bFGwE7bn5DG42nIPTsdsRkhS8GI/P2jRDXkdbj7puvKPUiIPQl5LVMFDYi767kx+pW7b9q/RCFbZallPA2v9BHn4e78DWn8/hi5SYgJtuWoihwpfrOhCAkxG7d2DWFQl3QRx5lhLmR/bvPJ6/tUqlNTUCpNzY5NE19WyL/N9EHcIWePG/SWYjaktJDDj4RYwQX4ZxnnnlEehE96hDNJT2HaC/5/eTT+xJdtfDGgki7FUw+8sSkxI+wV9nlBpklCk1f/P93u/jWTbkhnYWdYfzxMcEh0m1TXWqF3HwWFdvI+X/+8x/5Dfx+aim8QWESwgemmGgxNv5NxN9Ooij8riy+JZefNRZMNriWtyW8keEtDc+P58FXct03QopSL4JCn96NJEfY/HMJbt68f02J/Om8PvLOWfKuyTuXQ1Rgy5LqN192m1voi7flTKVZBdpIne/OAHualDTnRND9c5a8a/LOWdyIpiutrlwN6LwmJK15E4oy/YcoM5GwNE3/kbQn93xeOw2n6gLeRtcPrSnp5sSgBSB1hKgv+6OTBoPEESVeZJFFJCqL6BLZZcccIrTsjc6/kU62riSCjCizoJV0FD/lpWpBwEm7oU9ElTcHvGEg/5sxsyaAiQZ7sPs73FCIirM1I9fxcaS3335b7puI+jHHHCNSTz45OwgBEkw0nuOk69gdY0hxYpcbjlP42BSpMOzbz05DVWDRKeNfa6215PmSj+8/h1oKb3JCsBaB35SF0YydVB0+nMWz9CckvDn48ssvZUtUUp5U5pWeIiz04AtopsTEtqKwW7rdfycV6mcX1uaV7D0W1S922PoJfVEJjSUl3DklPjZ/IXSkBGS/afAFMlMKZLRSfU+k/IJXWVEKSZYrrNGSI1YZCQv0n0ej+3ffAOSVkOw3FVWFutH1/1kReoSZlAzScUjVQZiRd/K0kVxSNYjuWpBp/o3EEv1lO0c+WsTiSqTPX5RatVjRRKxZtMsx+Pnnn2XMfISKNws2H93HvY493+3HkUg5QuqJ1DN2e4/8yX1xnI9K2f5pB/HlOIUoNsJLO/WAcTFh4k/G4D+HWkpMvpF0u1MPY+ftQBE2PUtReoq40HcSkru4yBVHby3BfcoD1NZ/lu7ULxLydCkr9Nnr4jS30JceU3Qc8d+76QjJaSjVI0aV+n5dV0DzhB7yJhSRKglBoc4R8BCN7h+iY2ghqaxbykuD6kODcugVRVH+SRQKvaIoiqIoiqIozYsKvaIoiqIoiqK0MCr0iqIoiqIoitLCqNAriqIoiqIoSgujQq8oiqIoiqIoLYwKvaIoiqIoiqK0MCr0iqIoiqIoitLCqNAriqIoiqIoSgujQq8oiqIoiqIoLYwKvaIoiqIoiqK0MCr0iqIoiqIoitLCqNAriqIoiqIoSgujQq8oiqIoiqIoLYwKvaIoiqL0Mf766y/z448/ml9++cX8/fff/mnhzz//lGv++OMP/1QQ2vz222/NTz/95J9KoK3vvvtOCtfXCmOiWBj7zz//bL744gspefdTBO1+9tln5r333jMfffSRtKsofQUVekVpOYYY07+fMf36GTNgkH/SmAE553qDRvff5yn4/S32d7Al59IgVev/Q0Fif/jhBxHHN9980zzzzDPmtdde8y/rcYYOHWra2trMmWeeaW6++Wbz5Zdf+peYDz74QM5feeWV5pVXXjG//vqrf0kKZP700083AwcONC+99JL57bffUue//vpr097ebo444ghzxhlnyDPI4/fff5dxMQ7a6+joMNddd5157rnnkmu+//5789///tfsvvvu5sADDzSDBw/u1kQBGP/BBx9s1lxzTbPtttvKb6MofYVCoR/a0Sb/x5kq7YP9y3qMqv1XrS8M7TBtSf12U772UNPR5vV9xBGmrWOof6HHYNPujzlSgreSGm9+CdUf3J69Ll1qeQbSYKCNbrTTCAb2T0tNkUT5VK0fpEDo6ibUTj9uGTjEvzBN3fp3CD3Hfv1liOXw72WAf0ELUfD7W3whtyWnSoqq9f8hIKMXXHCByOauu+5q1ltvPbPKKquYJZdc0sw333xm+umnN5tttpn5/PPPzZAhQ0ScY+Wtt97KSHJ3eeCBB8yMM85o+vXrZ+aZZx7zxhtvpM7TzxVXXGFGH310M/LII5s999xTxpjH008/LfdDm9wvExWi3bY8+OCDZo455pDzU001lTwX9zyF6D6R8lNOOcWsvfbaZtlllzWLLLKImWWWWcxEE00k4+E5Iu0I/3nnnWdmmGEGM8III5hFF11UpD/23Gj33XffzZy35ZFHHjELLrigjG+KKaaQtv1rbOG3YmKmKK1CjtAXSWWbKfTSSlTtv2r9mBiXlNCoxJZpp2jsXSUk5OFxh0uofrHQd5ZQZZdS4yjxOzSEQVmRSZUimaxaP48CoauHUA8aEBizW3KEuB79W4Ii341nmGknZ/xNT8HvH8L/PcvWs1St3wDeeecdc8stt0jE1y1EkAcNGiQRYaK/eSCVH3/8sXniiSckyk39G2+80Tz00EMijqR/PPXUU2aBBRYwY445phl11FFFFv2CiBJlXnHFFUV4Y2WdddaRdoGUlTvvvDMzfgpjYUyffvqpP+SE//u//zOTTDKJiPC6664rqTUuRPB33HFHGd+II45oTjvttMJUGiYAI400kkj3fvvtZ7baaiuJdtvCRAYpp02u457c8xSkmpSZbbbZRq7xnxXP8T//+Y/c/6OPPmrmn39+uYfhhhvOjDvuuGb22WePPjfeEDAm/7wtTBrGGGOMZHzTTDNN5hpb+K0efvhh/zEoStMSEXpXKD3hSklaT8lY1f7rWX9YRL1LcvNEvBNX5ts6TKqLvHMJXf0XR/MDOPdY5NwhknsNji/9bKLtexOa4HUyzthv0EhcGfekccjA+LmEqvWLKBC6qkLtylv/geXPWar2b0lFiKsIeGhyVaW9RlPw++fhPtMaqwpV6/ci559/vgitL4yIIVI322yzmc0331zSO/wcciK9pHaQWkKkfeqpp5YotpVf2l111VXN448/LtHh1VZbTaLhRJKt1E833XRm++23NyeddJK5/vrrRcQ55o/HLXPPPbd5/fXXZQxEiRFL/xoKY2FMyy23nExQSCUBJhhMYrj3pZZaSsY62mijiUhzjMIkgcjzPffcI4JLe2ONNZbZe++9k2sol19+uYzBQs75FltsIdcj2Weffbbcj32ePJNYGW+88czwww8vdXkOQHSctxnLLLOM9M89rb766ua2226TNwGXXHKJRNOR+QknnFD6cgvHOGfHw+/w1VdfyeTF798WJhv2d6QuEwT/GluYpN13333J/StKsxMU+q40lZhsOVIXNLVqVO2/Wn03TaZL3ssLvdN2UIjTspvpXmhmoYe85+dPmoqeVxOSRHNjwu0IYkioqtYvpEDoKgm1M7aYsLtSH+qiUv+duBH1Cs0IdjzcT9LuP1Toy/y+uVSt33u4Qo9Mjj/++GbSSScV+URCOT7KKKOIpCKDFmQekUU2J5544uRavyCVd9xxh0S+EXui9v/73//MzDPPLOdXXnll8+KLLyaLTrnWCj3tIrIU0k0mmGACOZ4n9EivlWMrstwX4okEgyu0dmLBNWOPPXYiqtwv0WxyyTlu5Zbn4wrtnHPOKRF5C5F1jhHZJoWINxXcD8+Qe3UnA37Zd999k76s0JM7//7778vEgmfG77L//vvLWwImKdw7ExLO8TbghhtukGdI4e9MUpis8LaAiRMRfXdCEyqnnnpqMolhQrDbbrtlrrHl6quvlvEpSqsQEPoCWeukS5rrLWxV+69av1O4vbqlhb5Q1sGZNAQvanahd8YfuKbrWcUmVM1MSdmOimHV+mUoELoqQl0k60IP9i84z7C7TVjcNyK0Vem5NwsFz7+IJMoem3AWULV+L4GUWaFHVs866yyRblJf1lprrSRiTC71VVddldQjYr/GGmsk5xFGcuF33nlnc+SRR5q99tpLIvKIODKKsCOn7MCC2JMSYoX++eefl+OINqJphR4Ztbu2cM1KK61UKPQ77bSTufvuu83tt99u9tlnH0lN4TiCTfoK0B6TBI4jw0wUeAb8yb9t36QcIee2PjJNexR7HfV4hsAkhwkAkwomRRdffHEyQWHisOGGGyayHSq8pWAiYoXe3W3GCj3PmXskFYr8fKLpPA/ulZSaQw89VNYBMBk58cQT5Z6Itm+55ZapRcd2Ya4v6LUIPROZTz75JGlTUVqBrNAnQponY+nFnq40pvKvA7JnSS1WTTdQqf/K9SOUFfrciYJDfnstJPSZDspNqJqWRGjzZMVbYOk6VdX6Pn7usl9CQpcR6kDKSagelBXeROoC11XpH+wYKkeAA+Jb9v6ahe78/kUUvkEqoGr9XsIVeiQUmQei5ddee20ixJNPPrm57LLL5ByLMA866CAzzjjjyDmE8d///rcsxGTBKFFg5P3tt98WKWbhJKJOBJldWIh+I4rURXbJ5+b4IYccIhMKK/QbbLBBMk6kFskuEnoWkRK9Jv8cgWWSwXGi6/QLrtBzX/z/YZ4DExEmLhxffvnlZbxEt/k3ExMWxCLRFFKRfKFn4e8SSywhbyumnXZauXcr9BzjefkpMW6ZbLLJkrcKCL2724xNueE8aUtMpvbYYw9zwgknmGuuuUZSgZgM8Fw33nhjM2DAALkX3gxwL88++2wqZQrpJ03KfdtgS9mUm7nmmksmZ4rSSmSEvlhI0znUIel0pd4/J7gpGZ70Ve2/av0Y+QLeRXH/w8hPC2pyoc97C5F3rhUoFL6AnLq7vlStn3ddqISEzhXqzGJQtwTGWDj+TvKkrkr/IQnvLqF7CR1rSir8/kVUjbBXrd9LxIQemST/G7FDRhFKUmPg5ZdfTiLsRK7Jk0dm8/Y9R4Lt5CBW6J/r6iH07ObCYlGb2oNgX3rppVLHFXrq2hx42qRtjlOPe+QNBKJMfj8TGQtj4zor9GxlST47EXSO21QjK/S0g2z7i0pjhRx+d5yhwhiQdPpmtx7eiNhz/GZE55mEvPrqq8m4LaRP8Tz9fillF8UyIdAtLZVWIyP0uTLniGJbx+CcKK0bAfeF1RXqrPRW7b9q/Ri1C71/3x65bxKaWOgLFvWWvv9mxc239nHTNwYOCotn1fpCzqJaoUB6E+GKtOFKtl8/T9Rd8t5EVOnfvXcmOrEJQXAS5OK1Y2kJoa/4++fhPs/Qf6NFVK3fi7hCTySWKDXR4eOOO07yzm1+NrnSiDI72pCbbSPXRHMR/zyZB/ZlX2ihhSSqO+WUUybiSdR51llnFZFGXo855phKQs8CXvaLZ/eajTbaSCYkpBIR/WfBKpQReiLtRx11lCyoZdtIJiwuVuiZhCDy7BZkj1F8oUf02dPd3/YxVnjLwe5C/O8E6xTY3hJJ5/fg7QDHmPyQs3/RRRfJWw4WANv++fsuu+wi4h7aj55JAOf8fillt63keeXt+KMozUh5oXdEbphk5qVdeFF4p62i/Oqq/VetH6Os0KcnDYEbtPSS0OeX8L24b1hiJfbIin7fpicm5G7qgwhiRKqq1oe8dBYhpy6khDrSRqyP1KQjY5JdlBb6Cv0XlkjbEPsdWkHoY88moeD3d4mm7AR+txBV6zcQV+hDhfSOww8/XHK5EUO+GsrHkOx5ZJzdVoqw+8sTNWexqK3P/ur33nuvyCEfmGKyUEXo/UKaC2LPWwUbYXeFnvsjHYh2WDRrI/r0hfCSNkP9448/PrX9pZV3otfUZ9xIt+3XF3or4tQrU5gk2O1CmUwstthiIvRMDMiHZ3LCOoGZZppJ2ra76NjFzIg4ks8zRbptYecexuv35xbWTrAgmfugPSY3/jVu4X/LirY2VZRmoZzQB9MoSgixG83lmoxUZ6naf9X6MUoLvZefH7rP9MeuQuKbTQsKl8hYekHopQSeW/nn1KSERDC4UDQiVVXrxyLLKWJ1OykUwtiYwMvvD40hFTUPiF2V/n2hL+rfF3bIm2w0vdDX4fd38Z9nbrsBqtZvIK7Qu7vcsNsK/0bokF6i1UgkUkhaixVXN8JdBj6q9K9//SupT343O8Egy0T5rQBzDlm0lBV6u8sN6S2ILikj/BsJZjIBrtCTY8790QZ/2l1v6Iv8cBayMingQ1E8KxaqAmNzxZ1JCdtx+kLPXvhu5LxsYU0B46S/m266ScbAcX4T3oqw+JXFv7z14F6XXnppGSuCT947984bFt608HvZQmoOefd+f1UKz5KxKkorUCj08RSKckIclMMy13ez/6r1Y9QmqmWFPDSuWupHxtKTKTf+2LwO+lyEPpqCEpGqqvXzZDQhUtdixxA6Z/F3f0lRMn87Ns4q/ceO+9T6XC3NLvT1+P1dkueZ114OVes3EFfo3V1ubr31VtlG0e66guAfdthhEuHl40pW5pBgJLEM5OUj1jZdx/ZJZHuTTTYR2affKkJvd7lBsLkXouJIMGLP/u1MHIpy0yn0RVSfr7EySSDqzb3ybJBsX+jtPvvzzjuvXG+Pt7W1JdFuCnn55LXTFotgt9tuOznGb8Dz5mu1XGeFnlQeFhzbj0Zxzkbq+bAUz4s3C6wPoH+7mDVWeNNAhJ723cKWlgsvvHCyKNcWfiv26rfXseMNkX/eZCy++OLyb56zfi1WaRVyhb4jV2LLCnE6Yh1uq4uq/VetH6M2oR9GOhLfVSRqn7w1CLVXv5SbEreWIV/oIb5GIj6BahFcIc+NNEekqmr9eghdGaEuEwnOy19Pxhm4tyr9lxX6WGpQkbAXnW809fj9XZLn1M37rVq/gcQWxZJeQ0QembMSyRdO2VqSHHW7bSPRYvLjQ3naLuRsE2lmVxlXGK2oIqjLLbecCKeNaHdH6N1dbkgPYqcaBJtzLIx98sknU0LPRIXtMOmLLTRtJJy+6JMvzTIuO9att95adu/xhZ4vyl544YXSHwJvjx9wwAGpxcBINznqPFe2xESuOcbEg51o2B+f65Bn2jz33HNlzQGTHp6RXaTKc9xhhx1ktxrSc/r37y9vG+jb3o9NnyFqT5v8ZuTDf/PNN8l2oBS2nmSLTd6c8FswAeJZ0R9trr/++nLPXMsXf9kHn35Il+LDYkzUin5/RWkWMkKfldCQcEJZ6fSjzfmiV7X/qvVjdEfo80jGGZTm2saWoceFXi5KnnHs+Xen74aTkdiYyESEtG71KwhdGaGOCXFZ7DhDKS9V+o8dzxB6fs6xWNfNLvT1+P1dqgp51foNJCb0QCTaCibFplawBz0RZo4hf4gg6SnsLOOC5CGPiDXiypdKuR4ZtdtWEtFm/3Sb2sN2mPUQegsLdpl0uPdXZlGsFXry7omAM2YEF7llT3xf6Nlthii1fZ4cZ2ccFtRyz0g50W5SZM4880yJxHMNi4A5hqQj2+SrW6FnPKQkIeJExZFsJgcsdmWrSiZSTAZ4i2IXL7PNJfWY0PD7MTb7JVnadj8Oxu/DGwC+9MuEwb7JYALDLjts82k/uHX00UfLwmjO2Tx97pNxMFlTlFYhI/RFu5gklJTGYMpNXrtV+69aP0J9hb4rwh0W9hYQ+tjiXzd/vzudNxo3tzskq5ZYJLlu9SsIXa1CnXNZGKf/kHRX6t+R8rz6IaGPLuAsKnnPupepx++vCDGhRwbZphLh5hwCx/aULH6ksLCV6C3nSPMgnYV96pFjvhzKVolI4bHHHiuLZu22laTYIKd220vqkR5DtPnkk0+WKL5NuUGqbRS57Iel3Ag99Yiou1tJMpZahB6IQLPPO+k8L7zwgrTPLjOu0PvPk+NMJux6AXLcmVgwFiYH5Orz3HjmNvLOQla7XSRCj2wzDiY4ROp5ZjxDniVjIx2INigsmiWdia0k2Z+exbBsKckz43diPETh7RoAPvT12GOPSdqO+9aEiRaCz9dk77rrLplE8NtznPExcaAwOSMFiw9YaXReaSWyQl9SJssIbiZa6y+SDVK1/6r1w9R6fS656TZQ7h6i9IbQBxcaQzwdpzUIiGKIaDpNxfpR0XVwxTUkdGWEukqkOi/dBir178hq3oQotKi2Lwh9PX7/ZsN9a9WLw3WFHplE1BFG5JVFlfZLsIgnu9tYSL0gRcWm3lAQUwSZiDN/sg+6FV67ew0fPCLH3RdnJglEet1FsaR1IN4UPuxEexzPE3rSQJBvCtFrK8j241dsB+kKPVFtvsLKGO6//37Ztccdl4Uvq9rIP4K/4oorynWMlYmLxT5PIt5MXHgmSDgTFqLwpP+wwJZxIfX2mF2cSzTcCj3j5Guv/BZMRLhPK/SIOW9KWHvAwlf+TnSe89wr+fBcT2QeYSf6zzPmjQOTI3L37SJeux2mjbrbD2VxLV+N5bd3f2MmM6QH+W9kFKUVCAh9CXmNRWddIvLuSn6sbtX+q9YPUdhmWSKpKmmaX+hzn0fZtyTNSky2LUVpIZXqF0So3bqxawqFuqCPPFyZzIy9k6r9lxHAomccIzqRaBYKnk2Z39+lVMQ/h7rV7+bvVQFX6BE60kKQQmTTLsJEMnfccUfJo7Yg30TWiTxbaQ4V5JVILwKO4LKAFgn3hd7iCn2s5Ak9Mst4EE+7wBNZRfQRbxu5t0KPTPN3xsE1Vqj9cbkQlWayw3Xkp5MTb7HPk3bs12SZJCDm3Bd9sc8/aTBMJrieY3b7TPsWwgo9O/Pcd999yX1aoQeEm7GQ1sTfyfe3C1vtb4fME0nnGu6dtCAi8HZhMm8GyOXnTQKTCsbOQl7WT3Bf1GX8XE+btM2bAtpgbEwSir5BoCjNRFDo09seesKWdy7BzZv3rykRwc3rI++cJe+avHM55ApsGVL95r2hgGYW+uJtOSGdapX3O0fONZKUNOVE0P1zlrxr8s5ZXKF1pdmVqwGd14SELk92y/QfohaRrNy/t8tOqisngp85V4KmF/o6/P4J3rPKvTZE1fqhNSXdnBh0g/b2dknTQBb9gnSy+8lVV10li2FD4kZONqk2fDQJMbV1WfRJDja7r7CzDHn0yCfiGUttAVfokVHOU8gltxMPV+jzvnhKuhA57yeddJJcZ9NNXKGPFTsuIvr//e9/RaIp++yzj1ljjTWSNB5E+LXXXkvGb4We88g+EwY+dmVTiWiXVBj65z6Y7HAMaUag+bsr9EyceGa+0PM8P/zwQ9mJh4kAC1WZDJDWw1sVJmQslGXywBsFC+kx7K3PGEmnYdEuC4WZsFEHcaceb0R4/rTFZIMPcy233HLJtp5Mkni7wKLbc845Rz8wpbQMYaEHX0AzJSa2FYXd0u3+O6lQP7uwNq9k77GofrFk10/oi0poLGkZj5eisZVrJ/v8mgJfYDOlQAgr1fdEyi94lRWlkGQlQp1XcsQqI2GB/vOo2j8UPr+cNwR5tILQV/39E6oKedX6jY3Qk0qCHCOMfuE4O63kpVYg+UgnH55yvzxKDje7p3COayg217qs0JMywzkK0WCk3hf6vC+eksfPR5n8LRVdoScqTaScNmeZZZbUPvT0iwyzBz8iTXEj/xRy0LlPi5tyQ1SeVJtrr702ua+Y0LO2gHQnuyMNEwcmURZf6Pk3qThMKBBrjtsdatgOc5tttpHUptCCVdY4kJ7DbkX0wT3yrN1tMe390R4pVC+99JKk/TBJc/fV515ZnGsnS4rS7MSFvpOQlMVFrlz0FtLSG5fr2vrP0p36RUKeLlkhDdfPXhenuYW+tjH525Y6JfgGoMkIyWktIlmlvl/XzSkvEro8IY5USQgKfYGA+1Tp38V/BpTYPZehJYS+E//ea/n9LXVLmelmfSiTQtVHyBN6ZJdoP8cRYgviecEFF0jkmg8jMYHoLl9++aUs8EWCGQcRa8ZESg5RfY7zkSYmA4gqu9Ug3FbqSadBmnmzwUSDHW4s7qJYJJ5UFxaYukJPDjvpR+zuQy4698UONDbNibUCvBVxZdwXeu6f/eyZXBBVJ5pOGhC7BLEmIC9izsSKqL9948I9klrDlp20z+JXFtkyKSD63tHRkbTHGwsWTrNnPvvQU49Jn6K0CoVCryiKoihKMR9//LFEoNn6EWknYm4hlYT8bSTfPY6E2gWtSHKViDA7vCDeiDEfybJC+vnnn0u0meOXX3659AO8ASBKb9NukFj2fmfy4b+94ENPbPXJAlxy2i1I/M477yz3SwoS6Ue0y/1yX2z/yPPYaKONZJErwu6mOPE8mAQwEWHsPA9Em4kHkxyi7UwOeOPSnV1nbPSdffQZCxMIxsBkxE+1on0mWKT78Ft1pz9FaRQq9IqiKIqi5IKg8wYA4Q2lu8TgWhaYxuSYCQyyTttMSIAoe0i4uwPtk5oU619R+goq9IqiKIqiKIrSwqjQK4qiKIqiKEoLo0KvKIqiKIqiKC2MCr2iKIqiKIqitDAq9IqiKIqiKIrSwqjQK4qiKIqiKEoLo0KvKIqiKIqiKC2MCr2iKIqiKIqitDAq9IqiKIqiKIrSwqjQK4qiKIqiKEoLo0KvKIqiKIqiKC2MCr2iKIqiKIqitDAq9IqiKIqiKIrSwqjQK4qiKIqiKEoLUyj0QzvazBFHHJEu7YP9y3qMqv1XrS8M7TBtSf12U772UNPR5vV9xBGmrWOof6HHYNPujzlSgreSGm9+Cdb3GdyeqTesFD+Lujz/RjKwvzH9+qXLgEH+VXG0fuPqDxmYrUspWV1RFEVRWoUcoS+SyjZT6KWVqNp/1foxMS6WWCEqwWXaKRp7Vwm6cXDc4RKsbynVTuw5Ft1DrF6zMCgrgqnS35ghfh0XrZ+t01v1hxjT37/eK2UnBco/lrffftvccsst5rHHHjPvvPOO+fPPP1Pn//77bzNkyBBz++23m9dee818//33cqwK7733nrngggvM+eefbx599FHzyy+/mG+++cY888wz5t133zV//fWXX0X6/eKLL7pVvv3222CbiqK0HhGhd2XME6+U5PWUlFXtv571h0XUB7fbf+eJeCeuzLd1mFQXeecSuvovjuYHcO4xV9jz8CYkwXakn9AzrPr8G40rk544pqK+ManU+tFrery+J/Mpb/fODcxUVpSECy+80Mw999xm5plnNrvssovItcsPP/xgBg4caKabbjqz+OKLm0GDBpnffvstdU2tPPDAA2ammWYyk0wyiTn44INF8E877TSz8MILm3333dd8+OGHfhVzySWXmN13371b5ayzzpL7UBSl9QkKfVeaREy4HGELml41qvZfrb6bJtMl7+WF3mk7JuyOLGe6Fxos9N1OMRpGteffBCRpHiFhBEc4Q5Ferd/Y+nJ+gH+wE3eyELtG6Qt8/fXX5vXXXzevvPJKphBZHzp0aFTAicZvs802ZuSRRzbjjDOOOeqoo/xLpJ0ll1zS9OvXz4w//vgSqa8a7X7ooYfMpJNOKm0i3LwZ2HHHHc2YY45pxhtvPHPQQQdlxrzBBhvI9d0pyyyzjETqFUVpfQJCX062uqStduHLp2r/Vet3CrdXt7TQF8o6OJOG4EWNFfque40JeR51eP4NpUgWO0mk05dCrd/Y+iUYYIU+NmFQ+gLt7e0i3HPMMUeqzDnnnGaxxRYz22+/vbnqqqsk7cTy008/mTfffFPSbIiKI72TTz65Oeecc2RyQPnyyy9F3C+77DI5xzW0ee+99ybXUJDxX3/9VdrlT/7tng+VK6+80kw44YTS5hZbbGEef/xxOTbPPPOI0G+99dYyvt9//z0ZsxV6Jh+zzDKLSHpeoa3RRhtNhV5R+hhZoU+ENE/m0os9XW/rksGcCHVK6Dzxq9h/5foRygp9WVHNb6+RQl9OyKP00PPvNQYNKCF7OWkdWr+x9cvgLrStta7SMpCHTuoK4jrccMOJxBLpHmmkkZII9dhjj20OOeQQ89lnn0mdZ599ViQXMR511FHlmlFGGUXSbki/oZDiQnR/vfXWMyOOOGLSDlJvr6Gss8465q233pJ2yX/nevd8qMwwwwxJmxNMMIGZffbZZRIy8cQTm7HGGsvMOuusZtdddzUff/xxcp9W6JkInHDCCeb999/PLZdffrmZaqqpVOgVpY+REfpiIU3nl4ek05V6/5zgpnR4Nle1/6r1Y+QLeBfF/Q8jPy2lgUJf6g1DnOL7797z7zUKI79uykZncXOxtX5j65ehMKVH6Qu4Qj/GGGOYzTbbzBx44IFm8803l7x3K/WzzTabufPOO6WOm/ISKyeffLJcP/XUU2fOuQURJy0HiL4j7P413Slrrrmm5NZbrNAj/Pz9lFNOyS3bbrutpAhRR4VeUfoOGaFPxDUUXXdEsa1jcE7aiBuB9YXVFbqs9FXtv2r9GLULvX/fHrmR7MYJfenxR+ip599r2HSM/gP9M+kFmQMHdUWJ3dQQrd/Y+oW40f3YpEHpC7hCj6Qj68DiVs7ZtBPOXXzxxXLOFfp5553XbLfddpLLvuqqqyZCvf/++0u6Dn8ffvjhzYILLiiSTVl22WUlWs+5mNATdWfBqy/aFNqebLLJcq+78cYbzXfffZfcp+bQK4oC5YXeidwOk8yCPHA3Cu+0VZSfXbX/qvVjlBX6tLQGbtDSS0KfX7L3UvT7FNFTz7/XiAllkgpiI8KOGJYRUq3fO/WLcNuppZ7ScsSEnvz3m266SaL2nCO95u6775ZzrtAj82+88YYI70UXXZRI8PLLL59E+JFvBJuIOeX++++XtBjOxYR+tdVWk20uydf3y/PPPy+pO+51yPtzzz0nef2MhXx8d3vMffbZJ5O6U7aQk8/iYUVRWp9yQh9MwyghZO7Wh1yTkbosVfuvWj9GaaH38sND95laPxAU52xaSrhExlIXoc+eK0NPPf9eIySUrgQmDhgRSq3f2Pq5uOk6mm7T13GFnvxycscRbGR+rbXWkui6zTtnr3fwd5mx0evrrrsuEfq1115b8uOnmWYa2c6SfeAtrrjz56uvvpo5TlT8nnvuyey88+mnn8p18803XyL05N4zUfj3v/8tE4W99tpL8vcBqf/555/Niy++aB555JFuFdYM6F70itI3KBT6eApGOSHrEkSnlLm+m/1XrR+jNtEtK+ShcdVSPzKWCik39Y7Q1+v59xq+UEbzrSNCqfUbWz+Kcz2l1rx7peVwhZ6FptNOO61EzRFx0m2mmGIKs+eee5pPPvkkiXiXEfrjjjvODB482Bx//PGSEkMU3QqxK+5LLbWU7EjjHyfXnUW2/u47tEdbdivMRRZZRN4QXHvttfJGgIW9pPTYBbxsX8nOOv7e8rWW66+/XveiV5Q+QK7Qd+RKbFkhS0esw211UbX/qvVj1Cb0w0hH4ruKRO2TqHWovfql3JS4tRRxAS9HTz3/XsMVSvv3YK51RCi1fmPrx0jaKnm90vLEdrlh1xr+PdFEE4kgX3PNNcEIPR94IpJPjjpybYX+pJNOkq+4EkFnj/pNN91U9rUHV9zdxavu8RFGGMGMPvroMhbGxFjsBIJdcVZccUX5t12su8oqq8iEhJ1uyKG3kwdSdPi3HVd3C/1qHr2itD4Zoc9KaEjGoKx0+tHmfFGs2n/V+jG6I/R5JOP0c82F2saWoS5CX3td6Knn32u4WxpGZRKc9I3gLi1avyH1Q6jM/yOJ7XJDbjwLWZFk0m7mmmsuicBDmV1uEPo77rgj2fqRicHRRx8ti23LCP2MM85odtppJxkLY7K5/Ig10XcmEEg+bxDIcR933HHlPBOIl156Kbk/X+hpl7cC/r7zocIbAVtPhV5R+gYZoU/lvQdls5OS0hhMuclrt2r/VetHqK/Qd0WnwzJbUXZrvLcUbv59zZV77vn3Gm6+tpvH7ePuuOI6otZvbH0fd4KgMv+PIrYolq/AIsbzzz+/nEPqyYv/8ccfU0LP1o4smEV+p5xyykSAkWgWkvL1WGSeY/Rzww03SD57kdCvu+665oMPPpDjbn977723fLSKPHki+Ew4iOJzjlx/cv/dD0r5Qn/kkUdKu8g5hbx8Pq51xRVXmNtuu032rrfn3EW+KvSK0jfICn1JmSwjuJlor79INkjV/qvWD1Pr9bnkpttAuXuIUkmW3RSp/LcpYcqNva7Ps66UjPxG00G0fmPrO/QVmXfvozu30er1u0lM6AGpR6yt1JJ6g0y7gk30nIWjiPGpp56aEnpkmjx6PhbFMdJoWCBL/ZDQI/pMDjjOGwKbB8/uOjYCf8wxx8gCW/rio1K2P1KE1l9/ffPRRx+lFq/6Qm/HZbn99tvNoosuKvn3W265pUxYLO6aABV6RekbBIS+hGyV2ZoxIu+u5MfqVu2/av0QhW2WpcROP2WlOEolofd+u7woe4TCZ9WN59+rFMliaj/0gHRq/cbWh7KR/mbHvY+8ZxKj1etXICb0SPGHH36YLD6lkLdO1L3MolgrzkwKHnzwQbP44ouLMLO1JOJOCo8v9Ij7eOONJ8d32203884778gE4rTTTkva5e/sWkOk36bzUBZbbDEZ15lnnikLZ19++WW5Lk/o2dqSL8oS6SdPnxQfd7tLFXpF6XsEhT697aEnZXnnEty8ef+aEhHgvD7yzlnyrsk7l0OhpBaR6jfvDQU0WOhT90vJ+50C5/Kecd65ZsEVRl9A8s5Z8q7JO2fJuybvnCXvmrxzlrxr8s5Z8q7JO2fJuybvnKWvyDxk1hT4u/0U0Or1K+AKPekzZ511lojxoEGDJL3FfgAK4UV+EfRahB7484EHHhBBZ6KA1JPL7go97V511VUSxef4DjvsIOkx5NAvsMACcoy0H7bVRNQHDhwoKTYcH3XUUc3pp58ui3aJ0jMpYMtMtsOMCT3iftddd8lOOuTiE+Fn8nLhhRfK+Mj1v+WWW+Q+KYcccoj56quvvKenKEqrERZ68AU0U2IyVlHYLd3uv5MK9bMLO/NK9h6L6hdLdv2EvqjkjSW4/iFTsvcvFI4h/vybgpQ4hkpEJi1aP1CnN+q7e82XLL2YBlIzVSPcrV6/Aq7QI8xIPQKLFFu5RnZXX31188wzz0gdV+j79+8vUo94I9G+OPsQ/SYSb2V84403ljQZZPyAAw6QY/SLzC+99NJJe0g3e8zfd999ku9OdN7ufIPQI+K8UbB1SKNhVx3y6Z966ikZz8knnyz1X3jhBWnfLnqlP3uvI488skg+bxOI9JNHz+SGnXXc3HxFUVqTuNB3EpK6uGQWf1TJkpbeuNzV1n+W7tQvEvJ0yQptuH72ujjNIfTD8LcddUqJdJzuPP+mwt0hxZZYmkcIrd/L9fuY0EPVHPRWr99NXKH3C6LMtpCbb765bEFJVBtcoR9ppJFkBxoWpnK9L/REtZ988kmpQyFnnUg/i1m5bueddzaff/65LIhdbrnl5BiyT7Sefq1kMw4mDSeeeKKk61iZt2XllVeWqL39Oi0fmWKiwJhZ6Pr000+bm2++2Rx66KGSOsSEhQkMkxXkn11zEHw7LvrkubAdJmLPZMb9OJaiKK1JodAriqIoSqtBGgypJaTL+IXj7HTji6wr9OSfs4sN8st+877QsygW2bapK27knz9Z3MpCVCLhtk0Em4j4888/L+NAxNkC86CDDkpy7Jk8rLDCCrK9JPJNW0wskHQKck+EnkW4dgtKdxEt19MfH82y+faMlXqrrrqq3JMdJ+2RIsSEQj8upSitjQq9oiiKonhCz843SDmR/u233z4j9ETJ+aiUPe4K9eyzz26eeOIJScNh60i2yCRiTjt//PFHqk++VEt03Uo7kfP7779ftqm0W2vaMvnkk0vO/rfffispPQi/PUdkn0kB0s56AaL37q44TC6YCLC4lj3tSUGiDpOVww8/PDMuRVFaCxV6RVEURSFFcPBg85///EcWtF5wwQXmu+++k+NsX8kxyo033ijpLkS++cqsPU7ZZJNNJI2FNB4Ww8Jvv/0m/95mm23MPffc4/U4DHbY2WOPPcyAAQPMG2+8IXXp4+GHH5b8fXLs+VotC2RZ1AosfF1iiSXMPPPMI9tnnnDCCZITT5qPK/I+nGOHHXbTYUzbbrtt8qVbRVFaFxV6RVEURenc7pEFqOxOQ468FWMi8hyjIPlE3in83R6nELUnjccXaqLf77//fmoveB8+CsU1dmtJoN67774rEwJShIjMW+ibHH62yqQubfv95sFCWMb79ttvy6RDUZTWRoVeURRFURRFUVoYFXpFURRFURRFaWFU6BVFURRFURSlhVGhVxRFURRFUZQWRoVeURRFURRFUVoYFXpFURRFURRFaWFU6BVFURRFURSlhVGhVxRFURRFUZQWRoVeURRFURRFUVoYFXpFURRFURRFaWFU6BWl5RhiTP9+xvTrZ8yAQf5JYwbknOsTFNx/X8H+jrbUequNrq8oiqL0GoVCP7SjzRxxxBHp0j7Yv6zHqNp/1frC0A7TltRvN+VrDzUdbV7fRxxh2jqG+hd6DDbt/pgjJXgrqfHml2B9n8HtmXrDSpVnUUvdBjKwf1pqapXIqvWDFAht3YTe6cctA4f4F/YyBfcfxL+XAf4FzYcv1LaUveVG11cURVF6jRyhL5LKNlPopZWo2n/V+jExLimiUQku007R2LtKUMiD4w6XYH1LqXZKPMfgxCrv/puBQVmRSZX+4ohxqtbPo0Bo6yH0gwYExuyWRgpxwf2HyEysGjn+buD/HmXv29Lo+oqiKEqPEhF6Vyg9YUtJXjmZq52q/dez/rCI+uD2GkTUlfm2DpPqIu9cQlf/xdH8AM495gp7Ht6EJNiO9BN7hi6hCUqJ59gwXBn3xHvIwPi5hKr1iygQ2qpC78pb/4Hlz/UaBfefITS5ajGht7hR8zK37tPo+oqiKEqPEBT6rmhqTNYcQQuaXjWq9l+tvpsa0iWd5YXeaTsm7I4sZ7oXGiz03U4xCpM8u7YOMzj5baq322Mk0dyYcDuCGBLKqvULKRDaSkLvjC0m7K7Ud6eLyhTcv499HtxP8tu0qNCX+X1yaXR9pbv89ttv5ptvvjFffPGF+eOPP/zT5vfffzeff/65XMO1jeCvv/4yP/zwg/n555/N33//7Z8W/vzzT7mGP3sTnhnP57333jOffPKJPK964Lb74Ycfml9//dW/RFF6hYDQ58luF13SXG8xq9p/1fqdwu3VLS30hbIOzqQheFFjhb7rXmMTohrwxpL73JuCkrIdFcOq9ctQILRVhL6UrBf03+PU0L/7RoRLKz33JiGJkscmjAU0un4fAzl96623zOuvv16X8tlnn2Vk98svvzSXXXaZOeigg8z+++9vXn755dR5eOGFF8xee+0l13AtdeoFkmql9dVXXzVfffWVf4nA8XPOOcecdtpp5tZbbzVDh2b/B+Tdd981p59+urnuuutkzPUS6yIY/zHHHGPWXHNNs9tuu4l81wO33f/85z9m8ODm/F82pe+TFfpESPNkLr3A0ZXGLhnMiVCnhNqT2or9V64foazQlxXW/PYaKfTlJkTlyE5cyj6fhpEIbZ6seAssXaesWt/Hz132S0hoM0IfSDkJ1YOywptIXcF1kMlf7yyRIaTozv0nBMS/7P01M4VvgApodP0+xsMPP2xWXnllM/fcc9elnHDCCebrr7+WSPsHH3wgEv3000+bxRdf3Aw//PBm9NFHN1tuuaV544035JyV7I033tiMMsooZuSRRzYrrrii1OEcbdCWBYFGqu+//35zxx13JOWKK64w559/vjn33HPN8ccfbw488ECz6667mg022MCstdZaZumllzYLLrigmWeeeeTcTz/9lHoO8OSTT5qpp57a9OvXzyywwALmxRdf9C8xZ511lplooonMaKONZrbYYotgOz0BzwLpZmzjjDOO/GbcW6hsu+228kyB5/X++++bV155JVjuueces8wyy0i7E044obn88ssz19jChK237lf555ER+mLhyuZD+9LpSr1/TnBTOjxprNp/1fox8gW8i+L+h5GfFtRAoS/1hqEcoWcROtZUFApfQI7dXV+q1s+7LlRCQusKfUympQTGWDj+TspIXWq9QKQEhj+MCvdvCd1L6FirUTVC3uj6vcQ777xjbrnlFokEu6W9vd0MGjTIvPTSS+b777/3q6UgheTjjz82TzzxhLn55pul/o033mgeeughkeJffvnFPP/882bnnXfOSOESSyxhxhhjDJHs+eefPxHjiSeeWOQPMV533XUz9S655BIZF2K44YYbioSuscYaZoYZZjAjjDBCIo4rrbSSnKMg8OOPP76cQ+hnn312qcM52qAtC/fDeGlvuummS8rkk09uJplkEhnfeOONZ8Ycc0wz6qijSptuGW644cxMM81kHnzwwdSbBP7+3//+N6mzzTbbyNsGF2R2k002MSOOOKIZa6yxzCGHHCLPuAw8a96E3HvvveaGG26Q34Lf99lnn5UUmqJ2XKEvKpNOOqn8xmCf1xxzzBEsM888s9wL9bivaaedNnONLUsuuaR55pln/KEpSl3ICL2b75xRSUcU2zoGZ6KvzoVOBNwXVleos1JXtf+q9WPULvT+fXvkvklonNCXHn8h4XtoeqF38619XEEdOCgb/YWq9YWcRbVCIPLs4i5cDLXhSr5fv4yoQ9GbCF/mA8OUcYaOV71/wWmjpglXk+P+dqH/xopodP1ehGgzgurLGkKKaM8222xm8803N88991wmJx05JXVi4MCBImFEnRFlK220u+qqq5rHH39crmdyQNTaLYg0kWAi6kSDObb77rsnEexll13W7L333qk6jPnHH3+UNo899lgz/fTTS1+hwj1wL/Z+/PO20AZtWXyxpT6TDgSewsSAekjtVFNNJbI/44wzipASoV9nnXXM1ltvbW666SYRdFKO7rzzTnPGGWeY1VdfPWl30003NW1tbXJPiDd59Y899piZZppp5PwEE0wgbwA47xYmYi60/+ijj5oddtjB9O/fX+rZiQ2TByYmnPv222/levr56KOPkrcXttDG8ssvL/Umm2wys99++5lTTjklWHiLgHizXoHUHN4k+M/VFiZXPD/a5Q0KkyH/Glvmmmuu5L8ZRak35YXeidwOE7RsOkUKNwrvtFWUn121/6r1Y5QV+vSkIXCDll4S+vySvZei36cssd+hZYXeTf0QQYxIZdX6UJjOklMXUkIfaSPWR2rSkTHpLnKF3k0pivSfR2xsCQX3D7HfodWEPppyFHruARpdv4G4Qo9oIapIqhVhjiNiyBqRXwsyT3rEeuutJ9Fqe61fEF1SVYCoPTJMf8stt5xExxdeeGGRefoglYZjiD0CSH2i6EwKODbrrLNKff5tc99JX7n44oszwmsL9Wibwt/987bQBm1ZXKFHiJHcnXbaKZlUnHzyyea8884zF154obzN4B6JxtuUEdJPPv30U/Pdd99JVNwKL2k03K99PkxmrMjyJoLUHyZITIg4j5TbyYNbkH8L6S5XXXWVTKpI0fF/A1tIeUG+AREnZca+vbCF+7T/PYw99tgyofKvccvaa68tawHshMV/rraQnsTbFtvuvvvum7nGFtKaeJugKD1BOaEPpmGUEGJ360OuyUh1lqr9V60fo7TQe/n5oftMrR8IinM2LShcImOpi9Bnz5UmZ7LSkkIfXCgakcqq9WOR5RSxup0UCnFsTODl94fGkErjCYhdtO0y1OH+8yYbrSb0/puO3OcSoNH1GwgCZQUOcSTqShoFaSGkviD5nJtiiilEGi1E7JFvex5JnW+++STt4sgjj5SFp6uttppZZJFFJH8aSP/gWvrbc889zXHHHSd57jZ1BTnk2MEHHywRc65F3mmPY4suumhGTEkxIarsS6EtZYWeNmjL4go947377rsl0l5rIRLOmw23PWSdCDrt8qeVd+7rtttukwi/vc6+EWCCNdJIIyVyzrMEFuL+73//k7cE9k0Ez5Pnxm/As+M3IVefyZd9bkxAmGzRFhMWf8JQVOyEj999n332kTZZg8Dkxn+2lLJCf/XVV8tkSFF6ikKhj6dglBPiLkF0Spnru9l/1foxahPdskIeGlct9SNjqZByUz1Cn/9cW07ooykoEamsWj9PRhMidS12DKFzFn/3lxQl89dj4ywzoYhR+f7zzrWy0Oc9jxwaXb+BIFFW6N2caCT02muvFZnkHLnj7AoDRITZJYboMudIs/n3v/9tOjo6ZDcTotJE0N9++23Jwx8yZNhDueuuuyQKj9hRWEBKVJmJABF5RA+RJ6+etBGuXWyxxSRqTESfaD7HSGVhQSywYwyy7wunL55FKTe04e5K4wo4ud9E5/2UkzKFdBp2qXHbY3KEaPPs+f/zPFuO8yxIL0LImShxr/aNAGlIPBNf6Hm2iLp9Q0JbXM9xfgN+C34TFv/efvvtyXoIV+hZu2CFmnHxfCl2jLYw2Tv11FPN//3f/5kVVlhBfnfGygJlePPNN+U39Z8tpWzKDROP++67L/kdFKXe5Ap9R67E5otbF+mIdbitLqr2X7V+jNqEfhjpSHxXkah9EsUOtVe/lJsSt5YiPgEqR5GwF51vOK6Q54ppRByr1q8stCWFvkwkPBWJdwrXJ+MM3Js/qamFqvdfJOxF55uNRKi7Od5G128gMaEn1/rss88WaUMWiR7b3VjYDpJUGOoQNSYaTKpIbE91CzLJ4likkDzpAw44QNokwjznnHNKP6TVbLfddhJdjhUWidpJAqke119/vQhvqCDBjJHC3/3zttAGbVn8HPruFp4tz9htD1EnLQdI0SHvnuNMZvg7aTZE3EnnsRBZZ5y2XSv0djccjhEtZxLh7tYTwxV6JlDXXHONueCCCyQNh3x7Fq2yDoCJDDsD2cXKrAFg4nP00UfLmwTq8uyABdDU8Re51rIoloXL7IikKD1FRuizEhoTr7LS6Ueb80Wxav9V68fojtDnkYzTz/UXahtbhroIfe113XHH6ja90GckNiYyESGuW/1uCi2UEfqyufIx7DhD0l5F6Cvdv/NMY7euQl8bVes3EFfoxx13XInKIoukvhAtRb6QMVIhSCEhH5zdU2yuNjKJ+BfJPFAXkWRyQOR/wIAB5rXXXhNJR0ZthB7Zt1H8WCEFhnQT3gKQD/7II48Ey2abbSZjpfB3/7wttEFb9oNHjRB6JhwszEVq2audcxZX6PlNWI/AOgby8m3KDu2wSLnMb+EKPW8ueGvAWPkNiKDbRcD8mzUSTPZYqMv/LvGc+O+DNwH8t8DiWuBDXayz8LehrGXbSiZq7sRKUepNRuhTee9B2eykpDQGU27y2q3af9X6Eeor9F1vB8LC3jihT+Xf11rZffY1lfxJXq/i5n/nCWksZaVu9bsjtJ3UKvQ5l4Vx+g9NBnLfTBRQ5f6jCziLSl5fSqviCn2osHPL4YcfLlsrIuTkhBOlteeJqJPOUQQpMqTwsGsOOdvsbkNklxx6JhKkYCDc/i44fmEsV155paSREBEm3cTfo94tTDgQVAp/98+7hbZoE1wBdyc6tRYWr7IjjdseEyRy5RFYzvOMOY7wsniWve832mgj+TiWjba7Qo8Qcw3P1O5IQ6H9sl9gdYWe7TWZVPG/M/SLxCPzpDnxcatLL71UFqpyP0x+GPsss8wib2+owxiZ8LEbkr+9qC2sp7CpRfz+3Kt/jVtOPPHEJN9fUepJVuhLymQZwc1Ee/1FskGq9l+1fphar88lN90Gyt1DlCpCn0qRqlG0+4LQxyLnPlFprVi/jGi74hqS9jJCXyVSnZduA+5bipwhBKly/yr0zUmV/x4q4Aq9u8uNjdQSvUU4jzrqKInEEqUnrcNKJFFhN5Ic44EHHpAceGRuqaWWkogte9YTGaYdUmIQS8SP1A6/IIBIJFFs5BHI2eY4461HoS3aBFfAOcf6ANKQkMyyBeG2e9D7u+bYLS750+aW0z97+TPJsbsBMQlC0l2hZzykRnHMRr0piHBZXKFnXDbfnsg/z5nfnt+GhcR2RxsK6VWkRyHz3AdpQYyPyZZdb1GPQl88M0WpNwGhLyGvZbZmjMi7K/mxulX7r1o/RGGbZSmx009jhd777fLecnSDpk+5gZhsW4rSVSrVdyYEISF368auKRT6gj7ycKU5M/ZO3DHmvaUIUjC2MvefR5WJTCMo9cYih6apb0vvPXdX6N1dbm699VbZiYTIOecQ/MMOO0zSIdim0IoXQoqsF0GuPKkkLJ5FGtl5hfYPPfRQ+fgTbZE3vuOOO2Zy5ils6Wi3eGTMwOSCVBmi1WyZWKXQBm3RJhBVR2YZ15RTTiljZuEsAl22kFJkd2wpk8JDHSZHyLGV/H/9618SEeeNhC/05LITRbf1eY5IeRlcoWciwJsXxJxJCLn05MeTS88bFd7C2A9r8XuzfoLz/H5szQm8aWDPenddAvn3jN9+m8AW1ggwVvbXt9fydoZ+uJ9ddtlFxuAuUlaUehEU+vS2h5545Z1LcPPm/WtKRIDz+sg7Z8m7Ju9cDpWFPtVv3hsKaLDQp+6Xkvc7Rc5FaAmhT0ljTgTdP2fJuybvnMWNaLrS7MrVgM5rQkKbN6Eo03+IWkU6tZYgIoOMM9RM1fvPo6WE3ttCtNZ7bXh9/7+DnP8WeoDYoljSa4jIE03nHDnVq6yyikgWKS82b5s0FtIyir5ASnSbXVaIdDMxQM7Jheff5I3TFuLMl1MROr8gw0wqXKG3kI/u7y5Ta7E57RZy+9l9h3EhsOzWUyTkfnFz5V2h596ZLCDSiC33xXGEfujQoZIHz9sMxBcZZjtPFiL7Qk/OOm3YrUORb3bUqTWHnt11zj33XPl9mBCwPSkTKwSdfpjw8Buw882ZZ54paTfsw89CWtJt6I8PfRHlt28n+G+HFB2eHePjPpiw2V2HaIt74n6Z7O22227yISvSnvgegN2/X1HqTVjowRfQTIkJWUVht3S7/04q1M8urM0r2Xssql8s2fUT+qKSN5bg+odMyd5/Hi0h9OALbKYUCGGl+p5I+QWvsqIUkqxE6PNKjlhlJCzQfxnKjCPYVsX7z0OFvgaq1m+eCL0r9EC6CJFxK6gIJ7LGHvQ27xtZIwrLlz0RTBeEDOEj+ov08Xe2u2TvddI5yMVH9BFq2mLxJek1fj41hd1U7LaTvtAjjr5M11pow4WtE4lQcw6xv/feexMhJ3rOdppuKoot7oeZYkLvHncXxdrny3NDqklBYmcY5J998n2hB54db1Y4ziQL8SZtyJd6G323KUC8ceBrvPx+TChYlMwz5m2LP076ok+OEVXn7Q2/P78hi2Ld3532kXn+94vUHft8+e+ISQR/kl7FfwOsEWBxLF/OJX2H69j9hq0+FaWniAt9JyGpi0tm8UeVLGnpjctdbf1n6U79IiFPl6zQhutnr4vTHEI/DH/bUad0Ix2nZYTeEpLSWKpJiCr1/bpu+kqR0OZNKCJVEoJCnzMByCUm5yXaq3L/MVpK6OuZ8tKg+tAEOfSuKCJmRE7nnXdeOUdUlfxptp6kkCJh00KIviJl7FOPoJJm8uqrr0pkl+g7i2aJxLIbDgsjaYv0G6LgiCZSaI8j0QilL/S2EMFHrl1coSfqjzQSDebfyCpRcDcSzjmusR86ovhCf9FFFyUSy97qpONY0eWtBB9QQtL9gnjbhardFXoglYX/DUDimSx9/PHHIuv+70TOPR/vsvfBb0mqDxMSdoxhke9LL70k98N2oXb/fvaSZwKFyJM+Q3ScCRNbgvLbuON0hZ78fqSeyQO/Ff3bSDq/Jf0S3Wfhrvv1YL7Ey/cLeG7sYmQ/gMXvzn8/FKL57GnPfxeK0lMUCr2iKIqitBqu0CN0dqcZ8p/ZttKmcyB0RNQtTz31lESObeoNBTlEThdaaCH5kygsaR1EZknnIOJsr0VukU12dTnnnHOSL51WFXoi1uTBcy3/tot2XXHmnL+41xV6Pqq1/fbby4SFtJdNN91Utmq0Qu6/yXCJibt7nFxxcvY5xuJgdr3huCv0RNh5e0EqC/Cc2IGG65Bvu1c7Es3CWdKV7G9FQdaZjPEbEim3O8vQPm3brUIRbySaFBiu4fnbVJyQ0PO2gr7Y+Yf1D0g67TGR4eu/dhz8lu5/G/b5cj/8N2fXZlB4xuyQQyqPfYOgKD2FCr2iKIrS53CFHgljv3Z2K0HubISVyDZRV6TWgkgi1kSvmQhYOfML+8rzhVgiuYg+ko/AIbdMCvgyKvubI88215pILR8oQryJpFPPpmQgw6SLuNRb6FkQS9Sa4+S7s8OPK+TIMotA/V1tKHw4yy7yjQk9z3PZZZeVfyPZ9oNLrtD7MH6etX2mvDGwkG9OTjuRb1fq/UKf5LnzhoU3Kvy+pN3cdNNNkkbDuFm0zC427vhdoSe3n7UU5PWT6w5IuE2l4hrGwNsPrrV9k2//ySefSASfPexJrbG74jAOJgp8rIr7YiKjKD2FCr2iKIrS5yAFgkWR/hc7KUgtkWryuVkM6+dlAx8SItWGL4wipLYui2n56BF7mJM+QqoHKTikgzABQGaRfPajR/xIxyHCSwoGQskOKtTla7Lkq5PmgpCy4wtCCrRL9B+ZtOLIOBBU8sH5N5OF8847Twp/5xjnuIZrbT3aoC0mLYzFTiCInjNxcYWcSQcC6u9qQyH9xYptTOhjxQr9L7/8Yi655JJk730Wp/I2xE6cWLPAc3dhgsXaBmSZtyxs78nvgFiTQsPEiWfHdSxEJpJOW/PPP7/ksfM8mNxRmEBxjkg9/z7ppJOSiDprHEjX4XnyhV+eDSlWTIi4nrcwpOQ89thjqd+F58J/Z0wemdAh9IyV3543BVzDRIDJChMG7r/sjj2KUgsq9IqiKEqfA9FGOv0vdlI4Tu67v9jVBclHEvnwlPuVUBZmEpHlHNeQZ007dr9y5JbrmFCQcoNMI4oIHsLMNaSWEL0mgssizD322EM+RoWQkpdP1BeJJGJuxZEFooi7lV8WYLJ4k8LfOcY5rrGLSSm0QVvkmm+11VbJcSLRpAaVEXK/xISeyQJpMJxnwuDuQ4/QE/FGihkfz4HxIsFcw59IdUh2ec5Mdsi3t78paxl448CEjFQifm9+A9seEyrehthtKUl9soLN74D48zvY63m7QFTfXm+/C8Bvb78cy+/OwljSaOyzcPPpKUwWye3ntyS9iz7s2wXSeRB6FlMrSr1RoVcURVGUirhCT8SYNA/SaBBHovAIJdsvIprkeZMaQgoOwkeUGKFEvkmbYc98K5b1Kggp+e2ktxBpZzEnkxJXyLuzy80HH3wg98S9k9vO2wrOsR0m13GcRcekxAATC8bDcQr3TdoL0WvWI3QXJgLsIkOEnMKkiLcm/nMoW6zQM2Ejn95CrjyLcHlWTBD4XbmW1C3WYpAvb/f8508i/Wxnuvjii8vbBPsWRlHqjQq9oiiKolSEFA7ElY80EaHlA1NIO4tdjzzySInAs6sLi0CRW6LL/Ju0nuOPP16iuRtvvLGkxRB9JrJfz0IaD2JKrjeTD3aKIfLNGwj7YSmi9qwL8He4oTz77LOSOsR17oel2LKT1BbaZN9+PhQFvAHhQ10c59nYRbDsRc9iVZt2g+zyVVb2biclp7twL0g9H25ibQD3Rd66/xzKFpty40M/7JJE2pV9s8Lvzf2Gxs+EgNx56oTaU5R6oUKvKIqiKBWxHyBC3kgt4cuzzZhawdiIHNstGfk3YyYlhvG70WgX9zp33/dmw4+o9wTcO793sz4D5Z+JCr2iKIqiKIqitDAq9IqiKIqiKIrSwqjQK4qiKIqiKEoLo0KvKIqiKIqiKC2MCr2iKIqiKIqitDAq9IqiKIqiKIrSwqjQK4qiKIqiKEoLo0KvKIqiKIqiKC2MCr2itBxDjOnfz5h+/YwZMMg/acyAnHNK62B/R1tq/TkbXV9RFEXpNQqFfmhHmzniiCPSpX2wf1mPUbX/qvWFoR2mLanfbsrXHmo62ry+jzjCtHUM9S/0GGza/TFHSvBWUuPNL8H6PoPbM/WGlaJnEb7/0v02AwP7p6WmVlGuWj9Ibwm9049bBg7xL2wB/HsZ4F/QfPhCbUvZn7XR9RVFUZReI0foi6SyzRR6aSWq9l+1fkyMiyS2k6gEl2mnaOxdJSjGwXGHS7C+pVQ74ecYnEj5pa3DBKo2CYOyIpMq/cUR41Stn0cvCP2gAYExu6UFhNglM7FqsfH7v0etv22j6yuKoig9SkToXaH0hC0leWGZq07V/utZf1hEfXC7/XeeiHfiyrwvrXnnErr6L47mB3DuMVfY8/AmJMF2pJ/AMyy4x65n2Y23Jb2CK+OeeA8ZGD+XULV+ET0s9K689R9Y/lzTEppctZjQW9yoeXd+3kbXVxRFUXqEoNB3RVcDsiY4wtsDQla1/2r13TSRLnkvL/RO2wGZFRzhzXQvNFjou51iNIzkWcXu333G0WsaSBLNjQm3I4ghaa5av5CeFHpnbDFhd6W+O130NvZ5cD/Jb9OiQl/m98ml0fUVRVGUniAg9Hmy20WXNNcufPlU7b9q/U7h9uqWFvpCWQdHaIMXNVbou+41NiHKo+jehpH7/BtKSdmOimHV+mXoQaEvJesF/TcT7hsRhlrpuTcJSZQ8NmEsoNH1W4Sff/7Z/Pjjj+bPP//0Twl//fWX+emnn8yvv/5q/v77b/90Bq7h+u+++07qhuAa+vz666/NH3/84Z8uhPrUc8fz22+/SXtffPGF9F1mrCGoR/333ntPSpW2FEWpP1mhT4Q0T+bSix1db0ulU+REX1M51ukGKvVfuX6EskJfVlTz22uk0JebEMUpF30vjuI3iERo82TFW2DpOm3V+j5+7rJfQkKdEfpAykmoHpQV3kTqCq6DTP56Z4kMIUXw/kv0KQQmHmXvr5kpfANUQKPrtwjXXXedOfHEE80111xjXnnlFf+0CO21115rzj//fPPAAw+Y77//3r8kxS+//GIGDRpkjjzySPkTcffPP/7449LnAQccIH3mCTMTjW+//dZ88skn5vXXXzePPPKIufHGG01HR0eqbcZ20EEHmX322UfuKTZBKYKJC+2vueaaUvg7xxRFaQ4yQl8spOn88pB0ulLvnxPclA5PGqv2X7V+jHwB76K4/2HkpwU1UOhLvWEowM2hDzVSjz56ikLhC8ixu+tL1fp514VKSMxdoY/JtJTAGAvH30kZqUutF4iUwPCHUeL+g8/NIXQvoWOtRtUIeaPrtwDI+korrWT69etnJp10UnPhhRf6l5gnn3zS9O/f34wwwgjyZ0j6XT7++GOz2WabSZsLL7ywefbZZ5NoN+XFF18022+/vZwffvjhzX777SdtutcQZSe6//DDD5v1119fxrjYYouZeeaZx0w++eRmlFFGMcsvv7wZMmSIXEebiy66qBlxxBHN9NNPb84++2xp0y1MBojgc/2XX36ZOW/LM888Y/bdd18ZH4W/c8y/zhbair2JUBSl/mSEPjdy6ohiW8fgnNQKNwLuC6sr1Fnprdp/1foxahd6/749ct8kNE7oS4+/gNSbGqetwsleo3HzrX1cQR04KBv9har1hZxFtUIg8uziLlwMteFKvl+/jKhD0ZsIX+YDw5Rxho6n3mD47Zd9u+E8w5omXE2O+9uF/hsrotH1GwjR7Jdeekmi4+3t7eb66683d955pxk8eLCcc3nttdfMXHPNJeI699xzS+Tc56yzzjITTTSRyDdijWzn8fTTT0ubI400kkS4iZjbaDdl9dVXT/qkTD311NKuew3Re6L2t956qxljjDGSa21B3BdffHER7TfffNPsvPPOZuSRR5Zzo48+uplhhhnMHHPMkSpLLrmkPA/eEFxyySWZ87bMNttsZpJJJkn64u8c86+zhbZoU1GU3qG80DtR1WEiVpAr7UbhnbaK8rOr9l+1foyyQp+eNARu0NJLQp9fsvdS9PvUhLdTjltKPPLGEBNyN/VDBDEi1VXrQ2E6S05dSAl9pI1YH6lJR8jUO8kVele6I/3nUTipcNr3n7Ml9ju0mtAHU47yno1Ho+s3AZ999pmkmqy77rpm1llnFREebrjhRMTHHnts869//cuce+655vfffzcvvPCCpNDsvvvuZtRRRxVxJfqOSHP8iiuukBSXr776yqyyyirSBsK84oorynm3PProo4nQIuEnnHCCGW+88cxkk01mBg4caJZZZhlpn6j6hBNOKIIcKpzjGq7dYIMNpL3nnnvObLLJJiL5ROY5R5T+//7v/6Tfhx56yKy11lpmtNFGk3tkcjDddNMlZcopp0xEn/qXXnqprBloa2vL9G/LxBNPbMYaa6xE6Pk7x/zrbKEt2lQUpXcoJ/TBFIkSQuynXmSkOkvV/qvWj1Fa6L38/NB9ptYPBMU5mxYULpGx1EXos+dqJmccoefSFIREMLhQNCLVVevHIsspYnU7icm6S3BM4EXAQ2NIpfEExC7adhkK7s2SN6HIO9dqQu+/6Yj9JjEaXb/BkEpy2GGHmZlmmkmi135EmzLmmGOaAw88MCW044wzTnKeyDaReI4TQUeYH3zwQZFizjM5oA1faA8++GARfyC/HsFmArDAAguYu+66KxF6RPz444/PTAhs4RzXuELPWN9//31Jw1lttdXkHBF+/v3YY4+ZjTbaSCYkTF623nprc/HFF5s77rhDyi233GIOPfRQmVxQjxSdp556KjWhCRXeSNC/fS78nWP+dbbQFm0qitI7FAp9PAWjnBCnUy9quL6b/VetH6M20S0r5KFx1VI/MpYKKTf1itCnJy2d4/QF33+L0gz4Qh6NFkfEs2r9PBlNiNS12DGEzln83V9SlMhfT0pgnGUmFDFyx+UQva7g2bSs0AeecxkaXb+BfP755+aoo45KUlMQeqLT5LEj2xT+ToT+6KOPlh1oTjnllERYkXrEHJlH6jlGPj3pKaSy8G8EnXMIPcVG9SlE+W3OOwtT7QRg7733Nm+88UYi9AsttJC57LLLEuH2C+e4xkq0v9uMFXrEnMkGUXrShIjKDxgwwGy55ZYi+Ig+E4yrrrpK2iP3f8455zT3339/SrzvvffejJzXIvRMHlhfoChK75Ir9B25EltWiNMR63BbXVTtv2r9GLUJ/TDSUttVJDqdvDUItVe/lJsSt5YiPgEqT3QHo2Fn0/89ZM43GFfIc8U0Io5V6/eW0Jd5E5CKxDuF65NxBu7Nn9TUQjTFI6e4t1kk7EXnm41EqLs53kbXbyD/+9//JMfbCigSe/nll8vi1G+++UYKf0doWWTqCz0LVBHUU0891Sy77LKJ0BPxR5j5N+kzO+64o0T4Keuss05G6JFvJhYINMdPOukkEXEr9EwIpppqqlRKjFs4ZycUSLS/24xNuWHygdRvscUWkiKEbDMZoA3Sa+iPhayzzz67TG64B+7P36lmm222ybxtoJRNuWHx7bHHHptqU1GUnicj9FkJDQknlJVOP9qcL4pV+69aP0Z3hD6PZJzBKHVtY8tQF6Gvve4wnN87eG+Qt2i6wWQkNiYyESGuW/0eFvqyufIx7DhD0t4woXeeaezWVehro2r9BsG2jRtvvLEsQEU+Z5xxRtnOMS8FxBd68u4BKUfOOTb++ONLRJ+8dKLxyC/1LNTxhZ6oOXXscfogXcYKPWI888wzZxaVhsqee+6ZGadfuI7Fv+w/z4SFtwmM157njQV9kzbkyzzQh98vpeyiWFKKTjvtNL9ZRVF6mIzQp/Leo0JWXhqDKTd57Vbtv2r9CPUV+i6hDQt744Q+lRZTc+V0/byxV5849BCuUOYJaSzlo271e1Hocy4L4/QfmgzkvpkooMq4ujMZkJL3rJVWhB1e5ptvPhFPotGknLjiHcIX5ZDQE5EmVYe89CWWWEIi5S6u0LOLDWk/RPTdnHxf6PnznnvuyWz7GCoffvihSDh58GxbyVsH0n5oh0g96Tek2bB7D/vnkytvd9bhGiL91GOnn9jkhj78fillt61kh6ChQ+P/v19RlJ4hK/QlZbKM4GakzV8kG6Rq/1Xrh6n1+lxy022g3D1EqSL0VaPnJRY+C8GFys1AJHLuE5XWivXLCK0rriFpLyP0VSLVeek24L6lyBlCmJLPL4QKfXNS6b+H7kG++BRTTCHiOcEEE5SKGPtCT6oNgvrII48k+8eTckM+/Lvvvmt22mkns/nmm8s1dr91V+hZzEquPPvA22MhobciTjpNUWGSQNQd2GqT//9phX6ppZaStxBE57nW5vOzQw4Repvvv+qqq8qEgPu1hd142DmHaL7fpy3sEmQX51L4O8f862yhreeff957yoqi9BQBoS8hr2WisBF5dyU/Vrdq/1XrhyhssyylhLeRQu/9dnlvOUKUjPDXI1e/x4jJtqUoXaVSfUdoQ0Lu1o1dUyj0BX3k4UpzZuyduGPMe0sRo+j5VaHKRKYRlHpjk0PT1O/B3zQA2zYi34gnqSHkihfhCz2LWEkhmWWWWSTVxgo90W0+0ES7bAtJpJqtLMEVetpCvslr94X+rbfekv3i3eNlCnnvfAgKEHf2kLfnSN1hK827775bFt7yVoDo/HrrrWeWXnrpZJtKcur32GMPGYctfPGWffk55/fZ3UJbLOpVFKV3CAp9ejcST2DzziW4efP+NSUiwHl95J2z5F2Tdy6HykKf6jdfdhsu9Kn7peT9TtlzqbqBCUHqfHcH2JOkpDkngu6fs+Rdk3fO4kY0XWl25WpA5zUhIc8T4jL9hygzkXBJrSWIyCDjDDXj9xW6xqb9FI3Dp6WE3ttCtNZ7bXh9/7+DnP8W6gx56zZCP+6448ouNkX4Qh8qCD3pMTfddFOyGJU3AEceeaTkrPtCT5vI87zzzisLaO1xUlXYYcZei4xvu+22Zo011pC/E+FmIS4SzlsACtdZoSddhnuibxuhZ/tM/kTyr7zySnPzzTeb2267TfL8SRXy78UtNqee+yC9yJbddtvNrLzyyvIM/TpMFrbbbrvkWhYR89Va7ou0H9ri7YWiKL1DWOjBF9BMiYltRWG3dLv/TirUzy6szSvZeyyqX+yw9RP6opI3luD6h0zJ3n92IXSkBGS/afClMlMKhLBSfU+k/IJXWVEKSVYi9HklR6wyEhbovwxlxhFrKxPZjZTQ/eehQl8DVeuHfsfeee6IJNF1xJMcegSZhbJ5+EK/yCKLSD32j2cfe44h9ET/SXdBwElhQaRZHMokgrx1W98KPZFvUn6swHOcHHf7BoFCtJ9deUjTQb55A0B6DQtY+ZgVhesQenLUX375ZVloy5aaSL1tg7cKvBEgTYg3CZtuuqlsp8nEANkmf96mxMw///ySjsOEgN1yvvzyS9m3nzUDFPLgn3jiCUnR4U0E90kffOiK/vjgFn1wLbv2nHHGGbJugY93MaGgLSY5iqL0DnGh7yQkdXHJLP6okiW4T3mA2vrP0p36RUKeLlmhDdfPXhenOYR+GP62o04pEvLoOOK/d9MRktJYqkmIKvX9um76Sp7QQ96EIlIlISj0OROAXGKTk5LtBcdSQ32flhL6eqa8NKg+NCCHng85sYWk3SoSCb3wwgtFMn0QfQTdF/rQolgr9EDKC7nvSDFpOeSls8e7L/Q//PCDGTx4cLLVJdJ+zjnnyEQDGafwkSci7kwSiIYTGd9www0lD/6ggw6SYoWeXHcmCNzbcsstl6TdEEm/+uqrZbvKXXfdVeQeWefNALnubM3Jglr2sf/oo49E7hn7DDPMIOO2cJ7nx+SEtwT2g1xMWthj/phjjpGJBHV5o8DCYMbLfSD95OvzVoBnqihK71Eo9IqiKIrSSiClRLltFBzRJEXkuOOOM08//bR55513ZCecxx9/3Jx++ukiwrUKPQtJkd5NNtlEctDZb552fKEH0mSs0LNLjv0wld3qETkn+k2uPn9nAkIOPOMmYm9TZmjjxRdfNBdccIFMAmgLWeccUfYhQ4ZIpJyPStHOtNNOK+k65NYzTvLryd8nsIJ4E7nff//9zWeffSbjZHHvq6++KnvlM0lxv66LpDMRYHJCXj6TBSL39MVbADt52GGHHTIfq1IUpedRoVcURVH6HCxUPeCAA5IvxVLs12JJFyE9hI82ERHno1C+0Le1tUkqCTu1bLXVVhmhB+oQiUaEEXyi47b+wIEDg0JPGgwSj0yTzkOEnXFNM800IvX8nfx8pB5JJtJuvzJrc+j5EisRdiYnpM9YoWe8bDvJ/RA1JypPVJ00GNplP/6FF15YBJwJA7Jvd81h5x4mN6TyEH2nTSYFNkff7qv/559/Sr9MkGzePoUUJT7cxRsJRVF6HxV6RVEUpc+BZBONZoGmXZAaKixCPeSQQzJCj/QjyaSy2N1ffKF34cuzNjWGct555yU55K7Qk7pCdBxhZ594FqTyd65nxxxSV4ig2xx9ts+kUNcKPRLOoldSiHyh574//fRTKfYZsDAXSUfAKUwm+KIskxXeZgALaJloWElnssNkw36UigkCbbGgl5x+tuNkUuDug88iWd4CEMm3W3kqitI7qNAriqIofZavvvpKJHO//faTnHek2H7RlHSVE0880bzwwgsZoQ8VV+jZ852dXIiGU9irnvQTruNDTuyEY3GFnskBOegLLrigjAuhp10WytK/3WaTNomkX3TRRVJcoSdKbvPhXaF/++23ReRJJ7r33nsl4s492vQZ5Juced5c8AbDyrwdIzn59E9bjIdUIlJ7aJ822P5y+umnl8kB6UE77rijpPK4X5Dl3pB9JiukACmK0juo0CuKoih9GgSYaDZpJeSIswsOAvvBBx9IigjRZF/oSYFBoGefffZkJxlX6Mmxn3nmmUW6KfZrrBSk+dlnn036d4WeaDlvBE444QQR3iKhZ5cZCnVJE0LWXVyhZwccFtda8SbybxcGE03nODvQ2Jx5F1KHeEvAglvGy2Jh/m3ru+k1FCYvpPMwHnLueU52r3smDuTSE6lXFKV3UKFXFEVR/vEg9CwotYLOolrElq0bWRDKMUSd7SmBxalEou31pO4g/nxBlRQZcuotrtAj7eSis5PM559/ngg90fpLLrlE0lza29tl1xxy9+0e8KwF+M9//iP1XFyhZ7Hv//3f/0n6C3LNeHgbwdsDJiB5gk20noWsNlWGP5m8IO5MVhgjbRGRP+qooyRFx7bHhInnwTNjAe7qq68u9+y+AVAUpWdRoVcURVH+8ZDvzseVbAoN21ICoo9cc+zYY4+VKD+QykMqjL2eqDsiTyoOe7q7vP/++5LLj7yTxmJlHzm3+fLsHkM9RJi3CUTIGcPWW28ti2fZl/6xxx7LSDL1aZcdb4i8k+dOvjttMh4WxrJQtju7zrBzD3n95Nuz7SeTGSSecfs58ozr559/log9b0CQfEVReg8VekVRFEXpQWzKD5F5Jgi+lMdAmpFn8uVjcJ52SZmhHwp9+MLdXZhY5PWvKEpzoEKvKIqiKIqiKC2MCr2iKIqiKIqitDAq9IqiKIqiKIrSwqjQK4qiKIqiKEoLo0KvKIqiKIqiKC2MCr2iKIqiKIqitDAq9IqiKIqiKIrSwhQK/dCONvlwRaq0D/Yv6zGq9l+1vjC0w7Ql9dtN+dpDTUeb1/cRR5i2jqH+hR6DTbs/5kgJ3kpqvPklWN9ncHum3rBS8llUrd9IBvY3pl+/dBkwyL8qjtZvUP1B2XpS+hszxL9WURRFUVqbHKEvkso2U+illajaf9X6MTEuKaFRiS3TTtHYu0pQyIPjDpdgfUupdnKeY9X6DSUmhGXFUOtn6/RS/SEDA9d7pf9Av5aiKIqitCwRoXeF0hOulKT1lIxV7b+e9YdF1Ae323/niXgnrsy3dZhUF3nnErr6L47mB3DuMVfY8/AmJMF2pJ/IM6xav6G4MumJY0oWY1Kp9aPX9EZ9uSZyboCtWzbSryiKoijNT1Dou9JUYrLlCG/Q1KpRtf9q9d00mS55Ly/0TtsxYXdkN9O90GCh73aKUSdV6zeaJM0jIoWucIakUOs3tn4uQ4zpb6V+gH9SURRFUVqSgNDnyW4XXdJcb2Gr2n/V+p3C7dUtLfSFsg7OpCF4UWOFvuteYxOifKrWbywlZTGRTl8KtX5j65egSl1FURRFaUKyQp8IaZ6MpRd7utLYJXM5EeqUUHtSW7H/yvUjlBX63ImCQ357jRT6chOiOFXrN5hBAzplLxYdBjfK208cNEHrN7Z+GZK0GxV6RVEUpW+QEfpiIU3nl4ek05V6/5zgpmR40le1/6r1Y+QLeBfF/Q8jPy2ogUJf6g1DDlXrN5rC6K2b391ZBjrmqfUbW78Qp35N9ZR/Gj///LP58ccfzZ9//umfEv766y/z008/mV9//dX8/fff/umaoT36++KLL6T89ttvyXH+Xo8+FEXpu2SEPhHXUHTdEcW2jsE5aSNuBNwXVleos9Jbtf+q9WPULvT+fXvkvklonNCXHn+EqvUbjo3ehnZBcRdkDhzUFSV2U0O0fmPr5+HWD7WvKA7XXXedOfHEE80111xjXnnlFf+0+e6778y1115rzj//fPPAAw+Y77//3r+kJpgc3HLLLWb33XeX8vzzz8tk4plnnjGXX365+eCDDzJSz2TinXfeMa+//nrNZciQIebzzz9PtacoSutSXuidyOswySzIA3ej8E5bRfnVVfuvWj9GWaFPTxoCN2jpJaHPL9l7Kfp9iqhav+HEhDJJBbGRXSfto4yQav3eqe+SRPu9opF5pQBkfaWVVjL9+vUzk046qbnwwgv9S8yTTz5p+vfvb0YYYQT5MyT9tUB0/vjjj5c+KUwWnn76aWl7jDHGMLvttpt5//33U3Xeffdds95665m555675rLQQguZ008/PdWeoiitSzmhD6ZRlBBid+tCrslIdZaq/VetH6O00Hv5+aH7TK0fCIpvNi0oXCJjqYvQZ8+VoWr9hhMSSlcmE3eMCKXWb2x9l5jQS4ml9Ch9lW+//da89NJLZtCgQaa9vd1cf/315s477zSDBw+Wcy6vvfaamWuuuUSskd/HH388dR7OOussM9FEE5nhhx9e5J80mSoQoT/llFMSoecNwUcffWTWXXddM8ooo5jpp5/eXHnllak6RNoZn61TSxlzzDHNgQcemGpPUZTWpVDo4ykU5YS4S/CcUub6bvZftX6M2kS1rJCHxlVL/chYKqTcVI2wV63fcHyhTKTQX6QZEUqt39j6RaQkX6X+n8Bnn30mcowYzzrrrBLtHm644UTExx57bPOvf/3LnHvuueb33383L7zwgqTQkPIy6qijivgSISf1huNXXHGF+eSTT8xXX31lVlllFWlj5JFHNiuuuKKcd8ujjz5qfvnlFxkDaTH+eb8wQdhggw0S4d5+++3lOJH5SSaZRCYYe++9t4yRsYIr9Fyz7777yqQgryy77LIyZhV6Relb5Ap9R67ElhXidMQ63FYXVfuvWj9GbUI/jHQkvqtI1D55axBqr34pNyVuLUV8AlSOqvUbjiuU9u9B8YsIpdZvbP0yuLn0tdZVWoqvv/7aHHbYYWammWYyI444YiZK7UaqWQTb1tYmYjzOOOMk50cffXSJxFupRtQffPBBM+WUU8p5Jge0wXm3HHzwwSL+QG68f94vE088sRlrrLGSfhkDxyeccEIz0kgjyTmuYYyMFVyhn3nmmc29994raTl5ZaeddpJ7UqFXlL5FRuizEhoSTigrnX60OV/0qvZftX6M7gh9Hsk4/Vx/obaxZaiL0NdeF6rWbziZNI2QTEJktxSt39j6ZfHfBCh9DhZ8HnXUURKRR3gR+ummm85sttlmItsU/k6E/uijj86kvFihRuYRYI6RT0+6zs477yz/JkJv5Zhio/oUovw2DYc3BPb4+OOPb6aZZhoZi18Q9qLriNqHhJ77JC9+mWWWyS20Sd6/Cr2i9C0yQp/Kew/KZiclpTGYcpPXbtX+q9aPUF+h73o7EBb2xgl9Kv++5sp1qN9o3HztPNlzo7xukFfrN7Z+WXKj/0pf4H//+5+ZbbbZEkFGdtkt5uOPPzbffPONFP5+//33m4cffjgj9Dbl5dRTT5U0FSv0RPytRE822WRmxx13FDGmrLPOOoVCv+2225qbbrrJ3HHHHZly0EEHFV739ttvmz/++EPa1Rx6RVEsWaEvKZNlBDcTrfUXyQap2n/V+mFqvT6X3HQbKHcPUaoIfe6Wo2WoWr/RlIz8RoVQ6ze2fhkqpOs0AvetRXeG2+r1uwE7xmy88caSqoK8zjjjjKajoyPJPQ/hCz0SDkg5cs4xouZE9Mm9Jxq/zTbbSD2LK+4xoacPt45L6Dq2qzzhhBNk1xv+zr70FtYHcM5udVlL2W+//SQVSFGUvkFA6EvIa5mtGSPy7kp+rG7V/qvWD1HYZllK7PTTWKH3fru8txwxqtZvNEWymNoPPSCdWr+x9YsI7prTpLhjzXsmMVq9fjd58803zXzzzSdiTKrNRhttFJVoSxmhJyWGVJ2tt97aLLHEEubGG29MteEK+T777JPk0LvHN998c9mthmNuQdYRbJu2wxaWTEwQeSYkM8wwg6QQ2UkJf7733nuyA88jjzxSc2EtwLPPPlt5/3xFUZqDoNCntz30BDbvXIKbN+9fUyKCm9dH3jlL3jV553KoLPSpfvPeUECDhT51v5S83yl8rmr9huIKoy8geecsedfknbPkXZN3zpJ3Td45S941eecsedfknbPkXZN3rgzJZKEFo/NS/N1+Cmj1+t3kscceM1NMMYWI8QQTTGBOO+00/5IMvtCTasPe8sgvufYcI+WGj0ix/zuLS5FzrrFRc1fcrZD7x2OFa0j9IY2HfzMhIKVm9dVXl0kJufxnnHFGMl7ShXbdddfM/vK1lrvuuitpU1GU1iUs9OALaKbExLaisFu63X8nFepnF9bmlew9FtUvluz6CX1RyRtLcP1DpmTv31K1fkNJiWOoFMik1g/U6aX6rrTHSivIPFSNcLd6/W7y0EMPiXwjxixsJRe+CF/o2cVmjjnmMLPMMouk2lihZx/7s88+W9odbbTRZKtItrKEUMqMf5zdauzONu6uNlzDV2HZb55/b7XVVrKjDbvc8O/llltOtqy0EJ1fc801U5OC7hT7JkJRlNYmLvSdhKQsLpnFH1WypKU3Lte19Z+lO/WLhDxdskIarp+9Lk5zCP0w/G1HnVIqnaZq/QYTksNa0jy0fu/XD9UpW7cZqZqD3ur1uwHpJDZCP+6448ouNkX4Qh8qCP0999wji1Unn3xyOcYbgCOPPNL89ttvpYSeyP7dd98thb+7Ys2C1/nnn1/+zVabTCbsPZB6Qx8WV+iZGNCWu988bwi4bwp/t8cZK+lCbr+KorQ+hUKvKIqiKK0EaTBE1xFW0lX4YJNNf4nhC/0iiywi9dZaay2Rayv0RP/5siy70LBlJfvQs5sOk4hrrrmmUOj5gBQfnHL740NPN998s/nyyy9la0mOsaCX7SUZPx+x+vTTT1PjdYWeaD8TBNq0hR1xEHkKf7fHydW3226q0CtK30GFXlEURelTsNCTLSQRYqSVtJULL7xQPjTlg+gj6L7QW9F1F8VaoYeXXnrJrLbaamaUUUaRSDoLWq+66qqM0P/666/mnHPOSY4j/X///beMhZ1mOMZiW3bh+fPPP82mm26ajJtCnjtjGTJkiAg/dcEVendcwIJZ8v5t7j0pQhb3flToFaXvoEKvKIqi9CmQXiTW5tETRecrr8cdd5x5+umnzTvvvCM74bBDzOmnn26uvvrqmoWeKDtyvskmm0g6zHfffSft+ELP8cMPP1yOEYm/+OKLzYcffih9r7rqqnJ8qqmmkn+zuJa+yM3nODvekDLz3HPPmS233FLy9cmzZ5IQE3raINd+zjnnlHOsBWBXHbs7jgq9ovRNVOgVRVGUPgcLVQ844IDkS7EU+7XY/v37y7aWiDT56XxgyRd6FqQizc8//7wsUPXFGahDdB+JRvBJp7H1Bw4cKOc/+ugjkX6OkXe/9957i8gzwSC6z/EFFljAvPHGG+bJJ5+UsdkI/TzzzCM73TAGm/az1157SaSedtkHn/uhPnUZA5H+9ddfX75iy/X0gdyTInTFFVfIVpXs+sNkgMIuPoqitD4q9IqiKEqfA8l+6623zIABA5KtIEOFBaWHHHJIRugRa4R35ZVXFmkOCb0LX551v/R63nnnySJWIup8jMoKOtthTjvttMl15OHvsMMOstiW/fKJ4ttzRNfvu+8+yYG3O+2wFz0pRT///LO0zbk777xTtrwkrWjxxReXSQxvJZB5JjHU4+9MKJhM7L///rKH/uDBg5M8f0VRWhsVekVRFKXPwsedWDBKvjo57+Sks2CWqPa6665rTjzxRElR8YU+VFyhJxLOjjFE9ynkrE899dRyHQta2QmHSQVtshMOgk3/7JHP3vJEzRdbbDGJ2HMN0m8XwvLWwH5gauGFF04tlCWth7QZIutI+bHHHivpOET8baoOEr/ooouaM888U94arLfeejJ2++Vcovd8qIpI/mWXXSZvIhRFaW1U6BVFUZQ+DYtNWYTKB6FeffVV2QWHVBZ2fPnhhx9EvH2hn2aaaUT+Z599dhFyX+jJPZ955pnNmGOOKcXKMgVZJrWFNjfccEMRbN4EIP5E1nlzwBhY6Pq///1Pouo2zWbWWWeVNwYIOccotm32qCe1hmj+vPPOKxMI5N/te5xxxjErrriiTGK4N/pjO0xy91lwy9sKm47DuFjQW2affkVRmhsVekVRFOUfD/LNl1itoLOoFul/4oknJFedY4g621PCiy++KNJtr0fYEX+bVkM+OwtREf+ll15ajt9///1+tzKp4LscpNQQZUfw2XmHXXOWWmqpJAUHcefLsIxz6NChkgqE7HOeftk6k5Qd+iO/PgR17733XnPwwQfLGwJSc3hrQOqNoiitjQq9oiiK8o+HfPcHH3wwSaFhW0pAgpFrjpHeQpQfSOW56KKLkuuJqiPypOKwaNVCfUSeRbafffZZctzCjjxIPfVvuOEGmQgAUv/AAw/IGgD2oacP+6VY3ihceumlkkqz/fbbJ/2+//77yW42MahLvj8RfNJ92tvbkz4VRWldVOgVRVEUpYch7cfuIR8CEUe2fahn04Jc2Lqy6GNZRdA2RVGU1keFXlEURVEURVFaGBV6RVEURVEURWlhVOgVRVEURVEUpYVRoVcURVEURVGUFkaFXlEURVEURVFaGBV6RVEURVEURWlhCoV+aEebfPQiVdp77yMUVfuvWl8Y2mHakvrtpnztoaajzev7iCNMW8dQ/0KPwabdH3OkBG8lNd784tcPPq9UqeX+I+35nTYzA/sb069fugwY5F8VR+s3tn7CEGP6u+0M8C9QFEVRlJYlR+iLpLLNFHppJar2X7V+TIxLCu3g9kCfZdspGntXCbpxcNzh4tcPCniw5I0fiu6hxPNvKIOyIpkq/cUR42j9bJ3erO+RmRio0CuKoih9h4jQuzLmiVdKFntKyqr2X8/6wyLqg9vtv4tE1pP5tg6T6iLvXEJX/8XR/ADOPfrCXkSX0Ieejf/GIXQNVH3+jcaVSU8chwyMn0vQ+tFreqW+T2hyoEKvKIqi9B2CQp8vdeAIW63GWIKq/Ver70prl7yXF3qn7ZiwO1Kf6V5oVqHvpGBSUtxG3vNvApJobkwYHUEMpX9o/cbW9xnQeW3/gU7bKvSKoihK3yEg9OVkq0vaigS3Vqr2X7V+p7B6dUsLfaGsgzNpCF7U5EKfeh5+H3V4/g2lpCxGxVDrN7a+hxvRp7my9RRFURSlhcgKfSKkeUKXTr1wvc0VvVD01pLK1U43UKn/yvUjlBX6sqKa317zC30qdaaev1+jGTSgU/hi0WHwFli63qn1G1s/hXOdnRyo0CuKoih9kIzQFwtpOr88JJ2u1PvnhJgM1qH/qvVj5At4F8X9DyNfnFtA6F0pdyZuxfffveffaxQKXyAfe6Bjnlq/sfVdQm2FjimKoihKi5MR+kRcQ9F1RxTbOgbnpI24EVhfDF2hy0pf1f6r1o9Ru9D79+2RG8luBaEPP5Oeev69hptv7eOmbwwclI3+gtZvbP0ER/xrmjAoSvf54YcfzJ133mnuvvtu89prr5kff/zRv8R8/vnnZtCgQeaFF14wn332mfnzzz/9S2rim2++MTfccIM5//zzTXt7u/z7999/N6+88op59tln5e8+v/32m/niiy+6Vb7++mupryhKc1Fe6J3c8GGSWZAH7kbhnba6JDAsjFX7r1o/Rkheg6SkNXCDll4S+vySvZceE/qKz7/XiAllkgpiBTGQzgFav7H1LbF2VOiVHgSJX2qppcz0009vVl99dfPiiy/6l5hbb73VLLDAAmb++ec3hx56aFD6a+Hdd9816667rplkkknM0ksvLSL/4IMPmpVWWsksv/zy5rnnnstMGp5//nmz++67d6sceeSR0oeiKM1FOaEPLvQsIWTubihck5G6LFX7r1o/Rkhew6Tzw0P3mVo/EBTnbFpKuETG0utC33VtTz3/XiMkgq5MJu4YEUqt39j6qesDefgq9P8YiCS//vrrIp9+GTJkiBk6dGhhpPnvv/8233//vfnwww+TtpD29957TyLhf/zxR3LtX3/9ZW655RYz5phjmn79+pmNNtpI6rkQLd9uu+3MKKOMYkYbbTSzyy67ZGS7VhjLmmuuKX3OPffcMom4/vrrRfCHH354s95668n9ulx33XVyfXfKdNNNZ+64445Ue4qiNJ5CoY8LXjkh65I+p5S5vpv9V60fo7zQQ1khD42rlvqRsTRRyk28vdqef6/hC2UigL4cRoRS6ze2fvR4Jyr0/xhIP1lyySXNHHPMkSpzzjmnWWyxxcz2229vrrrqKvPtt9/6VYWffvpJUlaOPfZYkfP+/ftL/fnmm08E+phjjjFvvvmmSPpHH30kUe/999/fDDfccCK+e+65p9RnIvD++++LuL/11lvSDucnnnhic9JJJ8l5tzCBAK4nJcc/75f77rvPLLvsstLmLLPMYm6//Xbz5JNPyhuC0Ucf3aywwgqS4sP9WFyhn3LKKc3iiy9ulllmmWhZYoklzHjjjadCryhNTK7QdwSErYuyQpaOWIfb6qJq/1XrxwjJaxHpSHxXkah9ErUOtVe/lJsSt5YiLuA+7u8aFvp6Pv9ewxVK+/eg/EXEUes3tn6RsBedV/oM5JQTpUZCkWwi4kTPRxpppERmxx57bHPIIYeIOFuIyn/yySfmgAMOMLPNNptEuf0otSu2H3/8sdl1113N7LPPbiaYYILk/DTTTCMRc8rWW29tPv30U3PRRReZUUcdVc4TpZ9xxhmTa2y56667ZBy8YTjhhBMy5/0y66yzmrHGGkvapG2knuNTTz213PMMM8wgUs7kwuIKPWMjn59JR6xwftFFF1WhV5QmJiP0WQkNyRiUlU4/2pwvilX7r1o/RneEPo9knH6uuVDb2DL0itA7v6tzDz31/HuNRPjyZBKKFl1q/d6v7xwLBOcFFfp/DK7QjzHGGGazzTYzBx54oNl8881FSq3QIu0sZLWwaJXoOxFpG20n0k10Hqmdd955JbpuxdZNeYkVhPqpp54yG2ywQeacX5BtYAEqOev++e6USSed1Dz00EPJPbpCT/SdvPhTTjklWo466iiZfHC9Cr2iNCcZoU/lvQdls5OS0hhMuclrt2r/VetHqK/Qd0WnwzJbUXZrvDeX0kIfWw/RQ8+/13Dztd08bh//g0UWrd+4+m7dmoqfzqP0BVyhd4X2l19+kXNEr+25iy++WM6R5nL66acn9UYYYQQRXq4nf57UGvLRSXM57bTTZMGpK/QTTjih2WKLLUTEmUCMP/74cpzFqscff7z0xSRhqqmmkjqUlVdeOTXBCAk9EfiddtopI9oUZJwx5l3X1tZmPvjgg+TZaA69ovQ9skJfUibLCK4brRVp8xfJBqnaf9X6YWq9PpfcdBsodw9RKshyOaF3023868qNva7Ps66EIr8BoukgWr9h9fuq0LtvLWJvHvJo9frdJCb0LF696aabJGrPOVJU2GYSSLVhZxjSbBDvmWeeWXLS3fxzIC2HLSqZHLhCT9rN448/LjL+yCOPSDoMx4nuL7jggmbEEUeUtJ899thD6lHIvd9qq60SYQ4JPffBGBmHXxD1nXfeOXMd+fr33nuvpASxk467+Ja0Hj91p2xhAvLwww87T0NRlGYgIPQlZKvM1owReXclP1a3av9V64cobLMssch2inJSHKWHhb7oNyx8Vt14/r1KSBZdUvuhB0xQ6ze2fh6tlnKTmaTUOO5Wr18BV+iJnF9++eUSZUfm11prLZF2jpOnzo41SDqLR8cZZxypQ8oNC2KZAOTh7zLDQlWgL0TeCv2WW24pk4dVV101lc/uijtjYoca/7g7frcg7UxC9tlnH7mOVKAHHnhA5P3oo4+W7TP//e9/p9Jt2NmHvHgmHN0pLLhl956qu/MoilJfgkKf3vbQk7K8cwlu3rx/TV50116S00feOUveNXnnciiU1CJS/ea9oYAmFXr/HmIpNXnPOO9cs+AKoy8geecsedfknbPkXZN3zpJ3Td45S941eecsedfknbPkXZN3rgytJvSZNQU1vk1o9foVcIWeyPi0004rYs1iVdJtpphiCtmJBiFG5hHd8847L8mbR4bvuecev9kMZYSelJuXX35Zdt7Za6+9ZFJhhdgVdxbp2nx+97g7fress8460i7pPFxHrv9tt90mYyINhwkCue8cszAu0nT8/eVrKUyC3IXEiqI0nrDQgy9vmRKTsYrCbul2/51UqJ9d2JlXsvdYVL9Ysusn9EXFH0vR2G0pHFfhGOLPvylIiWOoFAih1g/U6cX6MVpN6KtGuFu9fgViu9ywuwz/nmiiiWS7x2uuuUYi9KSpkG/O9TaqXuYDSq7QE90nJYXFr3zYCUHnOIti2SnmsMMOk/QfUnmIpLOPvSvubmqQe9wdP9JObr+dQLDv/Nlnn52Mm0kJ98GONwj9tttuK7n/FvLf3Zz97hR34qIoSnMQF/pOQota4zJX/FElS1oc43JXW/9ZulO/rNQOK2WFPntdnOYVev/6Irrz/JuKJP3DKbWkeWj9xtb3aTWhh6o56K1ev5vEdrnhw042nx3hnWuuuSRv3Rd68t/d1JgYZXe5IVVl/fXXl38j5Oy2wwLbMkLvjp9Fr3bHGcSaD13997//TbbXJMWGr9Dy98kmm0yi8+yVb3GFnrQiIvn+vvOhstBCCyXrDlToFaX5KBR6RVEURWk1YotiSXV56aWXEulFhNdee23Z95194q0YI8OXXnqppOPk4Qo9UXFkm+g+f/I2wAo9KSoPPvigROeJuBNtR87feeedQqEnPejRRx/N9McWmkwK7r//fsmz5xjtMlkhkr/jjjtmFvS6Qs8Hpd544w3pi8ICWiYAV1xxhaQH8YbCniN/3i7yVaFXlOZDhV5RFEXpc8SEHpD6ddddV85RSL1BWtkVxn4cChnnC7Ecz8MVbGQdIUaEb7nlliSSjtDTDnLNB6tIzUHqEWNSb0JCzwRgm222keMspiW1BlgIa78Mi5CzBoBz9G3vh8IXacnH9xevukJvx2Xh41c8F87bvfMt7poAFXpFaT5U6BVFUZQ+R0zo2bWGXVqWXHLJRH5XXHFFidAjt6uttlqSo06KyW677SZbUfLBqW+//Vb+JKpNmg5SW2ZRrCvOb775pnydld1urr76avPuu+9KH/443377bbPccsvJcSLx7Hn/3XffiZCzYJfjnP/qq68ksr7YYosl90MqDW8XmKDst99+IvaMnbcNMaEnn5/JCGsLOMekgXuwbyhU6BWluVGhVxRFUfocrtDzgaezzjpLZJmtKffee+9kwSqLTXfddVeJZCP7l1xySWrRKNeRnsNe74ceeqjZZZddZAJAHj57vtcq9OymwwJZCvvYExVnS0tf6BF48vs5zhdq2cmG3WlWX311Sachws8uNz///LN5+umn5Yu3XEu6DZMSJP+qq66SFBy7nz73GBN6dssh/96mHNHeIYccInvOM4nhvpgEMUbqMTFRFKV5UKFXFEVR+hyu0COpSD0ySvTaRuBJq0GQn3nmmaTe999/L1+ORYJHGmmkROz9ghQT+XaFnug2i25ZvMruMjav3U9tcSEHnh1xuG7qqac2TzzxhBxn3/nJJ59cxH299dYzO+ywg+To2/7Zc57tI/lq7SqrrJKIOEJP2gypOCeffLIc400DExkg8n/BBRfIAmC7t/21115rllpqqWQHINqw/ZC/z/iOOuooc+aZZ5qbb75ZUnH83HxFURqLCr2iKIrS53CF3i+IMRFodpphsemvv/6a1LNfgSUdZuONN5b8dfuxKcpYY41lZphhBqlL7ror9Eg10XO7vaSVbCv07DZDHaLwFPLnTzrpJBF5rrNbZRJJ540A46Qd3igg73YywkSBqP6FF14oaTeu6FsJP/HEEyWCz7/Zwx4J5w0E0Xb6YDLCW4sNN9xQJidW4rlf7nuBBRZI7ttOiEj92X///c2tt94q7RR9dEtRlN5DhV5RFEXpc7B7DAtTyXX3C8fZ6YZofAzEnvMI+F133ZXURYSJ6NucdFfokWIW1TKR4E8rya7QI+pTTjmlvC0gyj7yyCPLNUTGl19+eRFlovbIM8enmmoq6dfezw033CCpPkTL55tvvqQu6T6bbLKJTCY4RioRbxg4h/QTmWcCQB8smGUXHzcSP+6448o5dswhjYf74qu1pOHMNNNMqXEysdh0000lbUhRlOZAhV5RFEVRuokr9ETGyXPn7QDf3CBlxhV6OO6440SerUjbgmCTJ090HnlfY401RMrJW3/11VdTfbKAlUWvs88+uwg20s9Wk+TBswWn3S6TwhsFUoBIkbnsssuSveRtoQ8mA3z0iii+u2c9/XzwwQeSrmPF3r51ILLPOBVFaQ5U6BVFURSlmxBRP+aYY0Tq2a2GHXTg/fffl2g8xw8++GCJ6AMpPuxyw3EKH5vac889JY2FnXYsROlJb+HLrz/++GNy3MKCWr5yS778jTfemIg4H5qivznnnFPSikjXYatLGDp0qGzFyfoAvmi7zz77JLv1+Ntb+pCGxJsJxsQOPR0dHYV1FEXpPVToFUVRFKWbEMVG6onUsxDVijV/stMMx9lT3sov6SwfffSRHKcQAf/yyy+lHRfy0xFwzsU+bsU2log/bVqox1aWRNvZbpM2bN+cI9WIhbdE17muFilnHIyHCUBokqEoSuNQoVcURVEURVGUFkaFXlEURVEURVFaGBV6RVEURVEURWlhVOgVRVEURVEUpYVRoVcURVEURVGUFqZQ6Id2tMl+uqnSPti/rMeo2n/V+sLQDtOW1G835WsPNR1tXt9HHGHaOob6F3oMNu3+mCMleCup8eYXv37weaVKLffv4j+L7rbTywzsb0y/fukyYNgn1Euh9Vu7vqIoiqK0ADlCXySVbabQSytRtf+q9WNiXFJEB7cH+izbTtHYu4ov5EJw3OHi1y8Welvyxp8l225t9XufQVkRTJX+xgzx67ho/WydVqqvKIqiKK1DROhdofTENyWLJaS4W1Ttv571h0XUB7fXIKKuzLd1mFQXeecSuvovjuYHcO7RF/YiusQ79Gz8KHvomhChCUqJ59gwXBn0xG/IwPi5BK0fvaYl6iuKoihKaxEU+nypA0fQajXGElTtv1p9V1q7pLO80Dttx4TdkfpM90KzCn0npSYlXSTPrq3DDE7aL3qODSRJ04gJnyOMofQNrd/a9RVFURSlxQgIfZ7sdtElfvUWs6r9V63fKaxe3dJCXyjr4Ewaghc1udCnnkdBH95Ycp97U1BS9hJpHOCd0PqtXV9RFEVRWo+s0CdCmid06dQLV+hc0cuL3qZyqtMNVOq/cv0IZYW+rLDmt9f8Qp9KXYp2kp24lH0+DWPQgE7Ri0V3YYgx/TulkeJ6o9Zv7fqKoiiK0oJkhL5YuLL50L50ulLvnxNyZLBq/1Xrx8gX8C6K+x9Gvji3gNC7sh6ZuIWeRehYU1EYuXUiwLYMdMxR67d2fUVRFEVpQTJC7+Y7ZyTNEcW2jsGZ6KtzoRMB98XQFeqs1FXtv2r9GLULvX/fHrlvElpB6IueSfgeml7oB3RKXv+B/pn0gsqBg7qivG5qh9Zv7fpKn+fvv/823333nXnvvfek/PTTT/4lhfz+++9S76+//vJPZfjxxx/Nl19+ab7++mvz22+/+ad7Fcb7888/B8f9xx9/yH01Cn6XX375xfz666/ydx/7HL/66iu5jmt4nn/++ad/qaL8Iykv9E5u+DBBy6ZTpHCj8E5bXRIYFsaq/VetHyNfXh1Sk4bADVp6SejzS/Ze6iX0sd+hZYU+SeWwEV0nbaOMUGr91qiv9HkQxhtvvNGsueaaUh555BH/klwQyRdffNGcfvrp5oEHHjDff/+9tIlsfvHFF+aHH35ICfMtt9xi9ttvP3PkkUeaV155JdVWbzN06FBz4YUXmjvvvNN88803ci+MlePXX3+9efDBB/0qGaxYc6/dKdSlDR8mSIzrkksuMS+99FJmcmGf4yGHHGIeffRR89lnn5mrrrpKxhxqT1H+aZQT+uBCzxJC7O6GwjUZqc5Stf+q9WPkyWuadH5+6D67pJYSEudsWlC4RMbS60LvXZszWWlJoXdlMHG/iBBq/daur/R5EMdTTjnF9OvXT8oiiyxiNthgg2hBJBF2C5H2/fff34wwwghmjjnmME8++aR54YUXzHrrrWeWWWYZc8IJJ4iY3nTTTSKwBx54oBlzzDHNdNNNZ+644w7z7rvvmiuvvNI88cQTEi23nHrqqZm+y5RtttnG3HvvvUk7MZh4nH322WasscYyE000kdlzzz3Np59+KuNg7OOMM45ZaqmlzNtvvx2MkFvOP/98s+qqq8q9dqdQlzZ8nn/+eTk/2mijmVVWWUWekwsiz9gnmWQSc95555kzzjhD/j7ttNOa7bff3rz88svylkFR/qkUCn1c8MoJcZf0OaXM9d3sv2r9GOWFHsoKeWhctdSPjKWhKTf5z7XlhD7JyfYXWUaEUOu3dn2lz+MLfVHhWjct55lnnjGLLrqoGX744c3SSy9tPvroI/PQQw+ZSSedVK5fccUVzUILLSSlo6MjI/SXXXaZTAQ23HBDSfmxIOd+32UKUhsSZB/GwripM+KII5pDDz1UJifPPvusWXzxxeX4GGOMYY4//niJosew9+OPo2yhLm248JaA5zzhhBOK0G+99daSFuXC+fHHH1/ut62tzVx33XVmySWXlHuhTc4zaVGUfyq5Qt8RFDZLvrh1kY5Yh9vqomr/VevHCMtrPulIfFeRqH0SxQ61V7+UmxK3lqK80Lu/a9c9FAl70fmG4wqh/XtwgWVECLV+a9dX+gxEaz///PMkV96W1157zRx88MGJYG6++eYig7Fy9913mw8++EBSQCj77ruvCOQ000xjrrjiCunLFXpEnSg0Ee/DDz/cHHDAAYnQX3vttRINH2mkkURqSXuxnHjiiUkaUKjQJm8TkNrhhhtO+qKdeeaZR9qNQbT9nXfekfojjzyyvFlYYoklzFtvvSXnefvQ3t4uMk2bU001lRk4cKDkqYewQs/9ERlHrG0h6u8+V95E2HNcSx1f6BnfkCFDzAILLCD3xeSCtx4+TFqQed4u8LswkeLNxFprrWVmm202efvA5ERR/qlkhD4roTHxKiudfrQ5XxSr9l+1fozuCH0eyTj9XH+htrFl6BWhd37X5B66jsX6bXqhTyK6eTIIzm4pwV1WtH5L1lf6DMj8MccckxHj1VZbzcw+++yJePbv3z9zjV/22GMPSU95/fXXzXzzzSfiueWWW0pOPLJ/1113JUK/7bbbirASwafuLrvsIhJLagiCz5/jjjuuufXWW1O59qTn+JMPCikwjz32mDnppJPM6quvLlF02p5hhhnMRhttZG644QbJgY/xySefSDSeyDfjY2Jx8cUXpxaTEpHfdNNN5RranmWWWcz//ve/oNRboZ9ggglkXQDPxBbWFdjnSloSaTT2HNdSxxd60o6Qde5r1FFHldQjJiDU4b6QeyZVdkLANUxIiOKvvfbaMtaxxx5bJlhco4tklX8qGaFP5b0HZbOTktIYTLnJa7dq/1XrR6iv0HdFt8PC3gJCH1oP4T77mkpBX72Jm29t0zZCuDumuAFerd/a9ZU+AzKMUCOXpGUgk0R4yxakm2g29cktf+ONN2SCQFR8pplmMvfcc4+IMWkspN4gpFy7++67S/78yiuvbI4++miz0047JUJ/5plnShSbCQICD6SJ+AtHidxbMSXFB3GlfQppJgj6pZdeKpF5JhREuannppwwWfj444/NDjvsIPfC2PgTYfbTWYCFvuuss05yz7POOqs599xzM1JvhZ5nOsUUU5i55547KUi1FfrJJpvMzDnnnMk5rrXpMa7QkwpEdJ7nymTr1VdflXUI8847r1lppZVk4mLHHyrU47nw+66//vrm22+/TY1XUf4pZIW+pEyWEVw3Wi5i6S+SDVK1/6r1w9R6fS656TZQ7h6i9LjQu+k2znV9QejLRm6j6Rxav7XrNyHuW4fuTD5avX43cYUemSRCTCSYKPJ2221nNttsM5FrjtlCbjbpHPxJZB1JpD7pKuS/E81HeMmPP+6440SuidYjlKOMMopcS4SeFBNkH7H/97//LZFvBBdRZYcdzr///vsi7ezqwiTALVyHqLNFI9I+9dRTS9sLLriguf/++2UXGMbPJIFIOpMN6p1zzjlJvj+R/YMOOiiR4dFHH13eKvCmIbToldQbIuGkrxCl5z6R+muuuSYlyVbouYbIOG8mbHHF2y5gtee4ljqu0DMB4bdgbNTlHnhuyDz9k/7Db0A9njHH+PuUU05plltuOUm3YVEwu9+cdtppsoDZn4Aoyj+FgNCXkNcyWzNG5N2V/Fjdqv1XrR+isM2yhCLbGZpb6Mv8hjGaPuUGimQvtZ95QBq1fmvXbybcNw559xSj1etXwBV60kyIjiOLRNmJGCOZCy+8sNl7770l3YRFqUSoBwwYICkfgwYNkogxC1i5Bll0I9C2IJdI+8QTTyz/ZocW6liRRUSRfmR0vPHGS44zaSDdJLQYlvGxeJZ2yZG36TL0wU4wRPiXX355ObbuuuvKGwJEl3YRfNJUmITYeuTOI75E4RH+WGHLTSYYSL0dC1K+zz77JFJvhZ57YT0B6wdsYdJk6/FmggmCPce11HGFnkkLvwHXE70nj59reFa8BSEvnvx+JjX8bkyKuE8i8Ux2mIQwKWLs/JsUHXdHIkX5JxEU+vS2h5545Z1LcPPm/Wsi0d3UJTl95J2z5F2Tdy6HykKf6jfvDQU0qdD795CX0hShJYTeFT5fQPLOWfKuyTtnybsm75wl75q8c5a8a/LOWfKuyTtnybsm75wl75q8c81IZk2Av1tPAa1evwKu0CO0yCDCS8QXebQSSSSZY5wjko8IEwG/+uqrRUIvuugi89xzz8liWiLC//rXv0Q2qY9cEvW+/PLLkxx6V+gRVNtXTOj5/4dIOotBmRxwLRLPfvGk7TAZYfwcJ4cc2UfoEXmOIe30wcSBHXbIt2d/dvqycs3fSb0hD99f9OuXww47THLUbV1y1v/zn/8kaTr1FHqi6ZtssomMnzccpM/Y58rbE1KGWIjMGwXeTJB+w3kmM4888oi57bbbJPWIRby0v/POO8tvpSj/RMJCD768ZUpMyCoKu6Xb/XdSoX52YW1eyd5jUf1iya6f0BcVfyxFY7elW+NqFaGHlPiFSoEMav1AnRaq3yxUjXC3ev0KuEKPWG+xxRYikqRnTD755HIcQSTPHXlmxxrSS5BQItxrrLGGiDSpHcg8kV8i9/fdd5/ktCOdiDcCyQemrNCTcsM+9OTYI5k2FYcJBVFmznE90WmiyzaHnkmElXQi7vTFTjSkAlnRR/BZLIroIvVW5meeeWbJjSfNBtiOcrfddpPjpLpYya6lkNdO4V7d3WPqmXIDTz31lEThWRdAio1NaeK5Pv744/LMdt11V5F42qRtJi88T1J13DHTPtH8UEqRovR14kLfSWhRa1zmij+qZEmLY1zuaus/S3fql5XaYaWs0Gevi9O8Qu9fXystI/SWJH3DKbWkaWj91q7fDFTNQW/1+t3EFXp2tUEOWWyKECPrHEcukWd3Rxt2kiFazjmu2WqrrSTvHIgWEw1mQsD2iezZ/ttvv6W2rSQPHEEnvYWIvt1iEgEl6kzEnx14fAYPHizbUiK0pNqwQwz59uTB23QezpN/T/oPx3mzwGSFfH4mBq7IshXkf//7X5FjX9bLFHaMIX2HiL+bxsIaBNq0i115tnatAYXx23um+ItjqUsbFiY1/C7k0vPMmbyQakOKD9cxSeAtgT8+Csf5LehjrrnmMiussIJsZak73Sj/RAqFXlEURVFaDVfoEUki4D/++KNI+cMPPyziTuoM2x4ipUTrSW+ZfvrpJYccCWVPeXaZQRCRWgTbRveRR3Ly2TaS/dat0BNNZvJAPj4RdCu3iC4RZQScr54isa6A0wZtI7AIOltcEuFGWm0bdpcYxkpqDGMlak3EOySxjJm3AUwCkGSeA+0wDvbid/eQZ6JBupGVZfoP7YbDZITJAlF7Ul523HHH5A0CY+ffpOjYXX9mnHFGeSvCmwkmKdR1JzTkvp988snJmwTWFNgxHXvssXKv/B7sJkQEn2uYQBC5Z9HxWWedJRMwFgk/+uijweegKP8EVOgVRVGUPocr9EglAkhqDZFfos6krLAAFkl/+umnRZDZ29zmhV9wwQWykJZ2kERSZJBNK9d84IlFskSckV8r9CyktXu6I+McJzccieZ6xB5xZywsQgXaJ/+b69nRBlFFgGmXSQW587SN2CLviC7n2U6T8ZCDz37zebz88suSIkQ7RPwRfRfeKvB2wQo9ku1+IdfC8yMdhhQfni9vKuyONLyBYPcedt3hzYZdr8AzYCEr8s0EicWrdg9+UmTYTcf2y9iYqJDuwwJdtrXkbQf1SGfiGnLx2XWIe+I34fnQP7+XCr3yT0WFXlEURelzkE9O/jsCSFSbQmoGkV+2hbQCyb+RWaSYf7Og9cEHH5S0HEQRgeY8wswCWLuFIpF2FtFSD7m1Qk+0Gpkn/x7hJVpN34g6ksyCUwSfeogxUXqE1X7sijcHRLLth6XY7cZGppks2OP2i7d2PLwtyNuy0d2lB4HmjYWLL/QskHWF/t1335V0Ixb9MkGyi30p3C8TJHdSwfMnam73tadQB1lnIsLOQQg5Ey2be8/khIkPkyXSi5B5CwuIScGxEyrSmYjac//0z5qBN998M7leUf5pqNAriqIofY4XXnhB8qqRP9Jq+DtCSX468hkTemQXmSXdBbm0e7sTTUea+TorKSREg1lESzSf1BMr9Ag70spuOBzni6kIPek8/Jv+kHbeAJBuQhoQEwImAMgpi0PZNcfm9PMGwC7+JLJvj5PaQhtEyDlnd+cJQdSanHub1kKKih/R94WeaLo7QWCB7sYbb5wINZMdIv5MbJB2dqv58MMPk+t5o8HbBbtPP5MSu1uPHS9f2mXxMPv589xYFLzXXnvJ82cC8tlnnyXtMfHh67p2bQMST7+kHK233nqysJY+FeWfigq9oiiK0uewEWmEknx2csgRYtJArOiHhJ7zdnEqXyq1C2IRSsSelBNE/KOPPpKIMOk6bJ1ohX7zzTeXVBnknRx2uysMQk+aCMeQabsdI6kz8803XzKZYDtGJg68KaBwD3Y7R4TcHkfq6ZuUE5vSwxsE2nZz84lss6c+/VsR5qNZfmoK94OU2+fCZMVt548//jC333677BvPpIZUGd5k8LEtrucZk25jcVOeGC/CzY497JrDRIC1BzwDxseCYCYM7N6DlJOywzoE/iQ1hwW/TzzxhExKrNDzu/J7MhnimfE2hgXOPPe8NxWK0ldRoVcURVH6HKTVkGuNwBJ5Rr7J60Yy2f4xJvTkcBOJXmyxxUSsba43gorEsrMNH1riGiLLRNARaSv05MITebZSaRd28pVXtrx0oV/eGJA7zzjZ6YWI/ZdffiltUM477zxJ7aFtJhj2OAJMHyym5YuxnCd1hYmLzc1nAsKYSXGxqS/k4bN7DZMSFqfaDzQR3ec697n4MJkhlx1xZ5ysP7BvCNgVx42o+4uS3a0/kXPunTbI5eceTjzxRMnBJ9eeCRV1DjjgAHPXXXdJWg7Pj8mWu8iY9B8mMKTm2I9OkZbDJEFR/mmo0CuKoih9CsSSfcsRPFJn2GuedA0i6Sy05KupVlyJ+iK9dsEoEXHSaUg5QWqJqpPTHvpSLCk85JOzuNYK/bLLLitRY6LRFNonj54+mWTY43y4CrElzYS96kmDIdKM9BKptrnyjMW2TQqLD3vOs6CXCD0RfmSdY6SysOMOwm0lGOE/44wzJOJ91FFHyViJbJOPTsqL3ZmGNBo+5BTCSjkfqbLPjKg5+/i721v6Qs92oT7k2RPx53dyn6sVdn47JN6eZ9LD5Mhuk8mfvG3gudgv5SL3ug+98k9EhV5RFEXpU5B2YaUP6SRqTsoJBSln0aUVRyLyLFi1e52TvkJE3F5PoT4fQEI+WbxKBJkFqkTmWehKVNxKN2KNRCOjeYVdXPiIFfumk0/Ol2MRbWSZHH+bK0/+PxMH8s/52qsPbxBITWEsRPOJ2iPTtGnTU6z8kndPChHCyzoAK/BuQf65TxbBhmC7Sj7ShfTbBamk/RC1d0W6jNDzdoBJhRV42iQdirclRN/tBIr7pw3un9+WnYhsPj73wDNn3LwxYTKkKP9EVOgVRVGUPgVfekW6WTBJystpp52WEvRaC0JPeghST743iz9JZ7ECS38Iul8vrxARJ92EPHLyxklnAT+X3cruvPPOK9tZxiBNx0bIyY9ndxy+FIvwMjb+zXaRFtKJWLiLNJOuwoSEiQ0Ldq+//vok1cgHMeeNBO1Sl/UC9gu1LmWEnj7YvvPII480V111lbwV4DrScXge7I3PROXcc8+VlB2bxoS0kz5l02zog7QjFjDHxq0ofR0VekVRFKVPwddbiXyzwwzpMuSbkzrT3UIbeRBpJj/er5dXSA1xBdtClJ6UHKLUFFJiyNcnLYhUmrIgxaTXsGsMYyOv3I2gE1HnGZFKRBoSgn/zzTeLUOfloDNZII+efHcmCfQTkmjSnthWk3tgAuAumHXhfvmAlb9Il7Ei9eTI+4tcOcdvypsRUpZYW8CkTaPzyj8ZFXpFURSlz4H0Ef0OyWYzY3fTQZQpdtFqd+D+KfWGZ2p36YmBoCPk3AMTEV/Y6wWTDyYErfY7K0q9UaFXFEVRFEVRlBZGhV5RFEVRFEVRWhgVekVRFEVRFEVpYVToFUVRFEVRFKWFUaFXlJZjiDH9+xnTr58xAwb5J40ZkHOuT1Bw/30F+zvaUuutNrq+oiiK0msUCv3QjjZzxBFHpEv7YP+yHqNq/1XrC0M7TFtSv92Urz3UdLR5fR9xhGnryG5VlmawaffHHCnBW0mNN7/49YPPK1Wq33+o36ZlYP+01NQqkVXrBykQ2roJvdOPWwYO8S/sZQruv6/gC7UtZW+50fUVRVGUXiNH6Iukss0UemklqvZftX5MjEsK7eD2QJ9l2ykae1cJinFw3OHi1y8Welvyxl+ynbYOU/QTNI5BWZFJlf7ilXGq1s+jQGjrIfSDBgTG7JYBfo1epOD++yL+71HrfTe6vqIoitKjRITeFUpPfFOyWEKKu0XV/utZf1hEfXC7/Xe+yAquzPvSmncuoav/4mh+AOcefWEvokvEQ8/Gj7iHrim+x65n2Y23Jb2CK+OeeA8ZGD+XULV+EQVCW1XoXXnrP7D8uV6j4P77Mm7UvDu33uj6iqIoSo8QFPp8qQNHeHtAyKr2X62+K61d8l5e6J22AzIrOMKb6V5oVqHvpKywB84Nw3nG0WsaSJImExNuR9hDQlm1fiEFQltJ6J2xxYTdlfrudFGZgvvv05T4fXJpdH1FURSlJwgIfZ7sdtElfkWCWytV+69av1NYvbqlhb5Q1sER2uBFTS70qefh91F0b8PIff4NpaRsJ9Lup55UrV+GAqGtIvSlZL2g/x6n0f03mCRKHpswFtDo+oqiKErdyQp9IqR5QpdOvXC9LZVOkRN9TeVYpxuo1H/l+hHKCn1ZUc1vr/mFPpW6lOqkXPS9OIrfIBKhzZMVb7Go65RV6/v4uct+CQltRugD+fyhelB2opFIXcF1EFoYTIkMIUV37t+nSv/NSOEboAIaXV9RFEWpOxmhLxbS7IJNXzpdqffPCVEZrN5/1fox8gW8i+L+h5Evzi0g9Hni7qbkhAZQ6i1GgygU2oAcu7u+VK2fd12ohITWFfqYzEoJjLFw/J2UkbrUeoFICQx/GBXu31Kp/yamaoS80fUVRVGUupMR+tzIqSOKbR2Dc1Ir3Ai4L4auUGelt2r/VevHqF3o/fv2yH2T0ApCn/9MUm9qnLYKJ3uNxspKKD/YFcSBg8JpH1XrCzmLaoWClBN34WKoDVfy/fplRB2K3kT4Mh0YpowzdLzq/UOl/psY97cL/TdWRKPrK4qiKD1CeaF3oqrDRKwgV9qNwjttdQldWBir9l+1fow8eU2RmjQEbtDSS0KfX7L3Ui+hF9xIvVdKPPLGEBNyN/VDIuoRqaxaHwrTWXLqQkroI23E+khNOjIm3UWu0LspRZH+84iNLaHg/qv230xEU45Czz1Ao+u3OD/88IO58847zd13321ee+018+OPP/qXmM8//9wMGjTIvPDCC+azzz4zf/75p39JIe+++6459thjzYEHHmhuueUW89NPP/mXdAu33csvv9x88803/iWKovQRygl9MEWihBD7qRcZqc5Stf+q9WMUymtCOj8/dJ+p9QNBcc6mBYVLZCy9LvSRa3PGEXouTUFIyIMLRSNSWbW+G52OCnWsbieFQhwbE3j5/aExpNJ4AmIXbbsMdbj/Sv03Gf6bhtznEqDR9VscJH6ppZYy008/vVl99dXNiy++6F9ibr31VrPAAguY+eef3xx66KFB6S/i0UcfNTPMMIMZc8wxzdprr20uvvhic9111wXLI488Ulr43XY33HBD88EHH/iXKIrSRygU+rjglRPidOpFDdd3s/+q9WOUF3ooK+ShcdVSPzKWJki5SU9aOs/7gu+/RWkGfCGPpqBEpLJq/dzItyVS12LHEDpncUUtc1nJ/PXYOMtMKGLU8/6703+zkfxOec8jh0bXbyI++eQT8+qrr5pXXnlFSlE0/a+//pJoOTLcr18/s9FGG5kPP/wwdc3vv/9utttuOzPKKKOY0UYbzeyyyy65bcZ46KGHzKSTTir9FJU111zTvPfee1KP+9l2223NBhtsECzLLLOMGXXUUaXe5JNPblZbbbXMNbaceOKJ5osvvvCHpihKi5Ar9B05wlZeiNMR63BbXVTtv2r9GHnyGiMttV1FotPJW4NQe/VLuSlxaynKC737u6bvIXXfmQF4/z1kzjcYV8hzxTAilVXr11NoQ+cSSkTCYwtquT4ZZ+De/ElNLdTz/rvTf7ORCHXgOZeh0fWbBMR73333NXPPPbeZY445pBBNDwks13700Ufm+eefN/vvv78ZbrjhRIj33HNP8+yzz5rXX3/dvP/++yLub731lunfv7+cn3jiic1JJ50k593y/fff+11kcIV+pplmMmuttVZGuEPiXctEoKi4EwVFUVqPjNBnJTQknFBWOv1oc74oVu2/av0Y3RH6PJJxBqPUtY0tQ68IvfO7pu4hdtzFlfqifnqZjMTGRCYixHWrXwehDZ2zlM2Vj2HHGZLmKkJdz/vvTv/NRlWhbnT9JoHUmbnmmislsPyb9BWfjz/+2Oy6665m9tlnNxNMMEFy/TTTTCMTAsrWW29tPv30U3PRRRclEXCi9DPOOGNyjS133XWXtPvbb7+ZBx98UPLZ/bLZZpuZMcYYQ9phgrD77rtnrnHLQQcdZAYPHiwTikMOOUSuD5X111/fjD766NLudNNNZ7baaqvMNbZccMEF5quvvvIfh6IoLUJG6FN571EhKy+NwZSbvHar9l+1foT6Cn2X0IaFvQWEPrYeouSiYHfiVesYexQ3/zpPCGMpK3WrXwehDZ2zxPovhdN/aDKQ+2aigHref3f6V/ocf/zxh2lvbzdjjTWWiC0pNCOOOKIZf/zxzSmnnOJfLlFqotV+BNstpLI89dRTEjH3z/mFvHcg7/2MM86Q/v1Cuo59EzDSSCOJ3PvXuIX0mXvvvVfeJiD1jz/+uExO/HLOOefIfdLu4osvbq6//vrMNRTePHz99deSZqQoSmuSFfqSMllGcDPS5i+SDVK1/6r1w9R6fS656TZQ7h6i9LjQ50TYY6LvE1yo3AxEIuc+UWmsWL+MaLuThjyhDZ2zlN1vPkReug24bylyhhCkHvdfpX+l/jT49yBXfpttthGpRYZXWGEFibwPP/zwstD122+/TV3vCv2EE05otthiC4lgE0W3crz00kub448/XtJdEPGppppK6lBWXnlliYaHhJ4JhD2+6qqrSru8DaCPddZZRxau7rTTTqnI+Y477mh23nlnia5PO+20Unfqqac2TzzxhLTLZIXx+G8GKCyIZfJCHSY0s846a+Ya+8YBoVcUpXUJCH0JeS0ThY3Iuyv5sbpV+69aP0Rhm2UpJbzNLfS5v6G78DWn8zL9NIyYbFuK0lUq1XcmBCFZdevGrikU+oI+8nBlOjP2Ttwx5r2lCFIwtjL3X6n/JqPUG4scmqa+LZH/m+hBiD6zAw1Si9CS547o8m9SZJ577rnU9a7Qk3ZD9JucdSLZ1Oc4OfgLLrigyDKThD322EPqUci9R76LhP7UU0+VKD8pOeT3L7bYYtLveeedZy699FJz7rnnSqEO0XjGudJKK0mfc845p6QRwfnnn28mmWSSpN3uFN44hNYTKIrSOgSFPr0biSeweecS3Lx5/5qc6G5ySU4feecsedfkncuhstCn+s2X3aYVev8eIilNqTSrwDWp87UOsDdISWNOBN0/Z8m7Ju+cxY1outLsytWAzmtCQps3oSjTf4gyIu1StLUlMM5QM1XvH6r03zR4W4jG7jVKo+v7v0POb9FD/P333+aEE04w4403nojwxhtvbN544w2JhiOyHGtrazO//PJLUscVeqLXLGwFdsZB5DnOn1tuuaWZZZZZJNLOpMGCGBNZ5zreApDmAr7QzzbbbDLRcHP1bSrQOOOMk6TXzDzzzObCCy+UnPnDDz9c9pW/+uqrzXfffSftvvPOO7Ibj7+9JeXII4804447rrRNbj736l9DeeCBB8yvv/6a3IOiKK1HWOjBl7dMiYltRWG3dLv/TirUzy6szSvZeyyqX+yw9RP6ouKPpWjstuSPy18IHSkB2W8afIHNlAIZrlTfEym/4FVWlEKSlQh9XskRq4yEBfovQ5lxBNuqeP+WbvffLFQV6kbXb3yEnh1m2DEGsUbqkXuOHX300YlYb7LJJrKrjaWM0JPi8vLLL0u6y1577WVuuummZLtKV+jHHnts+TAV+ELPItv55pvPLLLIImbKKaeUYyxgXX755WUrSrsAljx4Jgw33HCD7HfPBOK2226T/e55a+DLeXeEnnLjjTeal156KXkOiqK0FnGh7yS0qDUuc8UfVbKkxTEu17X1n6U79ctK7bBSVuiz18VpXqH3r88lOo747910hKQwlmoSokp9v66bPlIktHkTikiVhKDQ50wAconJeYn2qtx/QoX+m4G6pbw0qD40KIee6Dx55nwUCqElEv7www/L8XvuuUfy4zlO+s0dd9yR1HOFnkg5OfEsfiXdBUHnOCkqfBn2sMMOkzx6ouhEuVmA6wo959haEnyhP/30082bb74pBXEfYYQRROh5e7DffvuldrUhpWfeeec1I488svTFeMss3q2l8DaAvhRFaU0KhV5RFEVRWg3SaIhus2sMwoqUs388IMPkwHMcaT/qqKOSemVEGaF/8sknZVtI/o2Mb7755mbIkCGlhZ6oODAJYDtLxsNuN6FdbjhOH7xl2G233eSNgt1e01/g6m+3aQttkiLkXsuaACY2HF9ooYVkkqEoSmuiQq8oiqL0Od59912z9tprJ0KLtNoPNhEFn2yyyeQ4u9Qst9xyyaJQV+jZY56Fs6Ta8Cd7zVuhZ/ccRJyIOW0g3uxQQ057GaE/+eSTJR1n6NCh0jeTD3azIU/+yiuvlLQgUm922GEHqcfi1+OOO06+Dsue9vYDWO5HrHhrQI693WWHiD4TFiYDbHU5cOBAqU8hyk/77JxDnxz7/PPPvaeoKEqroEKvKIqi9DmQZb666keqQ4VtIMlHJx3HFXpknXx18udZeIrUW6FHwpH0Aw44QKQZqSfqTepNSOjJeWeHHdsnEwyi6ddee62kApEfj4iT984HnriWiQS57yyCZXHtkksuKTvisLDXh20naYu8fKL8yPxSSy0lX7hl8sK/2aaTtwjk5LOoF8lnIS7tsp+9oiitiwq9oiiK0qdggSpSbb+Syh7syDOCbAuybheMsmiWyDYLZsssinW3eSQHnn3cWayKePNmgLQYX+iR9H322UeO0y9CzxsA3g7wwSmu5Rzjpm3y2Yn6syUlkfk11lhD5Jt+iKZbmCg888wzMoaJJ544mTCwdoDtLj/55BNJzUHoKUwcSLXhnvk397T//vubDz/8MGlTUZTWQ4VeURRF6VOQDoN0EzUnWr3uuuvKDi5IuS1Exf/9738nAowwv/322zULPekvpLpQyNv/9NNPJfrtCz3pMeyow3F2uCGyz4JctqlcccUVk0W6vtCTD0/qEGJPHvwFF1xgfv75Z5m0MFYmA0TY7eTFFsbKmLmOiDyRflJv7HneKrAGgNQbUm14O6EoSuuiQq8oiqL0KW6//fYk+o5Us4+7D/uuI8d20SxpN2zd6Ar9RBNNZLbbbjuRa/LNrXTnfYiJlBZ2xLFt2i+6Pv3002aeeeaR4wsvvLB8KIrdbEjjWXTRRZMddHyhp9h0HAScnHvgTcB//vMfifJTj2g7EwQ7RoSeSQxtsYc9bw04Z78cy0Ri++23l49bcY3ddlNRlNZEhV5RFEXpU/AVVqLziCtRdr726kNEmp1q7LaWiDOpJyxqtUJPWgqRb87xJ/92hZ6FqS+++KJE4Snkz5P7jshbqSZKDkweiLLTxmqrrSYTh46ODnPRRReZs88+OxFxJhDkyCP2ROSJ0CP+fEGWnXEQevLlSZHZZpttpA7XIfsXX3yxTBbsZOL4448XkWfffPLo55prLsmrZ3GvXchL5J6UHPbUD+XmK4rSGqjQK4qiKH0KItP2g0nsREOeeQgWtZJnbq9lYawr9ESzEWpEnD9tdNsVenam4cNQvAkgh51IOdcgzHwkinQWUoBIqyHlhcj4FltsYdZbbz1ph8JCVluPthZffHFJy+F6jpNvb6+lDBgwQNKD+NgUO/cwWWA8zz//vKwNsP27KTZMJDbddFN5g3DMMcfIdTa6bycfLPxVFKU1UaFXFEVRlE7clJsppphCdp1hy0g+iseuMK7QAwtWbXqPW4iIEyEnlYVFrDaHnf3mieLbRbDdKTa3n4W27E5DTj1wjHPutUxEmDCwXeell14qbya+/fZb+botEX7SdFg0zEeybDqPoiithwq9oiiKonRCRJ0INlJPuord/YWPUhGN5/jBBx8sUgyPPvqo7DDDcQqpL2wVeeutt0pqDCD1pNcQIWe/+ddee820tbXJ/vLdKYg5Mu9DP+xfT849bwHYd/7++++XnXhYM+DDIl5y6Em3YTGvoiitiwq9oiiKonTCl1uReiL1bPlIWg3wJ19n5TgpNHYRKdFxdrDhOOWDDz4wX375pbTjt8tCVqLg/J16pPx0pyDif/31V6p9C32wAJexc20RROwZj+5yoyitjQq9oiiKoiiKorQwKvSKoiiKoiiK0sKo0CuKoiiKoihKC6NCryiKoiiKoigtTKHQD+1ok+26UqV9sH9Zj1G1/6r1haEdpi2p327K1x5qOtq8vo84wrR1FG0NNti0+2OOlOCtpMabX/z6weeVKrXcfyeD2wPtdLOt3mZgf2P69UuXAYP8q+Jo/cbWhyEDnfoD/LOKoiiK0vLkCH2RVLaZQi+tRNX+q9aPiXFJCY1KbJl2isbeVXwhF4LjDhe/frHQ25I3/k5KjaPE79AQBmVFMlX6GzPEr+Oi9bN1erO+L/K2qNAriqIofY+I0LtC6QlXStJ6Ssaq9l/P+sMi6oPb7b9LiKwr820dJtVF3rmErv6Lo/kBnHv0hb2ILqEPPRv/jUPomk68CU1wHDLOnDYahiuTnjimJDEmlVo/ek2v1+9nzMAhxgyw/1ahVxRFUfoeQaHPlzpwhDdoatWo2n+1+q60dsl7eaF32o4JuyO7me6FZhX6ToomJd1OUWoSkjSPEsIYSv/Q+g2sP8SY/gF5V6FXFEVR+jABoc+T3S66xK/ewla1/6r1O4XVq1ta6AtlHZxJQ/CiJhf61PPI9tF1Lr+N5iRPFh0S6fQFUes3tj5NDMjWVaFXFEVR+jBZoU+ENE/G0qkXrtC5oheM3naSytVON1Cp/8r1I5QV+tyJgkN+e80v9KkofPoHKDWhalqQQRG/WHQY3ChwP3HQBK3f2PoxVOgVRVGUPkxG6IuFNJ1fHpJOV+r9c0JUBqv3X7V+jHwB76K4/2Hki3MLCL07KXInbqXeUDQxeZFfwcvPppCjbdH6ja0fQ4VeURRF6cNkhD4R11B03RHFto7BOWkjbgTcF0NXqLPSW7X/qvVj1C70/n175L5JaAWhDz+TWuo3JVb8+g/0z6QXZA4c1BUldtM7tH5j68dQoVcURVH6MOWF3om8DpPMgjxwNwrvtFWUX121/6r1Y4TkNUhq0hC4QUsvCX1+yd5LLUIeeiZFv2/TExPKJBXERoSdtI8yQqr1e6d+DBV6RVEUpQ9TTuiDaRQlhNjdDYVrMlKdpWr/VevHCMlrmHR+fug+U+sHguKbTQsKl8hYel3ou64t/5yalJBQujKZuGNEKLV+Y+vHUKFXFEVR+jCFQh8XvHJC3CV4TilzfTf7r1o/Rm2iWlbIQ+OqpX5kLA1MuQlJfkvhC2V0C8WIUGr9xtaPoUKvdIMffvjB3Hnnnebuu+82r732mvnxxx/9S8znn39uBg0aZF544QXz2WefmT///NO/pCa++eYbc8MNN5jzzz/ftLe3y79///1388orr5hnn31W/u7z22+/mS+++KJb5euvv5b6iqK0NrlC3xEQti7KCnE6Yh1uq4uq/VetHyMkr0WkI/FdRaL2yVuDUHv1S7kpcWspygu9+7t23UP5+k2KK5S5EhgRSq3f2PoxcttSlDBI/FJLLWWmn356s/rqq5sXX3zRv8TceuutZoEFFjDzzz+/OfTQQ4PSXwvvvvuuWXfddc0kk0xill56aRH5Bx980Ky00kpm+eWXN88991xm0vD888+b3XffvVvlyCOPlD4URWltMkKfldCQcEJZ6fSjzfmiV7X/qvVjdEfo80jG6ef6C7WNLUOvCL3zuzr34D7/WvtuCpKIcJEAOrutBHdp0foNqR9Dhf4fzyeffGJeffVVkVdKUTT9r7/+MrfccosZc8wxTb9+/cxGG21kPvzww9Q1RMu32247M8ooo5jRRhvN7LLLLrltluG9994za665pvQ599xzyyTi+uuvF8EffvjhzXrrrWeGDEn/N3/dddfJ9d0p0003nbnjjjtS7SmK0npkhD6V9x6UzU5KSmMw5Sav3ar9V60fob5C3xXdDgt7Cwh9bD2Em79fa+fNgJuv7eZx+7g7rrgBYq3f2PoxVOj/0SDe++67rwjyHHPMIYVoOiknPlz70UcfSdR7//33N8MNN5yI75577ikpL6+//rp5//33Rdzfeust079/fzk/8cQTm5NOOknOu+X777+XdrmeSYR/3i/33XefWXbZZaXNWWaZxdx+++3mySeflDcEo48+ullhhRUkxeenn35KxuwK/ZRTTmkWX3xxs8wyy0TLEkssYcYbbzwVekXpQ2SFvqRMlhHcTLTWXyQbpGr/VeuHqfX6XHLTbaDcPUTpcaF302386/LOtQIlI79RQdT6ja0fodbrmwn3rUWZyYtPq9evA6TOzDXXXKnINP9+5JFH/EvNxx9/bHbddVcz++yzmwkmmCC5fpppppEJAWXrrbc2n376qbnooovMqKOOKueJ0s8444zJNbbcdddd0i656ieccELmvF9mnXVWM9ZYY0mbtI3Uc3zqqaeWtwAzzDCDSDmTC4sr9IyNfH4mHbHC+UUXXVSFXlH6EAGhLyGvZbZmjMi7K/mxulX7r1o/RGGbZYlFtlM0t9AX/oZl35I0K0Xyl9oPPSCdWr+x9UMUtdmsuG8sujP+Vq9fB/744w9ZXGolmRSaEUcc0Yw//vjmlFNO8S9PpbzECkL91FNPmQ022CBzzi/INvA2gJx1/3x3yqSTTmoeeuihZMyu0BN9Jy+ee4uVo446SiYfXK9Cryh9g6DQp7c99AQ271yCmzfvX1MigpvXR945S941eedyqCz0qX7z3lBAkwq9fw85sp5OtQq0BdJe5FwjcYXRF5C8c5a8a/LOWfKuyTtnybsm75wl75q8c5a8a/LOWfKuyTuXR6sKfWZNgb/bTwGtXr8OkOayzTbbiLwi86SsEHknH500lm+//TZ1vSv0E044odliiy1ExDfbbDOZBHCcxarHH3+8iDUpOVNNNZXUoay88soiyVawQ0LP5GKnnXbKiDYFGUfK865ra2szH3zwQTJmzaFXFCUs9ODLW6bExLaisFu63X8nFepnF9bmlew9FtUvluz6CX1R8cdSNHZbyowruH4iU7LPrylIiWOoFIih1g/U6aX6GYnMK70vmDVRNcLd6vXrAKkp7ECDvJLOQp47aSv8myg1u8a4uEJP2s3jjz8uMk56DvU5Tg7+ggsuKJF+Jgl77LGH1KOQe7/VVlslwhwSeha4shUmefB+QdR33nnnzHXk6997772SEsROOu7iW9J6/NSdsoUJyMMPP+w8AUVRWpG40HcSkrK4zBV/VMmSFse4XNfWf5bu1C8rtcNKVkjD9bPXxWleofevL8bfttQpORH+piGJ7DqlbJoHaP3er9+XhB6q5qC3ev0K/P3335K3zgJQ5HvjjTc2b7zxhllnnXVEmDlGtPuXX35J6vi7zLBQFdgZB5G3Qr/llltKfvuqq66aymd3xZ23AOxQ4x8n8n/55ZcnO+7YgrSzG88+++wj17HQ9oEHHhB5P/roo2X7zH//+9+pdBv2kCcvnglHdwoLbtm9p+ruPIqiNJZCoVcURVGUVoQdZtZaay0Ra6QeuecYcmwj6JtssonsamMpI/Sk3Lz88suSm7/XXnuZm266KRFiV9zHHnts+TCVf5yJxLTTTpvsuGMLEw3aJZ2H69jV5rbbbpMxkYbDffBWgWMWxkWajr+/fC2F50JqkqIorYsKvaIoitLnIDr/xBNPSFQbOSZ9htQSjt9zzz0SJec46TduDrkr9OOMM46kpLD4lQ87IegcZ1EsO8Ucdthhkkc/88wzSySdBbiuuLuLV93j5N2zYw3pOkj7CCOMkEwg2Hf+7LPPTiYc5513nuTNs+MNQr/tttumJiCM3c3Z705xJy6KorQmKvSKoihKn4M0mnPOOceMNNJIIq1IOakpgLSTA89xpJ1dXyxld7khVWX99deXfyPkm2++uXzwqYzQjzHGGLLI9sADD5RFr3bHGcSaLTb/+9//irxzjBQbuwZgsskmk+g8e+VbXKHnLQSRfH/f+VBZaKGFZBy2XxV6RWltVOgVRVGUPse7775r1l577UTCyXcn/QaxJ7UFOeY40fLlllsu+ciUK/RExZFt0mH4k73mrdCTovLggw9KdJ42iLYj5++8806h0E8xxRTm0UcfzfQ377zzyqTg/vvvT94g2G02ieTvuOOOqQ9KgSv0fFCKNQL0RWEBLROAK664QtKDSM+x58ift4t8VegVpfVRoVcURVH6HOSuzzTTTInQ5xU+2oTgko7jCjayjhAjwrfccksSSUfokWLk+oADDpAoP1KPGJN6ExJ6d/tMJhek1gALYe2XYRFyFsVyjr7dMfJFWu7JX7zqCr0dl4WPX6277rpy3u6db3HXBKjQK0rro0KvKIqi9CmQXqSaqDbCyn7u5NC7C1AR5nHHHVfOk95y7LHHyoLZMotiXXF+88035eus7HZz9dVXy5uB3XbbLSP0b7/9trwJ4DiReLbL/O6770TIbZ4/57/66iuJrC+22GKJzJNKc+mll8q2lfvtt5+IPfvnMwGJCT35/ExGJppoIjnHpIF7oI5/Pyr0itL6qNAriqIofQqi4cgtUXNy6IlSv/TSS6ktIlkgS366leY11lhDpLtWoWfbSBbIUsjbJyrOlpa+0CPwc801lxxfdNFFZScbdqfh41ZMPBgrqUA///yzefrpp81ss80m15Jus9pqq4nkX3XVVZKCw2Tk9ttvl4lLTOjZLYf7s7n4tHfIIYfIfX/++edyX0suuaSMkXpMTBRFaV1U6BVFUZQ+BbJro+8I64UXXuhfYn799VdzwQUXJItmSbu58cYbU0JPdHu77baTxavsLmPz2v3UFhdy4NkRx7bJTjvAvvOTTz65iPt6661ndthhB8nRtxMK9pxn+8j77rvPrLLKKomII/RMSEjFOfnkk+UYi1kHDRq2qT+TEO6DnXDs3vbXXnutWWqppSTnn/5ow/ZD/j7jYyHwmWeeaW6++WZJxfFz8xVFaS1U6BVFUZSGc/jhh5uOjg7/cLc49dRTRWQRWKLsfO3Vh9QTdqqx6S5Evvfff39Z1GqFHqkmem63l7SSbYWe3WbIdycKTyF/ni/RIvJcR0QfwSaSztdfEXja2XvvvZMPXrFDDhMFovpMPEi7cUXfSviJJ56YfBCLPeyR8L/++kui7fRBGs5ZZ51lNtxwQ4nYW4knX58Pai2wwAKS62/va/zxx5fUH+751ltvlXZoT1GU1kSFXlEURWk4iCZfkK4HpNdcd911UtiJ5scff/QvEYhKk5dur2VhrCv0SPEEE0xgJplkEvnTSrIr9Ij6lFNOKW8CiLKPPPLIcg0TiuWXX15Emag98szxqaaaSvqiHxba3nDDDebuu++WaPl8882X1GUiwkevmExwjH3reZtgd+UhMs8EgD5YMMuuPW4knjcUnGPHHNJ4ePPAV2tJw2GxsDtOJhabbrqppA0pitKaqNAriqIoDaeeQl8FN+WGyDh57ueff76MjZQZV+jhuOOOS9J73IJgkydPdB55J0cfKSdv/dVXX031yQJWFr2ycBfBRvrZapI8eLbetNtlUljgSwoQk5HLLrss2UveFvpgMsBHr4jiu3vW088HH3wg6TpW7O1bByL7jFNRlNbk/wGTx3+VP8NfkgAAAABJRU5ErkJggg==;" vertex="1" parent="1">
                    <mxGeometry x="282" y="1004" width="503.5" height="230.44" as="geometry"/>
                </mxCell>
                <mxCell id="69" value="A" style="text;html=1;strokeColor=none;fillColor=none;align=center;verticalAlign=middle;whiteSpace=wrap;rounded=0;fontSize=18;" vertex="1" parent="1">
                    <mxGeometry x="300.5" y="894" width="60" height="30" as="geometry"/>
                </mxCell>
                <mxCell id="70" value="A::member" style="rounded=0;whiteSpace=wrap;html=1;fontSize=18;fillColor=#ffe6cc;strokeColor=#d79b00;" vertex="1" parent="1">
                    <mxGeometry x="252" y="958" width="157" height="27" as="geometry"/>
                </mxCell>
                <mxCell id="71" value="A::vtable" style="rounded=0;whiteSpace=wrap;html=1;fontSize=18;fillColor=#dae8fc;strokeColor=#6c8ebf;" vertex="1" parent="1">
                    <mxGeometry x="252" y="931" width="157" height="27" as="geometry"/>
                </mxCell>
                <mxCell id="74" value="C" style="text;html=1;strokeColor=none;fillColor=none;align=center;verticalAlign=middle;whiteSpace=wrap;rounded=0;fontSize=18;" vertex="1" parent="1">
                    <mxGeometry x="300.5" y="770" width="60" height="30" as="geometry"/>
                </mxCell>
                <mxCell id="75" value="C::member" style="rounded=0;whiteSpace=wrap;html=1;fontSize=18;fillColor=#ffe6cc;strokeColor=#d79b00;" vertex="1" parent="1">
                    <mxGeometry x="252" y="834" width="157" height="27" as="geometry"/>
                </mxCell>
                <mxCell id="76" value="C::vtable" style="rounded=0;whiteSpace=wrap;html=1;fontSize=18;fillColor=#dae8fc;strokeColor=#6c8ebf;" vertex="1" parent="1">
                    <mxGeometry x="252" y="807" width="157" height="27" as="geometry"/>
                </mxCell>
                <mxCell id="77" value="B" style="text;html=1;strokeColor=none;fillColor=none;align=center;verticalAlign=middle;whiteSpace=wrap;rounded=0;fontSize=18;" vertex="1" parent="1">
                    <mxGeometry x="300.5" y="661" width="60" height="30" as="geometry"/>
                </mxCell>
                <mxCell id="78" value="B::member" style="rounded=0;whiteSpace=wrap;html=1;fontSize=18;fillColor=#ffe6cc;strokeColor=#d79b00;" vertex="1" parent="1">
                    <mxGeometry x="252" y="725" width="157" height="27" as="geometry"/>
                </mxCell>
                <mxCell id="79" value="B::vtable" style="rounded=0;whiteSpace=wrap;html=1;fontSize=18;fillColor=#dae8fc;strokeColor=#6c8ebf;" vertex="1" parent="1">
                    <mxGeometry x="252" y="698" width="157" height="27" as="geometry"/>
                </mxCell>
                <mxCell id="80" value="BC" style="text;html=1;strokeColor=none;fillColor=none;align=center;verticalAlign=middle;whiteSpace=wrap;rounded=0;fontSize=18;" vertex="1" parent="1">
                    <mxGeometry x="485.5" y="671" width="60" height="30" as="geometry"/>
                </mxCell>
                <mxCell id="81" value="BC:offset_table" style="rounded=0;whiteSpace=wrap;html=1;fontSize=18;fillColor=#f8cecc;strokeColor=#b85450;" vertex="1" parent="1">
                    <mxGeometry x="437" y="735" width="157" height="27" as="geometry"/>
                </mxCell>
                <mxCell id="82" value="BC::vtable" style="rounded=0;whiteSpace=wrap;html=1;fontSize=18;fillColor=#dae8fc;strokeColor=#6c8ebf;" vertex="1" parent="1">
                    <mxGeometry x="437" y="708" width="157" height="27" as="geometry"/>
                </mxCell>
                <mxCell id="83" value="C::vtable" style="rounded=0;whiteSpace=wrap;html=1;fontSize=18;fillColor=#dae8fc;strokeColor=#6c8ebf;" vertex="1" parent="1">
                    <mxGeometry x="437" y="789" width="157" height="27" as="geometry"/>
                </mxCell>
                <mxCell id="84" value="B::member" style="rounded=0;whiteSpace=wrap;html=1;fontSize=18;fillColor=#fff2cc;strokeColor=#d6b656;" vertex="1" parent="1">
                    <mxGeometry x="437" y="762" width="157" height="27" as="geometry"/>
                </mxCell>
                <mxCell id="85" value="C::member" style="rounded=0;whiteSpace=wrap;html=1;fontSize=18;fillColor=#fff2cc;strokeColor=#d6b656;" vertex="1" parent="1">
                    <mxGeometry x="437" y="843" width="157" height="27" as="geometry"/>
                </mxCell>
                <mxCell id="86" value="C::offset_table" style="rounded=0;whiteSpace=wrap;html=1;fontSize=18;fillColor=#f8cecc;strokeColor=#b85450;" vertex="1" parent="1">
                    <mxGeometry x="437" y="816" width="157" height="27" as="geometry"/>
                </mxCell>
                <mxCell id="88" value="BC::member" style="rounded=0;whiteSpace=wrap;html=1;fontSize=18;fillColor=#fff2cc;strokeColor=#d6b656;" vertex="1" parent="1">
                    <mxGeometry x="437" y="870" width="157" height="27" as="geometry"/>
                </mxCell>
                <mxCell id="89" value="00000000" style="rounded=0;whiteSpace=wrap;html=1;fontSize=18;fillColor=#f5f5f5;fontColor=#333333;strokeColor=#666666;" vertex="1" parent="1">
                    <mxGeometry x="437" y="897" width="157" height="27" as="geometry"/>
                </mxCell>
                <mxCell id="91" value="A::member" style="rounded=0;whiteSpace=wrap;html=1;fontSize=18;fillColor=#ffe6cc;strokeColor=#d79b00;" vertex="1" parent="1">
                    <mxGeometry x="437" y="951" width="157" height="27" as="geometry"/>
                </mxCell>
                <mxCell id="92" value="A::vtable" style="rounded=0;whiteSpace=wrap;html=1;fontSize=18;fillColor=#dae8fc;strokeColor=#6c8ebf;" vertex="1" parent="1">
                    <mxGeometry x="437" y="924" width="157" height="27" as="geometry"/>
                </mxCell>
                <mxCell id="93" value="&lt;font style=&quot;&quot;&gt;&lt;font style=&quot;font-size: 18px;&quot;&gt;1. 申请内存块&lt;br&gt;2. 填offset_table&lt;br&gt;3. 构造虚基类A&lt;br&gt;4. 构造基类B且覆盖A虚表&lt;br&gt;5. 构造基类C且覆盖A虚表&lt;br&gt;6. 构造派生类BC且覆盖虚表A、B、C&lt;/font&gt;&lt;br&gt;&lt;/font&gt;" style="text;html=1;strokeColor=none;fillColor=none;align=left;verticalAlign=middle;whiteSpace=wrap;rounded=0;" vertex="1" parent="1">
                    <mxGeometry x="603" y="698" width="328" height="284" as="geometry"/>
                </mxCell>
            </root>
        </mxGraphModel>
    </diagram>
</mxfile>